%FSLAX45Y45*%
G04 Gerber Fmt 4.5, Leading zero omitted, Abs format (unit mm)*
G04 Created by KiCad (PCBNEW (6.0.2)) date 2022-06-07 20:48:54*
%MOMM*%
%LPD*%
G01*
G04 APERTURE LIST*
%TA.AperFunction,Profile*%
%ADD10C,0.100000*%
%TD*%
%ADD11C,0.200000*%
%ADD12C,0.076200*%
%ADD13C,0.080000*%
%ADD14C,0.090000*%
%ADD15C,0.100000*%
G04 APERTURE END LIST*
D10*
X5588000Y-6858000D02*
X12065000Y-6858000D01*
X12065000Y-6858000D02*
X12065000Y-12573000D01*
X12065000Y-12573000D02*
X5588000Y-12573000D01*
X5588000Y-12573000D02*
X5588000Y-6858000D01*
D11*
D12*
X6184900Y-10639400D02*
X6261100Y-10715600D01*
X6261100Y-10639400D02*
X6184900Y-10715600D01*
X6184900Y-10893400D02*
X6261100Y-10969600D01*
X6261100Y-10893400D02*
X6184900Y-10969600D01*
X6184900Y-11147400D02*
X6261100Y-11223600D01*
X6261100Y-11147400D02*
X6184900Y-11223600D01*
X6438900Y-7327900D02*
X6515100Y-7404100D01*
X6515100Y-7327900D02*
X6438900Y-7404100D01*
X6438900Y-9613900D02*
X6515100Y-9690100D01*
X6515100Y-9613900D02*
X6438900Y-9690100D01*
X6692900Y-7327900D02*
X6769100Y-7404100D01*
X6769100Y-7327900D02*
X6692900Y-7404100D01*
X6692900Y-9613900D02*
X6769100Y-9690100D01*
X6769100Y-9613900D02*
X6692900Y-9690100D01*
X6946900Y-7327900D02*
X7023100Y-7404100D01*
X7023100Y-7327900D02*
X6946900Y-7404100D01*
X6946900Y-9613900D02*
X7023100Y-9690100D01*
X7023100Y-9613900D02*
X6946900Y-9690100D01*
X7200900Y-7327900D02*
X7277100Y-7404100D01*
X7277100Y-7327900D02*
X7200900Y-7404100D01*
X7200900Y-9613900D02*
X7277100Y-9690100D01*
X7277100Y-9613900D02*
X7200900Y-9690100D01*
X7327900Y-10639400D02*
X7404100Y-10715600D01*
X7404100Y-10639400D02*
X7327900Y-10715600D01*
X7327900Y-10893400D02*
X7404100Y-10969600D01*
X7404100Y-10893400D02*
X7327900Y-10969600D01*
X7327900Y-11147400D02*
X7404100Y-11223600D01*
X7404100Y-11147400D02*
X7327900Y-11223600D01*
X7454900Y-7327900D02*
X7531100Y-7404100D01*
X7531100Y-7327900D02*
X7454900Y-7404100D01*
X7454900Y-9613900D02*
X7531100Y-9690100D01*
X7531100Y-9613900D02*
X7454900Y-9690100D01*
X7708900Y-7327900D02*
X7785100Y-7404100D01*
X7785100Y-7327900D02*
X7708900Y-7404100D01*
X7708900Y-9613900D02*
X7785100Y-9690100D01*
X7785100Y-9613900D02*
X7708900Y-9690100D01*
X7962900Y-7327900D02*
X8039100Y-7404100D01*
X8039100Y-7327900D02*
X7962900Y-7404100D01*
X7962900Y-9613900D02*
X8039100Y-9690100D01*
X8039100Y-9613900D02*
X7962900Y-9690100D01*
X8216900Y-7327900D02*
X8293100Y-7404100D01*
X8293100Y-7327900D02*
X8216900Y-7404100D01*
X8216900Y-9613900D02*
X8293100Y-9690100D01*
X8293100Y-9613900D02*
X8216900Y-9690100D01*
X8470900Y-7327900D02*
X8547100Y-7404100D01*
X8547100Y-7327900D02*
X8470900Y-7404100D01*
X8470900Y-9613900D02*
X8547100Y-9690100D01*
X8547100Y-9613900D02*
X8470900Y-9690100D01*
X8724900Y-7327900D02*
X8801100Y-7404100D01*
X8801100Y-7327900D02*
X8724900Y-7404100D01*
X8724900Y-9613900D02*
X8801100Y-9690100D01*
X8801100Y-9613900D02*
X8724900Y-9690100D01*
X8978900Y-7327900D02*
X9055100Y-7404100D01*
X9055100Y-7327900D02*
X8978900Y-7404100D01*
X8978900Y-9613900D02*
X9055100Y-9690100D01*
X9055100Y-9613900D02*
X8978900Y-9690100D01*
X9232900Y-7327900D02*
X9309100Y-7404100D01*
X9309100Y-7327900D02*
X9232900Y-7404100D01*
X9232900Y-9613900D02*
X9309100Y-9690100D01*
X9309100Y-9613900D02*
X9232900Y-9690100D01*
X9486900Y-7327900D02*
X9563100Y-7404100D01*
X9563100Y-7327900D02*
X9486900Y-7404100D01*
X9486900Y-9613900D02*
X9563100Y-9690100D01*
X9563100Y-9613900D02*
X9486900Y-9690100D01*
D13*
X6771000Y-11049000D02*
G75*
G03*
X6771000Y-11049000I-40000J0D01*
G01*
X6771000Y-12319000D02*
G75*
G03*
X6771000Y-12319000I-40000J0D01*
G01*
X7914000Y-11049000D02*
G75*
G03*
X7914000Y-11049000I-40000J0D01*
G01*
X7914000Y-12319000D02*
G75*
G03*
X7914000Y-12319000I-40000J0D01*
G01*
X8676000Y-11049000D02*
G75*
G03*
X8676000Y-11049000I-40000J0D01*
G01*
X8676000Y-12319000D02*
G75*
G03*
X8676000Y-12319000I-40000J0D01*
G01*
X8803000Y-10414000D02*
G75*
G03*
X8803000Y-10414000I-40000J0D01*
G01*
X9438000Y-11049000D02*
G75*
G03*
X9438000Y-11049000I-40000J0D01*
G01*
X9438000Y-12319000D02*
G75*
G03*
X9438000Y-12319000I-40000J0D01*
G01*
X10073000Y-10414000D02*
G75*
G03*
X10073000Y-10414000I-40000J0D01*
G01*
D14*
X9836000Y-11258000D02*
X9836000Y-11348000D01*
X9791000Y-11303000D02*
X9881000Y-11303000D01*
X10051900Y-11258000D02*
X10051900Y-11348000D01*
X10006900Y-11303000D02*
X10096900Y-11303000D01*
X10267800Y-11258000D02*
X10267800Y-11348000D01*
X10222800Y-11303000D02*
X10312800Y-11303000D01*
X10483700Y-11258000D02*
X10483700Y-11348000D01*
X10438700Y-11303000D02*
X10528700Y-11303000D01*
D15*
X11013356Y-11338356D02*
X11013356Y-11267644D01*
X10942644Y-11267644D01*
X10942644Y-11338356D01*
X11013356Y-11338356D01*
X11081356Y-10449356D02*
X11081356Y-10378644D01*
X11010644Y-10378644D01*
X11010644Y-10449356D01*
X11081356Y-10449356D01*
X11589356Y-10449356D02*
X11589356Y-10378644D01*
X11518644Y-10378644D01*
X11518644Y-10449356D01*
X11589356Y-10449356D01*
X11663356Y-11338356D02*
X11663356Y-11267644D01*
X11592644Y-11267644D01*
X11592644Y-11338356D01*
X11663356Y-11338356D01*
D11*
X5840619Y-12888476D02*
X5840619Y-12688476D01*
X5888238Y-12688476D01*
X5916809Y-12698000D01*
X5935857Y-12717048D01*
X5945381Y-12736095D01*
X5954905Y-12774190D01*
X5954905Y-12802762D01*
X5945381Y-12840857D01*
X5935857Y-12859905D01*
X5916809Y-12878952D01*
X5888238Y-12888476D01*
X5840619Y-12888476D01*
X6040619Y-12888476D02*
X6040619Y-12755143D01*
X6040619Y-12793238D02*
X6050143Y-12774190D01*
X6059667Y-12764667D01*
X6078714Y-12755143D01*
X6097762Y-12755143D01*
X6164428Y-12888476D02*
X6164428Y-12755143D01*
X6164428Y-12688476D02*
X6154905Y-12698000D01*
X6164428Y-12707524D01*
X6173952Y-12698000D01*
X6164428Y-12688476D01*
X6164428Y-12707524D01*
X6288238Y-12888476D02*
X6269190Y-12878952D01*
X6259667Y-12859905D01*
X6259667Y-12688476D01*
X6393000Y-12888476D02*
X6373952Y-12878952D01*
X6364428Y-12859905D01*
X6364428Y-12688476D01*
X6621571Y-12888476D02*
X6621571Y-12688476D01*
X6688238Y-12831333D01*
X6754905Y-12688476D01*
X6754905Y-12888476D01*
X6935857Y-12888476D02*
X6935857Y-12783714D01*
X6926333Y-12764667D01*
X6907286Y-12755143D01*
X6869190Y-12755143D01*
X6850143Y-12764667D01*
X6935857Y-12878952D02*
X6916809Y-12888476D01*
X6869190Y-12888476D01*
X6850143Y-12878952D01*
X6840619Y-12859905D01*
X6840619Y-12840857D01*
X6850143Y-12821809D01*
X6869190Y-12812286D01*
X6916809Y-12812286D01*
X6935857Y-12802762D01*
X7031095Y-12755143D02*
X7031095Y-12955143D01*
X7031095Y-12764667D02*
X7050143Y-12755143D01*
X7088238Y-12755143D01*
X7107286Y-12764667D01*
X7116809Y-12774190D01*
X7126333Y-12793238D01*
X7126333Y-12850381D01*
X7116809Y-12869428D01*
X7107286Y-12878952D01*
X7088238Y-12888476D01*
X7050143Y-12888476D01*
X7031095Y-12878952D01*
X7212048Y-12869428D02*
X7221571Y-12878952D01*
X7212048Y-12888476D01*
X7202524Y-12878952D01*
X7212048Y-12869428D01*
X7212048Y-12888476D01*
X7212048Y-12764667D02*
X7221571Y-12774190D01*
X7212048Y-12783714D01*
X7202524Y-12774190D01*
X7212048Y-12764667D01*
X7212048Y-12783714D01*
D12*
X5506800Y-13179900D02*
X5583000Y-13256100D01*
X5583000Y-13179900D02*
X5506800Y-13256100D01*
D11*
X5878714Y-13108476D02*
X5897762Y-13108476D01*
X5916809Y-13118000D01*
X5926333Y-13127524D01*
X5935857Y-13146571D01*
X5945381Y-13184667D01*
X5945381Y-13232286D01*
X5935857Y-13270381D01*
X5926333Y-13289428D01*
X5916809Y-13298952D01*
X5897762Y-13308476D01*
X5878714Y-13308476D01*
X5859667Y-13298952D01*
X5850143Y-13289428D01*
X5840619Y-13270381D01*
X5831095Y-13232286D01*
X5831095Y-13184667D01*
X5840619Y-13146571D01*
X5850143Y-13127524D01*
X5859667Y-13118000D01*
X5878714Y-13108476D01*
X6031095Y-13289428D02*
X6040619Y-13298952D01*
X6031095Y-13308476D01*
X6021571Y-13298952D01*
X6031095Y-13289428D01*
X6031095Y-13308476D01*
X6107286Y-13108476D02*
X6240619Y-13108476D01*
X6154905Y-13308476D01*
X6402524Y-13108476D02*
X6364428Y-13108476D01*
X6345381Y-13118000D01*
X6335857Y-13127524D01*
X6316809Y-13156095D01*
X6307286Y-13194190D01*
X6307286Y-13270381D01*
X6316809Y-13289428D01*
X6326333Y-13298952D01*
X6345381Y-13308476D01*
X6383476Y-13308476D01*
X6402524Y-13298952D01*
X6412048Y-13289428D01*
X6421571Y-13270381D01*
X6421571Y-13222762D01*
X6412048Y-13203714D01*
X6402524Y-13194190D01*
X6383476Y-13184667D01*
X6345381Y-13184667D01*
X6326333Y-13194190D01*
X6316809Y-13203714D01*
X6307286Y-13222762D01*
X6497762Y-13127524D02*
X6507286Y-13118000D01*
X6526333Y-13108476D01*
X6573952Y-13108476D01*
X6593000Y-13118000D01*
X6602524Y-13127524D01*
X6612048Y-13146571D01*
X6612048Y-13165619D01*
X6602524Y-13194190D01*
X6488238Y-13308476D01*
X6612048Y-13308476D01*
X6697762Y-13308476D02*
X6697762Y-13175143D01*
X6697762Y-13194190D02*
X6707286Y-13184667D01*
X6726333Y-13175143D01*
X6754905Y-13175143D01*
X6773952Y-13184667D01*
X6783476Y-13203714D01*
X6783476Y-13308476D01*
X6783476Y-13203714D02*
X6793000Y-13184667D01*
X6812048Y-13175143D01*
X6840619Y-13175143D01*
X6859667Y-13184667D01*
X6869190Y-13203714D01*
X6869190Y-13308476D01*
X6964428Y-13308476D02*
X6964428Y-13175143D01*
X6964428Y-13194190D02*
X6973952Y-13184667D01*
X6993000Y-13175143D01*
X7021571Y-13175143D01*
X7040619Y-13184667D01*
X7050143Y-13203714D01*
X7050143Y-13308476D01*
X7050143Y-13203714D02*
X7059667Y-13184667D01*
X7078714Y-13175143D01*
X7107286Y-13175143D01*
X7126333Y-13184667D01*
X7135857Y-13203714D01*
X7135857Y-13308476D01*
X7526333Y-13098952D02*
X7354905Y-13356095D01*
X7783476Y-13108476D02*
X7802524Y-13108476D01*
X7821571Y-13118000D01*
X7831095Y-13127524D01*
X7840619Y-13146571D01*
X7850143Y-13184667D01*
X7850143Y-13232286D01*
X7840619Y-13270381D01*
X7831095Y-13289428D01*
X7821571Y-13298952D01*
X7802524Y-13308476D01*
X7783476Y-13308476D01*
X7764428Y-13298952D01*
X7754905Y-13289428D01*
X7745381Y-13270381D01*
X7735857Y-13232286D01*
X7735857Y-13184667D01*
X7745381Y-13146571D01*
X7754905Y-13127524D01*
X7764428Y-13118000D01*
X7783476Y-13108476D01*
X7935857Y-13289428D02*
X7945381Y-13298952D01*
X7935857Y-13308476D01*
X7926333Y-13298952D01*
X7935857Y-13289428D01*
X7935857Y-13308476D01*
X8069190Y-13108476D02*
X8088238Y-13108476D01*
X8107286Y-13118000D01*
X8116809Y-13127524D01*
X8126333Y-13146571D01*
X8135857Y-13184667D01*
X8135857Y-13232286D01*
X8126333Y-13270381D01*
X8116809Y-13289428D01*
X8107286Y-13298952D01*
X8088238Y-13308476D01*
X8069190Y-13308476D01*
X8050143Y-13298952D01*
X8040619Y-13289428D01*
X8031095Y-13270381D01*
X8021571Y-13232286D01*
X8021571Y-13184667D01*
X8031095Y-13146571D01*
X8040619Y-13127524D01*
X8050143Y-13118000D01*
X8069190Y-13108476D01*
X8202524Y-13108476D02*
X8326333Y-13108476D01*
X8259667Y-13184667D01*
X8288238Y-13184667D01*
X8307286Y-13194190D01*
X8316809Y-13203714D01*
X8326333Y-13222762D01*
X8326333Y-13270381D01*
X8316809Y-13289428D01*
X8307286Y-13298952D01*
X8288238Y-13308476D01*
X8231095Y-13308476D01*
X8212048Y-13298952D01*
X8202524Y-13289428D01*
X8450143Y-13108476D02*
X8469190Y-13108476D01*
X8488238Y-13118000D01*
X8497762Y-13127524D01*
X8507286Y-13146571D01*
X8516810Y-13184667D01*
X8516810Y-13232286D01*
X8507286Y-13270381D01*
X8497762Y-13289428D01*
X8488238Y-13298952D01*
X8469190Y-13308476D01*
X8450143Y-13308476D01*
X8431095Y-13298952D01*
X8421571Y-13289428D01*
X8412048Y-13270381D01*
X8402524Y-13232286D01*
X8402524Y-13184667D01*
X8412048Y-13146571D01*
X8421571Y-13127524D01*
X8431095Y-13118000D01*
X8450143Y-13108476D01*
X8640619Y-13108476D02*
X8659667Y-13108476D01*
X8678714Y-13118000D01*
X8688238Y-13127524D01*
X8697762Y-13146571D01*
X8707286Y-13184667D01*
X8707286Y-13232286D01*
X8697762Y-13270381D01*
X8688238Y-13289428D01*
X8678714Y-13298952D01*
X8659667Y-13308476D01*
X8640619Y-13308476D01*
X8621571Y-13298952D01*
X8612048Y-13289428D01*
X8602524Y-13270381D01*
X8593000Y-13232286D01*
X8593000Y-13184667D01*
X8602524Y-13146571D01*
X8612048Y-13127524D01*
X8621571Y-13118000D01*
X8640619Y-13108476D01*
X8783476Y-13108476D02*
X8783476Y-13146571D01*
X8859667Y-13108476D02*
X8859667Y-13146571D01*
X9154905Y-13384667D02*
X9145381Y-13375143D01*
X9126333Y-13346571D01*
X9116810Y-13327524D01*
X9107286Y-13298952D01*
X9097762Y-13251333D01*
X9097762Y-13213238D01*
X9107286Y-13165619D01*
X9116810Y-13137048D01*
X9126333Y-13118000D01*
X9145381Y-13089428D01*
X9154905Y-13079905D01*
X9212048Y-13108476D02*
X9335857Y-13108476D01*
X9269190Y-13184667D01*
X9297762Y-13184667D01*
X9316810Y-13194190D01*
X9326333Y-13203714D01*
X9335857Y-13222762D01*
X9335857Y-13270381D01*
X9326333Y-13289428D01*
X9316810Y-13298952D01*
X9297762Y-13308476D01*
X9240619Y-13308476D01*
X9221571Y-13298952D01*
X9212048Y-13289428D01*
X9412048Y-13127524D02*
X9421571Y-13118000D01*
X9440619Y-13108476D01*
X9488238Y-13108476D01*
X9507286Y-13118000D01*
X9516810Y-13127524D01*
X9526333Y-13146571D01*
X9526333Y-13165619D01*
X9516810Y-13194190D01*
X9402524Y-13308476D01*
X9526333Y-13308476D01*
X9764429Y-13308476D02*
X9764429Y-13108476D01*
X9850143Y-13308476D02*
X9850143Y-13203714D01*
X9840619Y-13184667D01*
X9821571Y-13175143D01*
X9793000Y-13175143D01*
X9773952Y-13184667D01*
X9764429Y-13194190D01*
X9973952Y-13308476D02*
X9954905Y-13298952D01*
X9945381Y-13289428D01*
X9935857Y-13270381D01*
X9935857Y-13213238D01*
X9945381Y-13194190D01*
X9954905Y-13184667D01*
X9973952Y-13175143D01*
X10002524Y-13175143D01*
X10021571Y-13184667D01*
X10031095Y-13194190D01*
X10040619Y-13213238D01*
X10040619Y-13270381D01*
X10031095Y-13289428D01*
X10021571Y-13298952D01*
X10002524Y-13308476D01*
X9973952Y-13308476D01*
X10154905Y-13308476D02*
X10135857Y-13298952D01*
X10126333Y-13279905D01*
X10126333Y-13108476D01*
X10307286Y-13298952D02*
X10288238Y-13308476D01*
X10250143Y-13308476D01*
X10231095Y-13298952D01*
X10221571Y-13279905D01*
X10221571Y-13203714D01*
X10231095Y-13184667D01*
X10250143Y-13175143D01*
X10288238Y-13175143D01*
X10307286Y-13184667D01*
X10316810Y-13203714D01*
X10316810Y-13222762D01*
X10221571Y-13241809D01*
X10393000Y-13298952D02*
X10412048Y-13308476D01*
X10450143Y-13308476D01*
X10469190Y-13298952D01*
X10478714Y-13279905D01*
X10478714Y-13270381D01*
X10469190Y-13251333D01*
X10450143Y-13241809D01*
X10421571Y-13241809D01*
X10402524Y-13232286D01*
X10393000Y-13213238D01*
X10393000Y-13203714D01*
X10402524Y-13184667D01*
X10421571Y-13175143D01*
X10450143Y-13175143D01*
X10469190Y-13184667D01*
X10545381Y-13384667D02*
X10554905Y-13375143D01*
X10573952Y-13346571D01*
X10583476Y-13327524D01*
X10593000Y-13298952D01*
X10602524Y-13251333D01*
X10602524Y-13213238D01*
X10593000Y-13165619D01*
X10583476Y-13137048D01*
X10573952Y-13118000D01*
X10554905Y-13089428D01*
X10545381Y-13079905D01*
D13*
X5583000Y-13482000D02*
G75*
G03*
X5583000Y-13482000I-40000J0D01*
G01*
D11*
X5878714Y-13372476D02*
X5897762Y-13372476D01*
X5916809Y-13382000D01*
X5926333Y-13391524D01*
X5935857Y-13410571D01*
X5945381Y-13448667D01*
X5945381Y-13496286D01*
X5935857Y-13534381D01*
X5926333Y-13553428D01*
X5916809Y-13562952D01*
X5897762Y-13572476D01*
X5878714Y-13572476D01*
X5859667Y-13562952D01*
X5850143Y-13553428D01*
X5840619Y-13534381D01*
X5831095Y-13496286D01*
X5831095Y-13448667D01*
X5840619Y-13410571D01*
X5850143Y-13391524D01*
X5859667Y-13382000D01*
X5878714Y-13372476D01*
X6031095Y-13553428D02*
X6040619Y-13562952D01*
X6031095Y-13572476D01*
X6021571Y-13562952D01*
X6031095Y-13553428D01*
X6031095Y-13572476D01*
X6154905Y-13458190D02*
X6135857Y-13448667D01*
X6126333Y-13439143D01*
X6116809Y-13420095D01*
X6116809Y-13410571D01*
X6126333Y-13391524D01*
X6135857Y-13382000D01*
X6154905Y-13372476D01*
X6193000Y-13372476D01*
X6212048Y-13382000D01*
X6221571Y-13391524D01*
X6231095Y-13410571D01*
X6231095Y-13420095D01*
X6221571Y-13439143D01*
X6212048Y-13448667D01*
X6193000Y-13458190D01*
X6154905Y-13458190D01*
X6135857Y-13467714D01*
X6126333Y-13477238D01*
X6116809Y-13496286D01*
X6116809Y-13534381D01*
X6126333Y-13553428D01*
X6135857Y-13562952D01*
X6154905Y-13572476D01*
X6193000Y-13572476D01*
X6212048Y-13562952D01*
X6221571Y-13553428D01*
X6231095Y-13534381D01*
X6231095Y-13496286D01*
X6221571Y-13477238D01*
X6212048Y-13467714D01*
X6193000Y-13458190D01*
X6354905Y-13372476D02*
X6373952Y-13372476D01*
X6393000Y-13382000D01*
X6402524Y-13391524D01*
X6412048Y-13410571D01*
X6421571Y-13448667D01*
X6421571Y-13496286D01*
X6412048Y-13534381D01*
X6402524Y-13553428D01*
X6393000Y-13562952D01*
X6373952Y-13572476D01*
X6354905Y-13572476D01*
X6335857Y-13562952D01*
X6326333Y-13553428D01*
X6316809Y-13534381D01*
X6307286Y-13496286D01*
X6307286Y-13448667D01*
X6316809Y-13410571D01*
X6326333Y-13391524D01*
X6335857Y-13382000D01*
X6354905Y-13372476D01*
X6545381Y-13372476D02*
X6564428Y-13372476D01*
X6583476Y-13382000D01*
X6593000Y-13391524D01*
X6602524Y-13410571D01*
X6612048Y-13448667D01*
X6612048Y-13496286D01*
X6602524Y-13534381D01*
X6593000Y-13553428D01*
X6583476Y-13562952D01*
X6564428Y-13572476D01*
X6545381Y-13572476D01*
X6526333Y-13562952D01*
X6516809Y-13553428D01*
X6507286Y-13534381D01*
X6497762Y-13496286D01*
X6497762Y-13448667D01*
X6507286Y-13410571D01*
X6516809Y-13391524D01*
X6526333Y-13382000D01*
X6545381Y-13372476D01*
X6697762Y-13572476D02*
X6697762Y-13439143D01*
X6697762Y-13458190D02*
X6707286Y-13448667D01*
X6726333Y-13439143D01*
X6754905Y-13439143D01*
X6773952Y-13448667D01*
X6783476Y-13467714D01*
X6783476Y-13572476D01*
X6783476Y-13467714D02*
X6793000Y-13448667D01*
X6812048Y-13439143D01*
X6840619Y-13439143D01*
X6859667Y-13448667D01*
X6869190Y-13467714D01*
X6869190Y-13572476D01*
X6964428Y-13572476D02*
X6964428Y-13439143D01*
X6964428Y-13458190D02*
X6973952Y-13448667D01*
X6993000Y-13439143D01*
X7021571Y-13439143D01*
X7040619Y-13448667D01*
X7050143Y-13467714D01*
X7050143Y-13572476D01*
X7050143Y-13467714D02*
X7059667Y-13448667D01*
X7078714Y-13439143D01*
X7107286Y-13439143D01*
X7126333Y-13448667D01*
X7135857Y-13467714D01*
X7135857Y-13572476D01*
X7526333Y-13362952D02*
X7354905Y-13620095D01*
X7783476Y-13372476D02*
X7802524Y-13372476D01*
X7821571Y-13382000D01*
X7831095Y-13391524D01*
X7840619Y-13410571D01*
X7850143Y-13448667D01*
X7850143Y-13496286D01*
X7840619Y-13534381D01*
X7831095Y-13553428D01*
X7821571Y-13562952D01*
X7802524Y-13572476D01*
X7783476Y-13572476D01*
X7764428Y-13562952D01*
X7754905Y-13553428D01*
X7745381Y-13534381D01*
X7735857Y-13496286D01*
X7735857Y-13448667D01*
X7745381Y-13410571D01*
X7754905Y-13391524D01*
X7764428Y-13382000D01*
X7783476Y-13372476D01*
X7935857Y-13553428D02*
X7945381Y-13562952D01*
X7935857Y-13572476D01*
X7926333Y-13562952D01*
X7935857Y-13553428D01*
X7935857Y-13572476D01*
X8069190Y-13372476D02*
X8088238Y-13372476D01*
X8107286Y-13382000D01*
X8116809Y-13391524D01*
X8126333Y-13410571D01*
X8135857Y-13448667D01*
X8135857Y-13496286D01*
X8126333Y-13534381D01*
X8116809Y-13553428D01*
X8107286Y-13562952D01*
X8088238Y-13572476D01*
X8069190Y-13572476D01*
X8050143Y-13562952D01*
X8040619Y-13553428D01*
X8031095Y-13534381D01*
X8021571Y-13496286D01*
X8021571Y-13448667D01*
X8031095Y-13410571D01*
X8040619Y-13391524D01*
X8050143Y-13382000D01*
X8069190Y-13372476D01*
X8202524Y-13372476D02*
X8326333Y-13372476D01*
X8259667Y-13448667D01*
X8288238Y-13448667D01*
X8307286Y-13458190D01*
X8316809Y-13467714D01*
X8326333Y-13486762D01*
X8326333Y-13534381D01*
X8316809Y-13553428D01*
X8307286Y-13562952D01*
X8288238Y-13572476D01*
X8231095Y-13572476D01*
X8212048Y-13562952D01*
X8202524Y-13553428D01*
X8516810Y-13572476D02*
X8402524Y-13572476D01*
X8459667Y-13572476D02*
X8459667Y-13372476D01*
X8440619Y-13401048D01*
X8421571Y-13420095D01*
X8402524Y-13429619D01*
X8697762Y-13372476D02*
X8602524Y-13372476D01*
X8593000Y-13467714D01*
X8602524Y-13458190D01*
X8621571Y-13448667D01*
X8669190Y-13448667D01*
X8688238Y-13458190D01*
X8697762Y-13467714D01*
X8707286Y-13486762D01*
X8707286Y-13534381D01*
X8697762Y-13553428D01*
X8688238Y-13562952D01*
X8669190Y-13572476D01*
X8621571Y-13572476D01*
X8602524Y-13562952D01*
X8593000Y-13553428D01*
X8783476Y-13372476D02*
X8783476Y-13410571D01*
X8859667Y-13372476D02*
X8859667Y-13410571D01*
X9154905Y-13648667D02*
X9145381Y-13639143D01*
X9126333Y-13610571D01*
X9116810Y-13591524D01*
X9107286Y-13562952D01*
X9097762Y-13515333D01*
X9097762Y-13477238D01*
X9107286Y-13429619D01*
X9116810Y-13401048D01*
X9126333Y-13382000D01*
X9145381Y-13353428D01*
X9154905Y-13343905D01*
X9335857Y-13572476D02*
X9221571Y-13572476D01*
X9278714Y-13572476D02*
X9278714Y-13372476D01*
X9259667Y-13401048D01*
X9240619Y-13420095D01*
X9221571Y-13429619D01*
X9459667Y-13372476D02*
X9478714Y-13372476D01*
X9497762Y-13382000D01*
X9507286Y-13391524D01*
X9516810Y-13410571D01*
X9526333Y-13448667D01*
X9526333Y-13496286D01*
X9516810Y-13534381D01*
X9507286Y-13553428D01*
X9497762Y-13562952D01*
X9478714Y-13572476D01*
X9459667Y-13572476D01*
X9440619Y-13562952D01*
X9431095Y-13553428D01*
X9421571Y-13534381D01*
X9412048Y-13496286D01*
X9412048Y-13448667D01*
X9421571Y-13410571D01*
X9431095Y-13391524D01*
X9440619Y-13382000D01*
X9459667Y-13372476D01*
X9764429Y-13572476D02*
X9764429Y-13372476D01*
X9850143Y-13572476D02*
X9850143Y-13467714D01*
X9840619Y-13448667D01*
X9821571Y-13439143D01*
X9793000Y-13439143D01*
X9773952Y-13448667D01*
X9764429Y-13458190D01*
X9973952Y-13572476D02*
X9954905Y-13562952D01*
X9945381Y-13553428D01*
X9935857Y-13534381D01*
X9935857Y-13477238D01*
X9945381Y-13458190D01*
X9954905Y-13448667D01*
X9973952Y-13439143D01*
X10002524Y-13439143D01*
X10021571Y-13448667D01*
X10031095Y-13458190D01*
X10040619Y-13477238D01*
X10040619Y-13534381D01*
X10031095Y-13553428D01*
X10021571Y-13562952D01*
X10002524Y-13572476D01*
X9973952Y-13572476D01*
X10154905Y-13572476D02*
X10135857Y-13562952D01*
X10126333Y-13543905D01*
X10126333Y-13372476D01*
X10307286Y-13562952D02*
X10288238Y-13572476D01*
X10250143Y-13572476D01*
X10231095Y-13562952D01*
X10221571Y-13543905D01*
X10221571Y-13467714D01*
X10231095Y-13448667D01*
X10250143Y-13439143D01*
X10288238Y-13439143D01*
X10307286Y-13448667D01*
X10316810Y-13467714D01*
X10316810Y-13486762D01*
X10221571Y-13505809D01*
X10393000Y-13562952D02*
X10412048Y-13572476D01*
X10450143Y-13572476D01*
X10469190Y-13562952D01*
X10478714Y-13543905D01*
X10478714Y-13534381D01*
X10469190Y-13515333D01*
X10450143Y-13505809D01*
X10421571Y-13505809D01*
X10402524Y-13496286D01*
X10393000Y-13477238D01*
X10393000Y-13467714D01*
X10402524Y-13448667D01*
X10421571Y-13439143D01*
X10450143Y-13439143D01*
X10469190Y-13448667D01*
X10545381Y-13648667D02*
X10554905Y-13639143D01*
X10573952Y-13610571D01*
X10583476Y-13591524D01*
X10593000Y-13562952D01*
X10602524Y-13515333D01*
X10602524Y-13477238D01*
X10593000Y-13429619D01*
X10583476Y-13401048D01*
X10573952Y-13382000D01*
X10554905Y-13353428D01*
X10545381Y-13343905D01*
D14*
X5538000Y-13701000D02*
X5538000Y-13791000D01*
X5493000Y-13746000D02*
X5583000Y-13746000D01*
D11*
X5878714Y-13636476D02*
X5897762Y-13636476D01*
X5916809Y-13646000D01*
X5926333Y-13655524D01*
X5935857Y-13674571D01*
X5945381Y-13712667D01*
X5945381Y-13760286D01*
X5935857Y-13798381D01*
X5926333Y-13817428D01*
X5916809Y-13826952D01*
X5897762Y-13836476D01*
X5878714Y-13836476D01*
X5859667Y-13826952D01*
X5850143Y-13817428D01*
X5840619Y-13798381D01*
X5831095Y-13760286D01*
X5831095Y-13712667D01*
X5840619Y-13674571D01*
X5850143Y-13655524D01*
X5859667Y-13646000D01*
X5878714Y-13636476D01*
X6031095Y-13817428D02*
X6040619Y-13826952D01*
X6031095Y-13836476D01*
X6021571Y-13826952D01*
X6031095Y-13817428D01*
X6031095Y-13836476D01*
X6135857Y-13836476D02*
X6173952Y-13836476D01*
X6193000Y-13826952D01*
X6202524Y-13817428D01*
X6221571Y-13788857D01*
X6231095Y-13750762D01*
X6231095Y-13674571D01*
X6221571Y-13655524D01*
X6212048Y-13646000D01*
X6193000Y-13636476D01*
X6154905Y-13636476D01*
X6135857Y-13646000D01*
X6126333Y-13655524D01*
X6116809Y-13674571D01*
X6116809Y-13722190D01*
X6126333Y-13741238D01*
X6135857Y-13750762D01*
X6154905Y-13760286D01*
X6193000Y-13760286D01*
X6212048Y-13750762D01*
X6221571Y-13741238D01*
X6231095Y-13722190D01*
X6354905Y-13636476D02*
X6373952Y-13636476D01*
X6393000Y-13646000D01*
X6402524Y-13655524D01*
X6412048Y-13674571D01*
X6421571Y-13712667D01*
X6421571Y-13760286D01*
X6412048Y-13798381D01*
X6402524Y-13817428D01*
X6393000Y-13826952D01*
X6373952Y-13836476D01*
X6354905Y-13836476D01*
X6335857Y-13826952D01*
X6326333Y-13817428D01*
X6316809Y-13798381D01*
X6307286Y-13760286D01*
X6307286Y-13712667D01*
X6316809Y-13674571D01*
X6326333Y-13655524D01*
X6335857Y-13646000D01*
X6354905Y-13636476D01*
X6545381Y-13636476D02*
X6564428Y-13636476D01*
X6583476Y-13646000D01*
X6593000Y-13655524D01*
X6602524Y-13674571D01*
X6612048Y-13712667D01*
X6612048Y-13760286D01*
X6602524Y-13798381D01*
X6593000Y-13817428D01*
X6583476Y-13826952D01*
X6564428Y-13836476D01*
X6545381Y-13836476D01*
X6526333Y-13826952D01*
X6516809Y-13817428D01*
X6507286Y-13798381D01*
X6497762Y-13760286D01*
X6497762Y-13712667D01*
X6507286Y-13674571D01*
X6516809Y-13655524D01*
X6526333Y-13646000D01*
X6545381Y-13636476D01*
X6697762Y-13836476D02*
X6697762Y-13703143D01*
X6697762Y-13722190D02*
X6707286Y-13712667D01*
X6726333Y-13703143D01*
X6754905Y-13703143D01*
X6773952Y-13712667D01*
X6783476Y-13731714D01*
X6783476Y-13836476D01*
X6783476Y-13731714D02*
X6793000Y-13712667D01*
X6812048Y-13703143D01*
X6840619Y-13703143D01*
X6859667Y-13712667D01*
X6869190Y-13731714D01*
X6869190Y-13836476D01*
X6964428Y-13836476D02*
X6964428Y-13703143D01*
X6964428Y-13722190D02*
X6973952Y-13712667D01*
X6993000Y-13703143D01*
X7021571Y-13703143D01*
X7040619Y-13712667D01*
X7050143Y-13731714D01*
X7050143Y-13836476D01*
X7050143Y-13731714D02*
X7059667Y-13712667D01*
X7078714Y-13703143D01*
X7107286Y-13703143D01*
X7126333Y-13712667D01*
X7135857Y-13731714D01*
X7135857Y-13836476D01*
X7526333Y-13626952D02*
X7354905Y-13884095D01*
X7783476Y-13636476D02*
X7802524Y-13636476D01*
X7821571Y-13646000D01*
X7831095Y-13655524D01*
X7840619Y-13674571D01*
X7850143Y-13712667D01*
X7850143Y-13760286D01*
X7840619Y-13798381D01*
X7831095Y-13817428D01*
X7821571Y-13826952D01*
X7802524Y-13836476D01*
X7783476Y-13836476D01*
X7764428Y-13826952D01*
X7754905Y-13817428D01*
X7745381Y-13798381D01*
X7735857Y-13760286D01*
X7735857Y-13712667D01*
X7745381Y-13674571D01*
X7754905Y-13655524D01*
X7764428Y-13646000D01*
X7783476Y-13636476D01*
X7935857Y-13817428D02*
X7945381Y-13826952D01*
X7935857Y-13836476D01*
X7926333Y-13826952D01*
X7935857Y-13817428D01*
X7935857Y-13836476D01*
X8069190Y-13636476D02*
X8088238Y-13636476D01*
X8107286Y-13646000D01*
X8116809Y-13655524D01*
X8126333Y-13674571D01*
X8135857Y-13712667D01*
X8135857Y-13760286D01*
X8126333Y-13798381D01*
X8116809Y-13817428D01*
X8107286Y-13826952D01*
X8088238Y-13836476D01*
X8069190Y-13836476D01*
X8050143Y-13826952D01*
X8040619Y-13817428D01*
X8031095Y-13798381D01*
X8021571Y-13760286D01*
X8021571Y-13712667D01*
X8031095Y-13674571D01*
X8040619Y-13655524D01*
X8050143Y-13646000D01*
X8069190Y-13636476D01*
X8202524Y-13636476D02*
X8326333Y-13636476D01*
X8259667Y-13712667D01*
X8288238Y-13712667D01*
X8307286Y-13722190D01*
X8316809Y-13731714D01*
X8326333Y-13750762D01*
X8326333Y-13798381D01*
X8316809Y-13817428D01*
X8307286Y-13826952D01*
X8288238Y-13836476D01*
X8231095Y-13836476D01*
X8212048Y-13826952D01*
X8202524Y-13817428D01*
X8507286Y-13636476D02*
X8412048Y-13636476D01*
X8402524Y-13731714D01*
X8412048Y-13722190D01*
X8431095Y-13712667D01*
X8478714Y-13712667D01*
X8497762Y-13722190D01*
X8507286Y-13731714D01*
X8516810Y-13750762D01*
X8516810Y-13798381D01*
X8507286Y-13817428D01*
X8497762Y-13826952D01*
X8478714Y-13836476D01*
X8431095Y-13836476D01*
X8412048Y-13826952D01*
X8402524Y-13817428D01*
X8688238Y-13703143D02*
X8688238Y-13836476D01*
X8640619Y-13626952D02*
X8593000Y-13769809D01*
X8716810Y-13769809D01*
X8783476Y-13636476D02*
X8783476Y-13674571D01*
X8859667Y-13636476D02*
X8859667Y-13674571D01*
X9154905Y-13912667D02*
X9145381Y-13903143D01*
X9126333Y-13874571D01*
X9116810Y-13855524D01*
X9107286Y-13826952D01*
X9097762Y-13779333D01*
X9097762Y-13741238D01*
X9107286Y-13693619D01*
X9116810Y-13665048D01*
X9126333Y-13646000D01*
X9145381Y-13617428D01*
X9154905Y-13607905D01*
X9316810Y-13703143D02*
X9316810Y-13836476D01*
X9269190Y-13626952D02*
X9221571Y-13769809D01*
X9345381Y-13769809D01*
X9573952Y-13836476D02*
X9573952Y-13636476D01*
X9659667Y-13836476D02*
X9659667Y-13731714D01*
X9650143Y-13712667D01*
X9631095Y-13703143D01*
X9602524Y-13703143D01*
X9583476Y-13712667D01*
X9573952Y-13722190D01*
X9783476Y-13836476D02*
X9764429Y-13826952D01*
X9754905Y-13817428D01*
X9745381Y-13798381D01*
X9745381Y-13741238D01*
X9754905Y-13722190D01*
X9764429Y-13712667D01*
X9783476Y-13703143D01*
X9812048Y-13703143D01*
X9831095Y-13712667D01*
X9840619Y-13722190D01*
X9850143Y-13741238D01*
X9850143Y-13798381D01*
X9840619Y-13817428D01*
X9831095Y-13826952D01*
X9812048Y-13836476D01*
X9783476Y-13836476D01*
X9964429Y-13836476D02*
X9945381Y-13826952D01*
X9935857Y-13807905D01*
X9935857Y-13636476D01*
X10116810Y-13826952D02*
X10097762Y-13836476D01*
X10059667Y-13836476D01*
X10040619Y-13826952D01*
X10031095Y-13807905D01*
X10031095Y-13731714D01*
X10040619Y-13712667D01*
X10059667Y-13703143D01*
X10097762Y-13703143D01*
X10116810Y-13712667D01*
X10126333Y-13731714D01*
X10126333Y-13750762D01*
X10031095Y-13769809D01*
X10202524Y-13826952D02*
X10221571Y-13836476D01*
X10259667Y-13836476D01*
X10278714Y-13826952D01*
X10288238Y-13807905D01*
X10288238Y-13798381D01*
X10278714Y-13779333D01*
X10259667Y-13769809D01*
X10231095Y-13769809D01*
X10212048Y-13760286D01*
X10202524Y-13741238D01*
X10202524Y-13731714D01*
X10212048Y-13712667D01*
X10231095Y-13703143D01*
X10259667Y-13703143D01*
X10278714Y-13712667D01*
X10354905Y-13912667D02*
X10364429Y-13903143D01*
X10383476Y-13874571D01*
X10393000Y-13855524D01*
X10402524Y-13826952D01*
X10412048Y-13779333D01*
X10412048Y-13741238D01*
X10402524Y-13693619D01*
X10393000Y-13665048D01*
X10383476Y-13646000D01*
X10364429Y-13617428D01*
X10354905Y-13607905D01*
D15*
X5568356Y-14045356D02*
X5568356Y-13974644D01*
X5497644Y-13974644D01*
X5497644Y-14045356D01*
X5568356Y-14045356D01*
D11*
X5945381Y-14100476D02*
X5831095Y-14100476D01*
X5888238Y-14100476D02*
X5888238Y-13900476D01*
X5869190Y-13929048D01*
X5850143Y-13948095D01*
X5831095Y-13957619D01*
X6031095Y-14081428D02*
X6040619Y-14090952D01*
X6031095Y-14100476D01*
X6021571Y-14090952D01*
X6031095Y-14081428D01*
X6031095Y-14100476D01*
X6164428Y-13900476D02*
X6183476Y-13900476D01*
X6202524Y-13910000D01*
X6212048Y-13919524D01*
X6221571Y-13938571D01*
X6231095Y-13976667D01*
X6231095Y-14024286D01*
X6221571Y-14062381D01*
X6212048Y-14081428D01*
X6202524Y-14090952D01*
X6183476Y-14100476D01*
X6164428Y-14100476D01*
X6145381Y-14090952D01*
X6135857Y-14081428D01*
X6126333Y-14062381D01*
X6116809Y-14024286D01*
X6116809Y-13976667D01*
X6126333Y-13938571D01*
X6135857Y-13919524D01*
X6145381Y-13910000D01*
X6164428Y-13900476D01*
X6354905Y-13900476D02*
X6373952Y-13900476D01*
X6393000Y-13910000D01*
X6402524Y-13919524D01*
X6412048Y-13938571D01*
X6421571Y-13976667D01*
X6421571Y-14024286D01*
X6412048Y-14062381D01*
X6402524Y-14081428D01*
X6393000Y-14090952D01*
X6373952Y-14100476D01*
X6354905Y-14100476D01*
X6335857Y-14090952D01*
X6326333Y-14081428D01*
X6316809Y-14062381D01*
X6307286Y-14024286D01*
X6307286Y-13976667D01*
X6316809Y-13938571D01*
X6326333Y-13919524D01*
X6335857Y-13910000D01*
X6354905Y-13900476D01*
X6545381Y-13900476D02*
X6564428Y-13900476D01*
X6583476Y-13910000D01*
X6593000Y-13919524D01*
X6602524Y-13938571D01*
X6612048Y-13976667D01*
X6612048Y-14024286D01*
X6602524Y-14062381D01*
X6593000Y-14081428D01*
X6583476Y-14090952D01*
X6564428Y-14100476D01*
X6545381Y-14100476D01*
X6526333Y-14090952D01*
X6516809Y-14081428D01*
X6507286Y-14062381D01*
X6497762Y-14024286D01*
X6497762Y-13976667D01*
X6507286Y-13938571D01*
X6516809Y-13919524D01*
X6526333Y-13910000D01*
X6545381Y-13900476D01*
X6697762Y-14100476D02*
X6697762Y-13967143D01*
X6697762Y-13986190D02*
X6707286Y-13976667D01*
X6726333Y-13967143D01*
X6754905Y-13967143D01*
X6773952Y-13976667D01*
X6783476Y-13995714D01*
X6783476Y-14100476D01*
X6783476Y-13995714D02*
X6793000Y-13976667D01*
X6812048Y-13967143D01*
X6840619Y-13967143D01*
X6859667Y-13976667D01*
X6869190Y-13995714D01*
X6869190Y-14100476D01*
X6964428Y-14100476D02*
X6964428Y-13967143D01*
X6964428Y-13986190D02*
X6973952Y-13976667D01*
X6993000Y-13967143D01*
X7021571Y-13967143D01*
X7040619Y-13976667D01*
X7050143Y-13995714D01*
X7050143Y-14100476D01*
X7050143Y-13995714D02*
X7059667Y-13976667D01*
X7078714Y-13967143D01*
X7107286Y-13967143D01*
X7126333Y-13976667D01*
X7135857Y-13995714D01*
X7135857Y-14100476D01*
X7526333Y-13890952D02*
X7354905Y-14148095D01*
X7783476Y-13900476D02*
X7802524Y-13900476D01*
X7821571Y-13910000D01*
X7831095Y-13919524D01*
X7840619Y-13938571D01*
X7850143Y-13976667D01*
X7850143Y-14024286D01*
X7840619Y-14062381D01*
X7831095Y-14081428D01*
X7821571Y-14090952D01*
X7802524Y-14100476D01*
X7783476Y-14100476D01*
X7764428Y-14090952D01*
X7754905Y-14081428D01*
X7745381Y-14062381D01*
X7735857Y-14024286D01*
X7735857Y-13976667D01*
X7745381Y-13938571D01*
X7754905Y-13919524D01*
X7764428Y-13910000D01*
X7783476Y-13900476D01*
X7935857Y-14081428D02*
X7945381Y-14090952D01*
X7935857Y-14100476D01*
X7926333Y-14090952D01*
X7935857Y-14081428D01*
X7935857Y-14100476D01*
X8069190Y-13900476D02*
X8088238Y-13900476D01*
X8107286Y-13910000D01*
X8116809Y-13919524D01*
X8126333Y-13938571D01*
X8135857Y-13976667D01*
X8135857Y-14024286D01*
X8126333Y-14062381D01*
X8116809Y-14081428D01*
X8107286Y-14090952D01*
X8088238Y-14100476D01*
X8069190Y-14100476D01*
X8050143Y-14090952D01*
X8040619Y-14081428D01*
X8031095Y-14062381D01*
X8021571Y-14024286D01*
X8021571Y-13976667D01*
X8031095Y-13938571D01*
X8040619Y-13919524D01*
X8050143Y-13910000D01*
X8069190Y-13900476D01*
X8202524Y-13900476D02*
X8326333Y-13900476D01*
X8259667Y-13976667D01*
X8288238Y-13976667D01*
X8307286Y-13986190D01*
X8316809Y-13995714D01*
X8326333Y-14014762D01*
X8326333Y-14062381D01*
X8316809Y-14081428D01*
X8307286Y-14090952D01*
X8288238Y-14100476D01*
X8231095Y-14100476D01*
X8212048Y-14090952D01*
X8202524Y-14081428D01*
X8421571Y-14100476D02*
X8459667Y-14100476D01*
X8478714Y-14090952D01*
X8488238Y-14081428D01*
X8507286Y-14052857D01*
X8516810Y-14014762D01*
X8516810Y-13938571D01*
X8507286Y-13919524D01*
X8497762Y-13910000D01*
X8478714Y-13900476D01*
X8440619Y-13900476D01*
X8421571Y-13910000D01*
X8412048Y-13919524D01*
X8402524Y-13938571D01*
X8402524Y-13986190D01*
X8412048Y-14005238D01*
X8421571Y-14014762D01*
X8440619Y-14024286D01*
X8478714Y-14024286D01*
X8497762Y-14014762D01*
X8507286Y-14005238D01*
X8516810Y-13986190D01*
X8688238Y-13967143D02*
X8688238Y-14100476D01*
X8640619Y-13890952D02*
X8593000Y-14033809D01*
X8716810Y-14033809D01*
X8783476Y-13900476D02*
X8783476Y-13938571D01*
X8859667Y-13900476D02*
X8859667Y-13938571D01*
X9154905Y-14176667D02*
X9145381Y-14167143D01*
X9126333Y-14138571D01*
X9116810Y-14119524D01*
X9107286Y-14090952D01*
X9097762Y-14043333D01*
X9097762Y-14005238D01*
X9107286Y-13957619D01*
X9116810Y-13929048D01*
X9126333Y-13910000D01*
X9145381Y-13881428D01*
X9154905Y-13871905D01*
X9316810Y-13967143D02*
X9316810Y-14100476D01*
X9269190Y-13890952D02*
X9221571Y-14033809D01*
X9345381Y-14033809D01*
X9573952Y-14100476D02*
X9573952Y-13900476D01*
X9659667Y-14100476D02*
X9659667Y-13995714D01*
X9650143Y-13976667D01*
X9631095Y-13967143D01*
X9602524Y-13967143D01*
X9583476Y-13976667D01*
X9573952Y-13986190D01*
X9783476Y-14100476D02*
X9764429Y-14090952D01*
X9754905Y-14081428D01*
X9745381Y-14062381D01*
X9745381Y-14005238D01*
X9754905Y-13986190D01*
X9764429Y-13976667D01*
X9783476Y-13967143D01*
X9812048Y-13967143D01*
X9831095Y-13976667D01*
X9840619Y-13986190D01*
X9850143Y-14005238D01*
X9850143Y-14062381D01*
X9840619Y-14081428D01*
X9831095Y-14090952D01*
X9812048Y-14100476D01*
X9783476Y-14100476D01*
X9964429Y-14100476D02*
X9945381Y-14090952D01*
X9935857Y-14071905D01*
X9935857Y-13900476D01*
X10116810Y-14090952D02*
X10097762Y-14100476D01*
X10059667Y-14100476D01*
X10040619Y-14090952D01*
X10031095Y-14071905D01*
X10031095Y-13995714D01*
X10040619Y-13976667D01*
X10059667Y-13967143D01*
X10097762Y-13967143D01*
X10116810Y-13976667D01*
X10126333Y-13995714D01*
X10126333Y-14014762D01*
X10031095Y-14033809D01*
X10202524Y-14090952D02*
X10221571Y-14100476D01*
X10259667Y-14100476D01*
X10278714Y-14090952D01*
X10288238Y-14071905D01*
X10288238Y-14062381D01*
X10278714Y-14043333D01*
X10259667Y-14033809D01*
X10231095Y-14033809D01*
X10212048Y-14024286D01*
X10202524Y-14005238D01*
X10202524Y-13995714D01*
X10212048Y-13976667D01*
X10231095Y-13967143D01*
X10259667Y-13967143D01*
X10278714Y-13976667D01*
X10354905Y-14176667D02*
X10364429Y-14167143D01*
X10383476Y-14138571D01*
X10393000Y-14119524D01*
X10402524Y-14090952D01*
X10412048Y-14043333D01*
X10412048Y-14005238D01*
X10402524Y-13957619D01*
X10393000Y-13929048D01*
X10383476Y-13910000D01*
X10364429Y-13881428D01*
X10354905Y-13871905D01*
M02*
