G04 #@! TF.GenerationSoftware,KiCad,Pcbnew,(6.0.2)*
G04 #@! TF.CreationDate,2022-06-07T20:46:00+01:00*
G04 #@! TF.ProjectId,Smart_Door_Sensor,536d6172-745f-4446-9f6f-725f53656e73,rev?*
G04 #@! TF.SameCoordinates,Original*
G04 #@! TF.FileFunction,Legend,Bot*
G04 #@! TF.FilePolarity,Positive*
%FSLAX46Y46*%
G04 Gerber Fmt 4.6, Leading zero omitted, Abs format (unit mm)*
G04 Created by KiCad (PCBNEW (6.0.2)) date 2022-06-07 20:46:00*
%MOMM*%
%LPD*%
G01*
G04 APERTURE LIST*
%ADD10C,1.524000*%
%ADD11C,1.600000*%
%ADD12O,1.600000X1.600000*%
%ADD13C,2.000000*%
%ADD14R,1.600000X1.600000*%
%ADD15R,1.800000X1.800000*%
%ADD16C,1.800000*%
G04 APERTURE END LIST*
%LPC*%
D10*
X62230000Y-106775000D03*
X62230000Y-109315000D03*
X62230000Y-111855000D03*
X73660000Y-106775000D03*
X73660000Y-109315000D03*
X73660000Y-111855000D03*
D11*
X67310000Y-123190000D03*
D12*
X67310000Y-110490000D03*
D11*
X87630000Y-104140000D03*
D12*
X100330000Y-104140000D03*
D13*
X110460000Y-104140000D03*
X115540000Y-104140000D03*
D14*
X109780000Y-113030000D03*
D11*
X116280000Y-113030000D03*
X78740000Y-123190000D03*
D12*
X78740000Y-110490000D03*
D11*
X86360000Y-123190000D03*
D12*
X86360000Y-110490000D03*
D10*
X95250000Y-73660000D03*
X92710000Y-73660000D03*
X90170000Y-73660000D03*
X87630000Y-73660000D03*
X85090000Y-73660000D03*
X82550000Y-73660000D03*
X80010000Y-73660000D03*
X77470000Y-73660000D03*
X74930000Y-73660000D03*
X72390000Y-73660000D03*
X69850000Y-73660000D03*
X67310000Y-73660000D03*
X64770000Y-73660000D03*
X64770000Y-96520000D03*
X67310000Y-96520000D03*
X69850000Y-96520000D03*
X72390000Y-96520000D03*
X74930000Y-96520000D03*
X77470000Y-96520000D03*
X80010000Y-96520000D03*
X82550000Y-96520000D03*
X85090000Y-96520000D03*
X87630000Y-96520000D03*
X90170000Y-96520000D03*
X92710000Y-96520000D03*
X95250000Y-96520000D03*
D15*
X98360000Y-113030000D03*
D16*
X100519000Y-113030000D03*
X102678000Y-113030000D03*
X104837000Y-113030000D03*
D11*
X93980000Y-123190000D03*
D12*
X93980000Y-110490000D03*
M02*
