G04 #@! TF.GenerationSoftware,KiCad,Pcbnew,(6.0.2)*
G04 #@! TF.CreationDate,2022-06-07T20:46:00+01:00*
G04 #@! TF.ProjectId,Smart_Door_Sensor,536d6172-745f-4446-9f6f-725f53656e73,rev?*
G04 #@! TF.SameCoordinates,Original*
G04 #@! TF.FileFunction,Copper,L1,Top*
G04 #@! TF.FilePolarity,Positive*
%FSLAX46Y46*%
G04 Gerber Fmt 4.6, Leading zero omitted, Abs format (unit mm)*
G04 Created by KiCad (PCBNEW (6.0.2)) date 2022-06-07 20:46:00*
%MOMM*%
%LPD*%
G01*
G04 APERTURE LIST*
G04 #@! TA.AperFunction,ComponentPad*
%ADD10C,1.524000*%
G04 #@! TD*
G04 #@! TA.AperFunction,ComponentPad*
%ADD11C,1.600000*%
G04 #@! TD*
G04 #@! TA.AperFunction,ComponentPad*
%ADD12O,1.600000X1.600000*%
G04 #@! TD*
G04 #@! TA.AperFunction,ComponentPad*
%ADD13C,2.000000*%
G04 #@! TD*
G04 #@! TA.AperFunction,ComponentPad*
%ADD14R,1.600000X1.600000*%
G04 #@! TD*
G04 #@! TA.AperFunction,ComponentPad*
%ADD15R,1.800000X1.800000*%
G04 #@! TD*
G04 #@! TA.AperFunction,ComponentPad*
%ADD16C,1.800000*%
G04 #@! TD*
G04 #@! TA.AperFunction,Conductor*
%ADD17C,1.500000*%
G04 #@! TD*
G04 APERTURE END LIST*
D10*
X62230000Y-106775000D03*
X62230000Y-109315000D03*
X62230000Y-111855000D03*
X73660000Y-106775000D03*
X73660000Y-109315000D03*
X73660000Y-111855000D03*
D11*
X67310000Y-123190000D03*
D12*
X67310000Y-110490000D03*
D11*
X87630000Y-104140000D03*
D12*
X100330000Y-104140000D03*
D13*
X110460000Y-104140000D03*
X115540000Y-104140000D03*
D14*
X109780000Y-113030000D03*
D11*
X116280000Y-113030000D03*
X78740000Y-123190000D03*
D12*
X78740000Y-110490000D03*
D11*
X86360000Y-123190000D03*
D12*
X86360000Y-110490000D03*
D10*
X95250000Y-73660000D03*
X92710000Y-73660000D03*
X90170000Y-73660000D03*
X87630000Y-73660000D03*
X85090000Y-73660000D03*
X82550000Y-73660000D03*
X80010000Y-73660000D03*
X77470000Y-73660000D03*
X74930000Y-73660000D03*
X72390000Y-73660000D03*
X69850000Y-73660000D03*
X67310000Y-73660000D03*
X64770000Y-73660000D03*
X64770000Y-96520000D03*
X67310000Y-96520000D03*
X69850000Y-96520000D03*
X72390000Y-96520000D03*
X74930000Y-96520000D03*
X77470000Y-96520000D03*
X80010000Y-96520000D03*
X82550000Y-96520000D03*
X85090000Y-96520000D03*
X87630000Y-96520000D03*
X90170000Y-96520000D03*
X92710000Y-96520000D03*
X95250000Y-96520000D03*
D15*
X98360000Y-113030000D03*
D16*
X100519000Y-113030000D03*
X102678000Y-113030000D03*
X104837000Y-113030000D03*
D11*
X93980000Y-123190000D03*
D12*
X93980000Y-110490000D03*
D17*
X98360000Y-111060000D02*
X97790000Y-110490000D01*
X98360000Y-113030000D02*
X98360000Y-111060000D01*
X97790000Y-110490000D02*
X93980000Y-110490000D01*
X62230000Y-109315000D02*
X66135000Y-109315000D01*
X66135000Y-109315000D02*
X67310000Y-110490000D01*
X77565000Y-109315000D02*
X78740000Y-110490000D01*
X73660000Y-109315000D02*
X77565000Y-109315000D01*
X58420000Y-116840000D02*
X58420000Y-78740000D01*
X93980000Y-123190000D02*
X93980000Y-121920000D01*
X58420000Y-78740000D02*
X60960000Y-76200000D01*
X77470000Y-74930000D02*
X77470000Y-73660000D01*
X93980000Y-121920000D02*
X91440000Y-119380000D01*
X91440000Y-119380000D02*
X60960000Y-119380000D01*
X60960000Y-76200000D02*
X76200000Y-76200000D01*
X60960000Y-119380000D02*
X58420000Y-116840000D01*
X76200000Y-76200000D02*
X77470000Y-74930000D01*
X111730000Y-107950000D02*
X88900000Y-107950000D01*
X88900000Y-107950000D02*
X86360000Y-110490000D01*
X115540000Y-104140000D02*
X111730000Y-107950000D01*
X95250000Y-97790000D02*
X95250000Y-96520000D01*
X92710000Y-100330000D02*
X95250000Y-97790000D01*
X86360000Y-100330000D02*
X92710000Y-100330000D01*
X73660000Y-106775000D02*
X79915000Y-106775000D01*
X62230000Y-106775000D02*
X73660000Y-106775000D01*
X79915000Y-106775000D02*
X86360000Y-100330000D01*
X110460000Y-104140000D02*
X110460000Y-78710000D01*
X86360000Y-76200000D02*
X85090000Y-74930000D01*
X85090000Y-74930000D02*
X85090000Y-73660000D01*
X110460000Y-78710000D02*
X107950000Y-76200000D01*
X107950000Y-76200000D02*
X86360000Y-76200000D01*
X109780000Y-113030000D02*
X110490000Y-113030000D01*
X118110000Y-105410000D02*
X118110000Y-74930000D01*
X118110000Y-74930000D02*
X114300000Y-71120000D01*
X71120000Y-71120000D02*
X69850000Y-72390000D01*
X69850000Y-72390000D02*
X69850000Y-73660000D01*
X110490000Y-113030000D02*
X118110000Y-105410000D01*
X114300000Y-71120000D02*
X71120000Y-71120000D01*
M02*
