M48
; DRILL file {KiCad (6.0.2)} date Tue Jun  7 20:48:37 2022
; FORMAT={-:-/ absolute / metric / decimal}
; #@! TF.CreationDate,2022-06-07T20:48:37+01:00
; #@! TF.GenerationSoftware,Kicad,Pcbnew,(6.0.2)
; #@! TF.FileFunction,Plated,1,2,PTH
FMAT,2
METRIC
; #@! TA.AperFunction,Plated,PTH,ComponentDrill
T1C0.762
; #@! TA.AperFunction,Plated,PTH,ComponentDrill
T2C0.800
; #@! TA.AperFunction,Plated,PTH,ComponentDrill
T3C0.900
; #@! TA.AperFunction,Plated,PTH,ComponentDrill
T4C1.000
%
G90
G05
T1
X62.23Y-106.775
X62.23Y-109.315
X62.23Y-111.855
X64.77Y-73.66
X64.77Y-96.52
X67.31Y-73.66
X67.31Y-96.52
X69.85Y-73.66
X69.85Y-96.52
X72.39Y-73.66
X72.39Y-96.52
X73.66Y-106.775
X73.66Y-109.315
X73.66Y-111.855
X74.93Y-73.66
X74.93Y-96.52
X77.47Y-73.66
X77.47Y-96.52
X80.01Y-73.66
X80.01Y-96.52
X82.55Y-73.66
X82.55Y-96.52
X85.09Y-73.66
X85.09Y-96.52
X87.63Y-73.66
X87.63Y-96.52
X90.17Y-73.66
X90.17Y-96.52
X92.71Y-73.66
X92.71Y-96.52
X95.25Y-73.66
X95.25Y-96.52
T2
X67.31Y-110.49
X67.31Y-123.19
X78.74Y-110.49
X78.74Y-123.19
X86.36Y-110.49
X86.36Y-123.19
X87.63Y-104.14
X93.98Y-110.49
X93.98Y-123.19
X100.33Y-104.14
T3
X98.36Y-113.03
X100.519Y-113.03
X102.678Y-113.03
X104.837Y-113.03
T4
X109.78Y-113.03
X110.46Y-104.14
X115.54Y-104.14
X116.28Y-113.03
T0
M30
