%FSLAX45Y45*%
G04 Gerber Fmt 4.5, Leading zero omitted, Abs format (unit mm)*
G04 Created by KiCad (PCBNEW (6.0.2)) date 2022-06-07 20:48:54*
%MOMM*%
%LPD*%
G01*
G04 APERTURE LIST*
%TA.AperFunction,Profile*%
%ADD10C,0.100000*%
%TD*%
%ADD11C,0.200000*%
G04 APERTURE END LIST*
D10*
X5588000Y-6858000D02*
X12065000Y-6858000D01*
X12065000Y-6858000D02*
X12065000Y-12573000D01*
X12065000Y-12573000D02*
X5588000Y-12573000D01*
X5588000Y-12573000D02*
X5588000Y-6858000D01*
D11*
X5840619Y-12888476D02*
X5840619Y-12688476D01*
X5888238Y-12688476D01*
X5916809Y-12698000D01*
X5935857Y-12717048D01*
X5945381Y-12736095D01*
X5954905Y-12774190D01*
X5954905Y-12802762D01*
X5945381Y-12840857D01*
X5935857Y-12859905D01*
X5916809Y-12878952D01*
X5888238Y-12888476D01*
X5840619Y-12888476D01*
X6040619Y-12888476D02*
X6040619Y-12755143D01*
X6040619Y-12793238D02*
X6050143Y-12774190D01*
X6059667Y-12764667D01*
X6078714Y-12755143D01*
X6097762Y-12755143D01*
X6164428Y-12888476D02*
X6164428Y-12755143D01*
X6164428Y-12688476D02*
X6154905Y-12698000D01*
X6164428Y-12707524D01*
X6173952Y-12698000D01*
X6164428Y-12688476D01*
X6164428Y-12707524D01*
X6288238Y-12888476D02*
X6269190Y-12878952D01*
X6259667Y-12859905D01*
X6259667Y-12688476D01*
X6393000Y-12888476D02*
X6373952Y-12878952D01*
X6364428Y-12859905D01*
X6364428Y-12688476D01*
X6621571Y-12888476D02*
X6621571Y-12688476D01*
X6688238Y-12831333D01*
X6754905Y-12688476D01*
X6754905Y-12888476D01*
X6935857Y-12888476D02*
X6935857Y-12783714D01*
X6926333Y-12764667D01*
X6907286Y-12755143D01*
X6869190Y-12755143D01*
X6850143Y-12764667D01*
X6935857Y-12878952D02*
X6916809Y-12888476D01*
X6869190Y-12888476D01*
X6850143Y-12878952D01*
X6840619Y-12859905D01*
X6840619Y-12840857D01*
X6850143Y-12821809D01*
X6869190Y-12812286D01*
X6916809Y-12812286D01*
X6935857Y-12802762D01*
X7031095Y-12755143D02*
X7031095Y-12955143D01*
X7031095Y-12764667D02*
X7050143Y-12755143D01*
X7088238Y-12755143D01*
X7107286Y-12764667D01*
X7116809Y-12774190D01*
X7126333Y-12793238D01*
X7126333Y-12850381D01*
X7116809Y-12869428D01*
X7107286Y-12878952D01*
X7088238Y-12888476D01*
X7050143Y-12888476D01*
X7031095Y-12878952D01*
X7212048Y-12869428D02*
X7221571Y-12878952D01*
X7212048Y-12888476D01*
X7202524Y-12878952D01*
X7212048Y-12869428D01*
X7212048Y-12888476D01*
X7212048Y-12764667D02*
X7221571Y-12774190D01*
X7212048Y-12783714D01*
X7202524Y-12774190D01*
X7212048Y-12764667D01*
X7212048Y-12783714D01*
M02*
