G04 #@! TF.GenerationSoftware,KiCad,Pcbnew,(6.0.2)*
G04 #@! TF.CreationDate,2022-06-07T20:46:00+01:00*
G04 #@! TF.ProjectId,Smart_Door_Sensor,536d6172-745f-4446-9f6f-725f53656e73,rev?*
G04 #@! TF.SameCoordinates,Original*
G04 #@! TF.FileFunction,Legend,Top*
G04 #@! TF.FilePolarity,Positive*
%FSLAX46Y46*%
G04 Gerber Fmt 4.6, Leading zero omitted, Abs format (unit mm)*
G04 Created by KiCad (PCBNEW (6.0.2)) date 2022-06-07 20:46:00*
%MOMM*%
%LPD*%
G01*
G04 APERTURE LIST*
%ADD10C,0.300000*%
%ADD11C,0.150000*%
%ADD12C,0.120000*%
%ADD13C,1.524000*%
%ADD14C,1.600000*%
%ADD15O,1.600000X1.600000*%
%ADD16C,2.000000*%
%ADD17R,1.600000X1.600000*%
%ADD18R,1.800000X1.800000*%
%ADD19C,1.800000*%
G04 APERTURE END LIST*
D10*
X57445000Y-81252142D02*
X57659285Y-81323571D01*
X58016428Y-81323571D01*
X58159285Y-81252142D01*
X58230714Y-81180714D01*
X58302142Y-81037857D01*
X58302142Y-80895000D01*
X58230714Y-80752142D01*
X58159285Y-80680714D01*
X58016428Y-80609285D01*
X57730714Y-80537857D01*
X57587857Y-80466428D01*
X57516428Y-80395000D01*
X57445000Y-80252142D01*
X57445000Y-80109285D01*
X57516428Y-79966428D01*
X57587857Y-79895000D01*
X57730714Y-79823571D01*
X58087857Y-79823571D01*
X58302142Y-79895000D01*
X58945000Y-81323571D02*
X58945000Y-80323571D01*
X58945000Y-80466428D02*
X59016428Y-80395000D01*
X59159285Y-80323571D01*
X59373571Y-80323571D01*
X59516428Y-80395000D01*
X59587857Y-80537857D01*
X59587857Y-81323571D01*
X59587857Y-80537857D02*
X59659285Y-80395000D01*
X59802142Y-80323571D01*
X60016428Y-80323571D01*
X60159285Y-80395000D01*
X60230714Y-80537857D01*
X60230714Y-81323571D01*
X61587857Y-81323571D02*
X61587857Y-80537857D01*
X61516428Y-80395000D01*
X61373571Y-80323571D01*
X61087857Y-80323571D01*
X60945000Y-80395000D01*
X61587857Y-81252142D02*
X61445000Y-81323571D01*
X61087857Y-81323571D01*
X60945000Y-81252142D01*
X60873571Y-81109285D01*
X60873571Y-80966428D01*
X60945000Y-80823571D01*
X61087857Y-80752142D01*
X61445000Y-80752142D01*
X61587857Y-80680714D01*
X62302142Y-81323571D02*
X62302142Y-80323571D01*
X62302142Y-80609285D02*
X62373571Y-80466428D01*
X62445000Y-80395000D01*
X62587857Y-80323571D01*
X62730714Y-80323571D01*
X63016428Y-80323571D02*
X63587857Y-80323571D01*
X63230714Y-79823571D02*
X63230714Y-81109285D01*
X63302142Y-81252142D01*
X63445000Y-81323571D01*
X63587857Y-81323571D01*
X65230714Y-81323571D02*
X65230714Y-79823571D01*
X65587857Y-79823571D01*
X65802142Y-79895000D01*
X65945000Y-80037857D01*
X66016428Y-80180714D01*
X66087857Y-80466428D01*
X66087857Y-80680714D01*
X66016428Y-80966428D01*
X65945000Y-81109285D01*
X65802142Y-81252142D01*
X65587857Y-81323571D01*
X65230714Y-81323571D01*
X66945000Y-81323571D02*
X66802142Y-81252142D01*
X66730714Y-81180714D01*
X66659285Y-81037857D01*
X66659285Y-80609285D01*
X66730714Y-80466428D01*
X66802142Y-80395000D01*
X66945000Y-80323571D01*
X67159285Y-80323571D01*
X67302142Y-80395000D01*
X67373571Y-80466428D01*
X67445000Y-80609285D01*
X67445000Y-81037857D01*
X67373571Y-81180714D01*
X67302142Y-81252142D01*
X67159285Y-81323571D01*
X66945000Y-81323571D01*
X68302142Y-81323571D02*
X68159285Y-81252142D01*
X68087857Y-81180714D01*
X68016428Y-81037857D01*
X68016428Y-80609285D01*
X68087857Y-80466428D01*
X68159285Y-80395000D01*
X68302142Y-80323571D01*
X68516428Y-80323571D01*
X68659285Y-80395000D01*
X68730714Y-80466428D01*
X68802142Y-80609285D01*
X68802142Y-81037857D01*
X68730714Y-81180714D01*
X68659285Y-81252142D01*
X68516428Y-81323571D01*
X68302142Y-81323571D01*
X69445000Y-81323571D02*
X69445000Y-80323571D01*
X69445000Y-80609285D02*
X69516428Y-80466428D01*
X69587857Y-80395000D01*
X69730714Y-80323571D01*
X69873571Y-80323571D01*
X71445000Y-81252142D02*
X71659285Y-81323571D01*
X72016428Y-81323571D01*
X72159285Y-81252142D01*
X72230714Y-81180714D01*
X72302142Y-81037857D01*
X72302142Y-80895000D01*
X72230714Y-80752142D01*
X72159285Y-80680714D01*
X72016428Y-80609285D01*
X71730714Y-80537857D01*
X71587857Y-80466428D01*
X71516428Y-80395000D01*
X71445000Y-80252142D01*
X71445000Y-80109285D01*
X71516428Y-79966428D01*
X71587857Y-79895000D01*
X71730714Y-79823571D01*
X72087857Y-79823571D01*
X72302142Y-79895000D01*
X73516428Y-81252142D02*
X73373571Y-81323571D01*
X73087857Y-81323571D01*
X72945000Y-81252142D01*
X72873571Y-81109285D01*
X72873571Y-80537857D01*
X72945000Y-80395000D01*
X73087857Y-80323571D01*
X73373571Y-80323571D01*
X73516428Y-80395000D01*
X73587857Y-80537857D01*
X73587857Y-80680714D01*
X72873571Y-80823571D01*
X74230714Y-80323571D02*
X74230714Y-81323571D01*
X74230714Y-80466428D02*
X74302142Y-80395000D01*
X74445000Y-80323571D01*
X74659285Y-80323571D01*
X74802142Y-80395000D01*
X74873571Y-80537857D01*
X74873571Y-81323571D01*
X75516428Y-81252142D02*
X75659285Y-81323571D01*
X75945000Y-81323571D01*
X76087857Y-81252142D01*
X76159285Y-81109285D01*
X76159285Y-81037857D01*
X76087857Y-80895000D01*
X75945000Y-80823571D01*
X75730714Y-80823571D01*
X75587857Y-80752142D01*
X75516428Y-80609285D01*
X75516428Y-80537857D01*
X75587857Y-80395000D01*
X75730714Y-80323571D01*
X75945000Y-80323571D01*
X76087857Y-80395000D01*
X77016428Y-81323571D02*
X76873571Y-81252142D01*
X76802142Y-81180714D01*
X76730714Y-81037857D01*
X76730714Y-80609285D01*
X76802142Y-80466428D01*
X76873571Y-80395000D01*
X77016428Y-80323571D01*
X77230714Y-80323571D01*
X77373571Y-80395000D01*
X77445000Y-80466428D01*
X77516428Y-80609285D01*
X77516428Y-81037857D01*
X77445000Y-81180714D01*
X77373571Y-81252142D01*
X77230714Y-81323571D01*
X77016428Y-81323571D01*
X78159285Y-81323571D02*
X78159285Y-80323571D01*
X78159285Y-80609285D02*
X78230714Y-80466428D01*
X78302142Y-80395000D01*
X78445000Y-80323571D01*
X78587857Y-80323571D01*
X57630714Y-86332142D02*
X57845000Y-86403571D01*
X58202142Y-86403571D01*
X58345000Y-86332142D01*
X58416428Y-86260714D01*
X58487857Y-86117857D01*
X58487857Y-85975000D01*
X58416428Y-85832142D01*
X58345000Y-85760714D01*
X58202142Y-85689285D01*
X57916428Y-85617857D01*
X57773571Y-85546428D01*
X57702142Y-85475000D01*
X57630714Y-85332142D01*
X57630714Y-85189285D01*
X57702142Y-85046428D01*
X57773571Y-84975000D01*
X57916428Y-84903571D01*
X58273571Y-84903571D01*
X58487857Y-84975000D01*
X59702142Y-86332142D02*
X59559285Y-86403571D01*
X59273571Y-86403571D01*
X59130714Y-86332142D01*
X59059285Y-86189285D01*
X59059285Y-85617857D01*
X59130714Y-85475000D01*
X59273571Y-85403571D01*
X59559285Y-85403571D01*
X59702142Y-85475000D01*
X59773571Y-85617857D01*
X59773571Y-85760714D01*
X59059285Y-85903571D01*
X61059285Y-86403571D02*
X61059285Y-85617857D01*
X60987857Y-85475000D01*
X60845000Y-85403571D01*
X60559285Y-85403571D01*
X60416428Y-85475000D01*
X61059285Y-86332142D02*
X60916428Y-86403571D01*
X60559285Y-86403571D01*
X60416428Y-86332142D01*
X60345000Y-86189285D01*
X60345000Y-86046428D01*
X60416428Y-85903571D01*
X60559285Y-85832142D01*
X60916428Y-85832142D01*
X61059285Y-85760714D01*
X61773571Y-85403571D02*
X61773571Y-86403571D01*
X61773571Y-85546428D02*
X61845000Y-85475000D01*
X61987857Y-85403571D01*
X62202142Y-85403571D01*
X62345000Y-85475000D01*
X62416428Y-85617857D01*
X62416428Y-86403571D01*
X64273571Y-86403571D02*
X64273571Y-84903571D01*
X64845000Y-84903571D01*
X64987857Y-84975000D01*
X65059285Y-85046428D01*
X65130714Y-85189285D01*
X65130714Y-85403571D01*
X65059285Y-85546428D01*
X64987857Y-85617857D01*
X64845000Y-85689285D01*
X64273571Y-85689285D01*
X65773571Y-86403571D02*
X65773571Y-85403571D01*
X65773571Y-85689285D02*
X65845000Y-85546428D01*
X65916428Y-85475000D01*
X66059285Y-85403571D01*
X66202142Y-85403571D01*
X66702142Y-86403571D02*
X66702142Y-85403571D01*
X66702142Y-84903571D02*
X66630714Y-84975000D01*
X66702142Y-85046428D01*
X66773571Y-84975000D01*
X66702142Y-84903571D01*
X66702142Y-85046428D01*
X68059285Y-86332142D02*
X67916428Y-86403571D01*
X67630714Y-86403571D01*
X67487857Y-86332142D01*
X67416428Y-86260714D01*
X67345000Y-86117857D01*
X67345000Y-85689285D01*
X67416428Y-85546428D01*
X67487857Y-85475000D01*
X67630714Y-85403571D01*
X67916428Y-85403571D01*
X68059285Y-85475000D01*
X69273571Y-86332142D02*
X69130714Y-86403571D01*
X68845000Y-86403571D01*
X68702142Y-86332142D01*
X68630714Y-86189285D01*
X68630714Y-85617857D01*
X68702142Y-85475000D01*
X68845000Y-85403571D01*
X69130714Y-85403571D01*
X69273571Y-85475000D01*
X69345000Y-85617857D01*
X69345000Y-85760714D01*
X68630714Y-85903571D01*
X57404285Y-82363571D02*
X57904285Y-83863571D01*
X58404285Y-82363571D01*
X59690000Y-83863571D02*
X58832857Y-83863571D01*
X59261428Y-83863571D02*
X59261428Y-82363571D01*
X59118571Y-82577857D01*
X58975714Y-82720714D01*
X58832857Y-82792142D01*
X60332857Y-83720714D02*
X60404285Y-83792142D01*
X60332857Y-83863571D01*
X60261428Y-83792142D01*
X60332857Y-83720714D01*
X60332857Y-83863571D01*
X61332857Y-82363571D02*
X61475714Y-82363571D01*
X61618571Y-82435000D01*
X61690000Y-82506428D01*
X61761428Y-82649285D01*
X61832857Y-82935000D01*
X61832857Y-83292142D01*
X61761428Y-83577857D01*
X61690000Y-83720714D01*
X61618571Y-83792142D01*
X61475714Y-83863571D01*
X61332857Y-83863571D01*
X61190000Y-83792142D01*
X61118571Y-83720714D01*
X61047142Y-83577857D01*
X60975714Y-83292142D01*
X60975714Y-82935000D01*
X61047142Y-82649285D01*
X61118571Y-82506428D01*
X61190000Y-82435000D01*
X61332857Y-82363571D01*
D11*
X60896666Y-99059761D02*
X61039523Y-99107380D01*
X61277619Y-99107380D01*
X61372857Y-99059761D01*
X61420476Y-99012142D01*
X61468095Y-98916904D01*
X61468095Y-98821666D01*
X61420476Y-98726428D01*
X61372857Y-98678809D01*
X61277619Y-98631190D01*
X61087142Y-98583571D01*
X60991904Y-98535952D01*
X60944285Y-98488333D01*
X60896666Y-98393095D01*
X60896666Y-98297857D01*
X60944285Y-98202619D01*
X60991904Y-98155000D01*
X61087142Y-98107380D01*
X61325238Y-98107380D01*
X61468095Y-98155000D01*
X61801428Y-98107380D02*
X62039523Y-99107380D01*
X62230000Y-98393095D01*
X62420476Y-99107380D01*
X62658571Y-98107380D01*
X63563333Y-99107380D02*
X62991904Y-99107380D01*
X63277619Y-99107380D02*
X63277619Y-98107380D01*
X63182380Y-98250238D01*
X63087142Y-98345476D01*
X62991904Y-98393095D01*
X72326666Y-99059761D02*
X72469523Y-99107380D01*
X72707619Y-99107380D01*
X72802857Y-99059761D01*
X72850476Y-99012142D01*
X72898095Y-98916904D01*
X72898095Y-98821666D01*
X72850476Y-98726428D01*
X72802857Y-98678809D01*
X72707619Y-98631190D01*
X72517142Y-98583571D01*
X72421904Y-98535952D01*
X72374285Y-98488333D01*
X72326666Y-98393095D01*
X72326666Y-98297857D01*
X72374285Y-98202619D01*
X72421904Y-98155000D01*
X72517142Y-98107380D01*
X72755238Y-98107380D01*
X72898095Y-98155000D01*
X73231428Y-98107380D02*
X73469523Y-99107380D01*
X73660000Y-98393095D01*
X73850476Y-99107380D01*
X74088571Y-98107380D01*
X74421904Y-98202619D02*
X74469523Y-98155000D01*
X74564761Y-98107380D01*
X74802857Y-98107380D01*
X74898095Y-98155000D01*
X74945714Y-98202619D01*
X74993333Y-98297857D01*
X74993333Y-98393095D01*
X74945714Y-98535952D01*
X74374285Y-99107380D01*
X74993333Y-99107380D01*
X65042380Y-117006666D02*
X64566190Y-117340000D01*
X65042380Y-117578095D02*
X64042380Y-117578095D01*
X64042380Y-117197142D01*
X64090000Y-117101904D01*
X64137619Y-117054285D01*
X64232857Y-117006666D01*
X64375714Y-117006666D01*
X64470952Y-117054285D01*
X64518571Y-117101904D01*
X64566190Y-117197142D01*
X64566190Y-117578095D01*
X65042380Y-116054285D02*
X65042380Y-116625714D01*
X65042380Y-116340000D02*
X64042380Y-116340000D01*
X64185238Y-116435238D01*
X64280476Y-116530476D01*
X64328095Y-116625714D01*
X93813333Y-101872380D02*
X93480000Y-101396190D01*
X93241904Y-101872380D02*
X93241904Y-100872380D01*
X93622857Y-100872380D01*
X93718095Y-100920000D01*
X93765714Y-100967619D01*
X93813333Y-101062857D01*
X93813333Y-101205714D01*
X93765714Y-101300952D01*
X93718095Y-101348571D01*
X93622857Y-101396190D01*
X93241904Y-101396190D01*
X94718095Y-100872380D02*
X94241904Y-100872380D01*
X94194285Y-101348571D01*
X94241904Y-101300952D01*
X94337142Y-101253333D01*
X94575238Y-101253333D01*
X94670476Y-101300952D01*
X94718095Y-101348571D01*
X94765714Y-101443809D01*
X94765714Y-101681904D01*
X94718095Y-101777142D01*
X94670476Y-101824761D01*
X94575238Y-101872380D01*
X94337142Y-101872380D01*
X94241904Y-101824761D01*
X94194285Y-101777142D01*
X112133095Y-83317380D02*
X112133095Y-84126904D01*
X112180714Y-84222142D01*
X112228333Y-84269761D01*
X112323571Y-84317380D01*
X112514047Y-84317380D01*
X112609285Y-84269761D01*
X112656904Y-84222142D01*
X112704523Y-84126904D01*
X112704523Y-83317380D01*
X113133095Y-83412619D02*
X113180714Y-83365000D01*
X113275952Y-83317380D01*
X113514047Y-83317380D01*
X113609285Y-83365000D01*
X113656904Y-83412619D01*
X113704523Y-83507857D01*
X113704523Y-83603095D01*
X113656904Y-83745952D01*
X113085476Y-84317380D01*
X113704523Y-84317380D01*
X112149047Y-105958571D02*
X112291904Y-106006190D01*
X112339523Y-106053809D01*
X112387142Y-106149047D01*
X112387142Y-106291904D01*
X112339523Y-106387142D01*
X112291904Y-106434761D01*
X112196666Y-106482380D01*
X111815714Y-106482380D01*
X111815714Y-105482380D01*
X112149047Y-105482380D01*
X112244285Y-105530000D01*
X112291904Y-105577619D01*
X112339523Y-105672857D01*
X112339523Y-105768095D01*
X112291904Y-105863333D01*
X112244285Y-105910952D01*
X112149047Y-105958571D01*
X111815714Y-105958571D01*
X112720476Y-105482380D02*
X113387142Y-105482380D01*
X112720476Y-106482380D01*
X113387142Y-106482380D01*
X114291904Y-106482380D02*
X113720476Y-106482380D01*
X114006190Y-106482380D02*
X114006190Y-105482380D01*
X113910952Y-105625238D01*
X113815714Y-105720476D01*
X113720476Y-105768095D01*
X109399047Y-111301428D02*
X110160952Y-111301428D01*
X109780000Y-111682380D02*
X109780000Y-110920476D01*
X76472380Y-117006666D02*
X75996190Y-117340000D01*
X76472380Y-117578095D02*
X75472380Y-117578095D01*
X75472380Y-117197142D01*
X75520000Y-117101904D01*
X75567619Y-117054285D01*
X75662857Y-117006666D01*
X75805714Y-117006666D01*
X75900952Y-117054285D01*
X75948571Y-117101904D01*
X75996190Y-117197142D01*
X75996190Y-117578095D01*
X75567619Y-116625714D02*
X75520000Y-116578095D01*
X75472380Y-116482857D01*
X75472380Y-116244761D01*
X75520000Y-116149523D01*
X75567619Y-116101904D01*
X75662857Y-116054285D01*
X75758095Y-116054285D01*
X75900952Y-116101904D01*
X76472380Y-116673333D01*
X76472380Y-116054285D01*
X84092380Y-117006666D02*
X83616190Y-117340000D01*
X84092380Y-117578095D02*
X83092380Y-117578095D01*
X83092380Y-117197142D01*
X83140000Y-117101904D01*
X83187619Y-117054285D01*
X83282857Y-117006666D01*
X83425714Y-117006666D01*
X83520952Y-117054285D01*
X83568571Y-117101904D01*
X83616190Y-117197142D01*
X83616190Y-117578095D01*
X83425714Y-116149523D02*
X84092380Y-116149523D01*
X83044761Y-116387619D02*
X83759047Y-116625714D01*
X83759047Y-116006666D01*
X83557619Y-83058095D02*
X82748095Y-83058095D01*
X82652857Y-83105714D01*
X82605238Y-83153333D01*
X82557619Y-83248571D01*
X82557619Y-83439047D01*
X82605238Y-83534285D01*
X82652857Y-83581904D01*
X82748095Y-83629523D01*
X83557619Y-83629523D01*
X82557619Y-84629523D02*
X82557619Y-84058095D01*
X82557619Y-84343809D02*
X83557619Y-84343809D01*
X83414761Y-84248571D01*
X83319523Y-84153333D01*
X83271904Y-84058095D01*
X100860404Y-109522380D02*
X100860404Y-108522380D01*
X101098500Y-108522380D01*
X101241357Y-108570000D01*
X101336595Y-108665238D01*
X101384214Y-108760476D01*
X101431833Y-108950952D01*
X101431833Y-109093809D01*
X101384214Y-109284285D01*
X101336595Y-109379523D01*
X101241357Y-109474761D01*
X101098500Y-109522380D01*
X100860404Y-109522380D01*
X102384214Y-109522380D02*
X101812785Y-109522380D01*
X102098500Y-109522380D02*
X102098500Y-108522380D01*
X102003261Y-108665238D01*
X101908023Y-108760476D01*
X101812785Y-108808095D01*
X91712380Y-117006666D02*
X91236190Y-117340000D01*
X91712380Y-117578095D02*
X90712380Y-117578095D01*
X90712380Y-117197142D01*
X90760000Y-117101904D01*
X90807619Y-117054285D01*
X90902857Y-117006666D01*
X91045714Y-117006666D01*
X91140952Y-117054285D01*
X91188571Y-117101904D01*
X91236190Y-117197142D01*
X91236190Y-117578095D01*
X90712380Y-116673333D02*
X90712380Y-116054285D01*
X91093333Y-116387619D01*
X91093333Y-116244761D01*
X91140952Y-116149523D01*
X91188571Y-116101904D01*
X91283809Y-116054285D01*
X91521904Y-116054285D01*
X91617142Y-116101904D01*
X91664761Y-116149523D01*
X91712380Y-116244761D01*
X91712380Y-116530476D01*
X91664761Y-116625714D01*
X91617142Y-116673333D01*
D12*
X59690000Y-104235000D02*
X64770000Y-104235000D01*
X64770000Y-104235000D02*
X64770000Y-114395000D01*
X64770000Y-114395000D02*
X59690000Y-114395000D01*
X59690000Y-114395000D02*
X59690000Y-104235000D01*
X71120000Y-104235000D02*
X76200000Y-104235000D01*
X76200000Y-104235000D02*
X76200000Y-114395000D01*
X76200000Y-114395000D02*
X71120000Y-114395000D01*
X71120000Y-114395000D02*
X71120000Y-104235000D01*
X69030000Y-112220000D02*
X65590000Y-112220000D01*
X67310000Y-122150000D02*
X67310000Y-121460000D01*
X69030000Y-121460000D02*
X69030000Y-112220000D01*
X65590000Y-112220000D02*
X65590000Y-121460000D01*
X67310000Y-111530000D02*
X67310000Y-112220000D01*
X65590000Y-121460000D02*
X69030000Y-121460000D01*
X98600000Y-105860000D02*
X98600000Y-102420000D01*
X99290000Y-104140000D02*
X98600000Y-104140000D01*
X89360000Y-102420000D02*
X89360000Y-105860000D01*
X98600000Y-102420000D02*
X89360000Y-102420000D01*
X88670000Y-104140000D02*
X89360000Y-104140000D01*
X89360000Y-105860000D02*
X98600000Y-105860000D01*
X120620000Y-71120000D02*
X120620000Y-99060000D01*
X120620000Y-99060000D02*
X105380000Y-99060000D01*
X105380000Y-99060000D02*
X105380000Y-71120000D01*
X105380000Y-71120000D02*
X120620000Y-71120000D01*
X119130000Y-113030000D02*
G75*
G03*
X119130000Y-113030000I-6100000J0D01*
G01*
X77020000Y-121460000D02*
X80460000Y-121460000D01*
X78740000Y-122150000D02*
X78740000Y-121460000D01*
X77020000Y-112220000D02*
X77020000Y-121460000D01*
X80460000Y-112220000D02*
X77020000Y-112220000D01*
X80460000Y-121460000D02*
X80460000Y-112220000D01*
X78740000Y-111530000D02*
X78740000Y-112220000D01*
X88080000Y-112220000D02*
X84640000Y-112220000D01*
X86360000Y-111530000D02*
X86360000Y-112220000D01*
X84640000Y-112220000D02*
X84640000Y-121460000D01*
X88080000Y-121460000D02*
X88080000Y-112220000D01*
X84640000Y-121460000D02*
X88080000Y-121460000D01*
X86360000Y-122150000D02*
X86360000Y-121460000D01*
X52070000Y-99060000D02*
X52070000Y-71120000D01*
X97790000Y-71120000D02*
X97790000Y-99060000D01*
X102870000Y-73660000D02*
X102870000Y-96520000D01*
X100330000Y-99060000D02*
X52070000Y-99060000D01*
X52070000Y-71120000D02*
X100330000Y-71120000D01*
X52070000Y-96520000D02*
X57150000Y-96520000D01*
X57150000Y-96520000D02*
X57150000Y-88900000D01*
X57150000Y-88900000D02*
X52070000Y-88900000D01*
X52070000Y-88900000D02*
X52070000Y-96520000D01*
X52070000Y-71120000D02*
X59690000Y-71120000D01*
X59690000Y-71120000D02*
X59690000Y-78740000D01*
X59690000Y-78740000D02*
X52070000Y-78740000D01*
X52070000Y-78740000D02*
X52070000Y-71120000D01*
X100330000Y-99060000D02*
G75*
G03*
X102870000Y-96520000I-1J2540001D01*
G01*
X102870000Y-73660000D02*
G75*
G03*
X100330000Y-71120000I-2540001J-1D01*
G01*
X99038500Y-111485000D02*
X99038500Y-111950000D01*
X99038500Y-114110000D02*
X99038500Y-114575000D01*
X99343816Y-114110000D02*
G75*
G03*
X103852979Y-114110429I2254684J1080000D01*
G01*
X104386314Y-111949173D02*
G75*
G03*
X99038500Y-111485170I-2787814J-1080826D01*
G01*
X99038500Y-114574830D02*
G75*
G03*
X104386315Y-114110827I2560000J1544831D01*
G01*
X103852979Y-111949571D02*
G75*
G03*
X99343816Y-111950000I-2254479J-1080429D01*
G01*
X95700000Y-112220000D02*
X92260000Y-112220000D01*
X93980000Y-122150000D02*
X93980000Y-121460000D01*
X92260000Y-121460000D02*
X95700000Y-121460000D01*
X93980000Y-111530000D02*
X93980000Y-112220000D01*
X92260000Y-112220000D02*
X92260000Y-121460000D01*
X95700000Y-121460000D02*
X95700000Y-112220000D01*
%LPC*%
D13*
X62230000Y-106775000D03*
X62230000Y-109315000D03*
X62230000Y-111855000D03*
X73660000Y-106775000D03*
X73660000Y-109315000D03*
X73660000Y-111855000D03*
D14*
X67310000Y-123190000D03*
D15*
X67310000Y-110490000D03*
D14*
X87630000Y-104140000D03*
D15*
X100330000Y-104140000D03*
D16*
X110460000Y-104140000D03*
X115540000Y-104140000D03*
D17*
X109780000Y-113030000D03*
D14*
X116280000Y-113030000D03*
X78740000Y-123190000D03*
D15*
X78740000Y-110490000D03*
D14*
X86360000Y-123190000D03*
D15*
X86360000Y-110490000D03*
D13*
X95250000Y-73660000D03*
X92710000Y-73660000D03*
X90170000Y-73660000D03*
X87630000Y-73660000D03*
X85090000Y-73660000D03*
X82550000Y-73660000D03*
X80010000Y-73660000D03*
X77470000Y-73660000D03*
X74930000Y-73660000D03*
X72390000Y-73660000D03*
X69850000Y-73660000D03*
X67310000Y-73660000D03*
X64770000Y-73660000D03*
X64770000Y-96520000D03*
X67310000Y-96520000D03*
X69850000Y-96520000D03*
X72390000Y-96520000D03*
X74930000Y-96520000D03*
X77470000Y-96520000D03*
X80010000Y-96520000D03*
X82550000Y-96520000D03*
X85090000Y-96520000D03*
X87630000Y-96520000D03*
X90170000Y-96520000D03*
X92710000Y-96520000D03*
X95250000Y-96520000D03*
D18*
X98360000Y-113030000D03*
D19*
X100519000Y-113030000D03*
X102678000Y-113030000D03*
X104837000Y-113030000D03*
D14*
X93980000Y-123190000D03*
D15*
X93980000Y-110490000D03*
M02*
