G04 #@! TF.GenerationSoftware,KiCad,Pcbnew,(6.0.2)*
G04 #@! TF.CreationDate,2022-06-07T20:46:00+01:00*
G04 #@! TF.ProjectId,Smart_Door_Sensor,536d6172-745f-4446-9f6f-725f53656e73,rev?*
G04 #@! TF.SameCoordinates,Original*
G04 #@! TF.FileFunction,Copper,L2,Bot*
G04 #@! TF.FilePolarity,Positive*
%FSLAX46Y46*%
G04 Gerber Fmt 4.6, Leading zero omitted, Abs format (unit mm)*
G04 Created by KiCad (PCBNEW (6.0.2)) date 2022-06-07 20:46:00*
%MOMM*%
%LPD*%
G01*
G04 APERTURE LIST*
G04 #@! TA.AperFunction,ComponentPad*
%ADD10C,1.524000*%
G04 #@! TD*
G04 #@! TA.AperFunction,ComponentPad*
%ADD11C,1.600000*%
G04 #@! TD*
G04 #@! TA.AperFunction,ComponentPad*
%ADD12O,1.600000X1.600000*%
G04 #@! TD*
G04 #@! TA.AperFunction,ComponentPad*
%ADD13C,2.000000*%
G04 #@! TD*
G04 #@! TA.AperFunction,ComponentPad*
%ADD14R,1.600000X1.600000*%
G04 #@! TD*
G04 #@! TA.AperFunction,ComponentPad*
%ADD15R,1.800000X1.800000*%
G04 #@! TD*
G04 #@! TA.AperFunction,ComponentPad*
%ADD16C,1.800000*%
G04 #@! TD*
G04 #@! TA.AperFunction,Conductor*
%ADD17C,1.500000*%
G04 #@! TD*
G04 APERTURE END LIST*
D10*
X62230000Y-106775000D03*
X62230000Y-109315000D03*
X62230000Y-111855000D03*
X73660000Y-106775000D03*
X73660000Y-109315000D03*
X73660000Y-111855000D03*
D11*
X67310000Y-123190000D03*
D12*
X67310000Y-110490000D03*
D11*
X87630000Y-104140000D03*
D12*
X100330000Y-104140000D03*
D13*
X110460000Y-104140000D03*
X115540000Y-104140000D03*
D14*
X109780000Y-113030000D03*
D11*
X116280000Y-113030000D03*
X78740000Y-123190000D03*
D12*
X78740000Y-110490000D03*
D11*
X86360000Y-123190000D03*
D12*
X86360000Y-110490000D03*
D10*
X95250000Y-73660000D03*
X92710000Y-73660000D03*
X90170000Y-73660000D03*
X87630000Y-73660000D03*
X85090000Y-73660000D03*
X82550000Y-73660000D03*
X80010000Y-73660000D03*
X77470000Y-73660000D03*
X74930000Y-73660000D03*
X72390000Y-73660000D03*
X69850000Y-73660000D03*
X67310000Y-73660000D03*
X64770000Y-73660000D03*
X64770000Y-96520000D03*
X67310000Y-96520000D03*
X69850000Y-96520000D03*
X72390000Y-96520000D03*
X74930000Y-96520000D03*
X77470000Y-96520000D03*
X80010000Y-96520000D03*
X82550000Y-96520000D03*
X85090000Y-96520000D03*
X87630000Y-96520000D03*
X90170000Y-96520000D03*
X92710000Y-96520000D03*
X95250000Y-96520000D03*
D15*
X98360000Y-113030000D03*
D16*
X100519000Y-113030000D03*
X102678000Y-113030000D03*
X104837000Y-113030000D03*
D11*
X93980000Y-123190000D03*
D12*
X93980000Y-110490000D03*
D17*
X100330000Y-112841000D02*
X100519000Y-113030000D01*
X100330000Y-104140000D02*
X100330000Y-112841000D01*
X74930000Y-74930000D02*
X74930000Y-73660000D01*
X102678000Y-113030000D02*
X102678000Y-78548000D01*
X100330000Y-76200000D02*
X76200000Y-76200000D01*
X102678000Y-78548000D02*
X100330000Y-76200000D01*
X76200000Y-76200000D02*
X74930000Y-74930000D01*
X73660000Y-71120000D02*
X72390000Y-72390000D01*
X102870000Y-71120000D02*
X73660000Y-71120000D01*
X104837000Y-113030000D02*
X104837000Y-73087000D01*
X104837000Y-73087000D02*
X102870000Y-71120000D01*
X72390000Y-72390000D02*
X72390000Y-73660000D01*
X67310000Y-101600000D02*
X69850000Y-99060000D01*
X85090000Y-97790000D02*
X85090000Y-96520000D01*
X69850000Y-99060000D02*
X83820000Y-99060000D01*
X83820000Y-99060000D02*
X85090000Y-97790000D01*
X67310000Y-110490000D02*
X67310000Y-101600000D01*
X87630000Y-96520000D02*
X87630000Y-99060000D01*
X78740000Y-107950000D02*
X78740000Y-110490000D01*
X87630000Y-99060000D02*
X78740000Y-107950000D01*
G04 #@! TA.AperFunction,Conductor*
G36*
X120084121Y-69108002D02*
G01*
X120130614Y-69161658D01*
X120142000Y-69214000D01*
X120142000Y-125096000D01*
X120121998Y-125164121D01*
X120068342Y-125210614D01*
X120016000Y-125222000D01*
X56514000Y-125222000D01*
X56445879Y-125201998D01*
X56399386Y-125148342D01*
X56388000Y-125096000D01*
X56388000Y-124276062D01*
X66588493Y-124276062D01*
X66597789Y-124288077D01*
X66648994Y-124323931D01*
X66658489Y-124329414D01*
X66855947Y-124421490D01*
X66866239Y-124425236D01*
X67076688Y-124481625D01*
X67087481Y-124483528D01*
X67304525Y-124502517D01*
X67315475Y-124502517D01*
X67532519Y-124483528D01*
X67543312Y-124481625D01*
X67753761Y-124425236D01*
X67764053Y-124421490D01*
X67961511Y-124329414D01*
X67971006Y-124323931D01*
X68023048Y-124287491D01*
X68031424Y-124277012D01*
X68030925Y-124276062D01*
X78018493Y-124276062D01*
X78027789Y-124288077D01*
X78078994Y-124323931D01*
X78088489Y-124329414D01*
X78285947Y-124421490D01*
X78296239Y-124425236D01*
X78506688Y-124481625D01*
X78517481Y-124483528D01*
X78734525Y-124502517D01*
X78745475Y-124502517D01*
X78962519Y-124483528D01*
X78973312Y-124481625D01*
X79183761Y-124425236D01*
X79194053Y-124421490D01*
X79391511Y-124329414D01*
X79401006Y-124323931D01*
X79453048Y-124287491D01*
X79461424Y-124277012D01*
X79460925Y-124276062D01*
X85638493Y-124276062D01*
X85647789Y-124288077D01*
X85698994Y-124323931D01*
X85708489Y-124329414D01*
X85905947Y-124421490D01*
X85916239Y-124425236D01*
X86126688Y-124481625D01*
X86137481Y-124483528D01*
X86354525Y-124502517D01*
X86365475Y-124502517D01*
X86582519Y-124483528D01*
X86593312Y-124481625D01*
X86803761Y-124425236D01*
X86814053Y-124421490D01*
X87011511Y-124329414D01*
X87021006Y-124323931D01*
X87073048Y-124287491D01*
X87081424Y-124277012D01*
X87074356Y-124263566D01*
X86372812Y-123562022D01*
X86358868Y-123554408D01*
X86357035Y-123554539D01*
X86350420Y-123558790D01*
X85644923Y-124264287D01*
X85638493Y-124276062D01*
X79460925Y-124276062D01*
X79454356Y-124263566D01*
X78752812Y-123562022D01*
X78738868Y-123554408D01*
X78737035Y-123554539D01*
X78730420Y-123558790D01*
X78024923Y-124264287D01*
X78018493Y-124276062D01*
X68030925Y-124276062D01*
X68024356Y-124263566D01*
X67322812Y-123562022D01*
X67308868Y-123554408D01*
X67307035Y-123554539D01*
X67300420Y-123558790D01*
X66594923Y-124264287D01*
X66588493Y-124276062D01*
X56388000Y-124276062D01*
X56388000Y-123195475D01*
X65997483Y-123195475D01*
X66016472Y-123412519D01*
X66018375Y-123423312D01*
X66074764Y-123633761D01*
X66078510Y-123644053D01*
X66170586Y-123841511D01*
X66176069Y-123851006D01*
X66212509Y-123903048D01*
X66222988Y-123911424D01*
X66236434Y-123904356D01*
X66937978Y-123202812D01*
X66944356Y-123191132D01*
X67674408Y-123191132D01*
X67674539Y-123192965D01*
X67678790Y-123199580D01*
X68384287Y-123905077D01*
X68396062Y-123911507D01*
X68408077Y-123902211D01*
X68443931Y-123851006D01*
X68449414Y-123841511D01*
X68541490Y-123644053D01*
X68545236Y-123633761D01*
X68601625Y-123423312D01*
X68603528Y-123412519D01*
X68622517Y-123195475D01*
X77427483Y-123195475D01*
X77446472Y-123412519D01*
X77448375Y-123423312D01*
X77504764Y-123633761D01*
X77508510Y-123644053D01*
X77600586Y-123841511D01*
X77606069Y-123851006D01*
X77642509Y-123903048D01*
X77652988Y-123911424D01*
X77666434Y-123904356D01*
X78367978Y-123202812D01*
X78374356Y-123191132D01*
X79104408Y-123191132D01*
X79104539Y-123192965D01*
X79108790Y-123199580D01*
X79814287Y-123905077D01*
X79826062Y-123911507D01*
X79838077Y-123902211D01*
X79873931Y-123851006D01*
X79879414Y-123841511D01*
X79971490Y-123644053D01*
X79975236Y-123633761D01*
X80031625Y-123423312D01*
X80033528Y-123412519D01*
X80052517Y-123195475D01*
X85047483Y-123195475D01*
X85066472Y-123412519D01*
X85068375Y-123423312D01*
X85124764Y-123633761D01*
X85128510Y-123644053D01*
X85220586Y-123841511D01*
X85226069Y-123851006D01*
X85262509Y-123903048D01*
X85272988Y-123911424D01*
X85286434Y-123904356D01*
X85987978Y-123202812D01*
X85994356Y-123191132D01*
X86724408Y-123191132D01*
X86724539Y-123192965D01*
X86728790Y-123199580D01*
X87434287Y-123905077D01*
X87446062Y-123911507D01*
X87458077Y-123902211D01*
X87493931Y-123851006D01*
X87499414Y-123841511D01*
X87591490Y-123644053D01*
X87595236Y-123633761D01*
X87651625Y-123423312D01*
X87653528Y-123412519D01*
X87672517Y-123195475D01*
X87672517Y-123190000D01*
X92666502Y-123190000D01*
X92686457Y-123418087D01*
X92687881Y-123423400D01*
X92687881Y-123423402D01*
X92725025Y-123562022D01*
X92745716Y-123639243D01*
X92748039Y-123644224D01*
X92748039Y-123644225D01*
X92840151Y-123841762D01*
X92840154Y-123841767D01*
X92842477Y-123846749D01*
X92973802Y-124034300D01*
X93135700Y-124196198D01*
X93140208Y-124199355D01*
X93140211Y-124199357D01*
X93218389Y-124254098D01*
X93323251Y-124327523D01*
X93328233Y-124329846D01*
X93328238Y-124329849D01*
X93524765Y-124421490D01*
X93530757Y-124424284D01*
X93536065Y-124425706D01*
X93536067Y-124425707D01*
X93746598Y-124482119D01*
X93746600Y-124482119D01*
X93751913Y-124483543D01*
X93980000Y-124503498D01*
X94208087Y-124483543D01*
X94213400Y-124482119D01*
X94213402Y-124482119D01*
X94423933Y-124425707D01*
X94423935Y-124425706D01*
X94429243Y-124424284D01*
X94435235Y-124421490D01*
X94631762Y-124329849D01*
X94631767Y-124329846D01*
X94636749Y-124327523D01*
X94741611Y-124254098D01*
X94819789Y-124199357D01*
X94819792Y-124199355D01*
X94824300Y-124196198D01*
X94986198Y-124034300D01*
X95117523Y-123846749D01*
X95119846Y-123841767D01*
X95119849Y-123841762D01*
X95211961Y-123644225D01*
X95211961Y-123644224D01*
X95214284Y-123639243D01*
X95234976Y-123562022D01*
X95272119Y-123423402D01*
X95272119Y-123423400D01*
X95273543Y-123418087D01*
X95293498Y-123190000D01*
X95273543Y-122961913D01*
X95236981Y-122825461D01*
X95215707Y-122746067D01*
X95215706Y-122746065D01*
X95214284Y-122740757D01*
X95119966Y-122538489D01*
X95119849Y-122538238D01*
X95119846Y-122538233D01*
X95117523Y-122533251D01*
X94986198Y-122345700D01*
X94824300Y-122183802D01*
X94819792Y-122180645D01*
X94819789Y-122180643D01*
X94693920Y-122092509D01*
X94636749Y-122052477D01*
X94631767Y-122050154D01*
X94631762Y-122050151D01*
X94434225Y-121958039D01*
X94434224Y-121958039D01*
X94429243Y-121955716D01*
X94423935Y-121954294D01*
X94423933Y-121954293D01*
X94213402Y-121897881D01*
X94213400Y-121897881D01*
X94208087Y-121896457D01*
X93980000Y-121876502D01*
X93751913Y-121896457D01*
X93746600Y-121897881D01*
X93746598Y-121897881D01*
X93536067Y-121954293D01*
X93536065Y-121954294D01*
X93530757Y-121955716D01*
X93525776Y-121958039D01*
X93525775Y-121958039D01*
X93328238Y-122050151D01*
X93328233Y-122050154D01*
X93323251Y-122052477D01*
X93266080Y-122092509D01*
X93140211Y-122180643D01*
X93140208Y-122180645D01*
X93135700Y-122183802D01*
X92973802Y-122345700D01*
X92842477Y-122533251D01*
X92840154Y-122538233D01*
X92840151Y-122538238D01*
X92840034Y-122538489D01*
X92745716Y-122740757D01*
X92744294Y-122746065D01*
X92744293Y-122746067D01*
X92723019Y-122825461D01*
X92686457Y-122961913D01*
X92666502Y-123190000D01*
X87672517Y-123190000D01*
X87672517Y-123184525D01*
X87653528Y-122967481D01*
X87651625Y-122956688D01*
X87595236Y-122746239D01*
X87591490Y-122735947D01*
X87499414Y-122538489D01*
X87493931Y-122528994D01*
X87457491Y-122476952D01*
X87447012Y-122468576D01*
X87433566Y-122475644D01*
X86732022Y-123177188D01*
X86724408Y-123191132D01*
X85994356Y-123191132D01*
X85995592Y-123188868D01*
X85995461Y-123187035D01*
X85991210Y-123180420D01*
X85285713Y-122474923D01*
X85273938Y-122468493D01*
X85261923Y-122477789D01*
X85226069Y-122528994D01*
X85220586Y-122538489D01*
X85128510Y-122735947D01*
X85124764Y-122746239D01*
X85068375Y-122956688D01*
X85066472Y-122967481D01*
X85047483Y-123184525D01*
X85047483Y-123195475D01*
X80052517Y-123195475D01*
X80052517Y-123184525D01*
X80033528Y-122967481D01*
X80031625Y-122956688D01*
X79975236Y-122746239D01*
X79971490Y-122735947D01*
X79879414Y-122538489D01*
X79873931Y-122528994D01*
X79837491Y-122476952D01*
X79827012Y-122468576D01*
X79813566Y-122475644D01*
X79112022Y-123177188D01*
X79104408Y-123191132D01*
X78374356Y-123191132D01*
X78375592Y-123188868D01*
X78375461Y-123187035D01*
X78371210Y-123180420D01*
X77665713Y-122474923D01*
X77653938Y-122468493D01*
X77641923Y-122477789D01*
X77606069Y-122528994D01*
X77600586Y-122538489D01*
X77508510Y-122735947D01*
X77504764Y-122746239D01*
X77448375Y-122956688D01*
X77446472Y-122967481D01*
X77427483Y-123184525D01*
X77427483Y-123195475D01*
X68622517Y-123195475D01*
X68622517Y-123184525D01*
X68603528Y-122967481D01*
X68601625Y-122956688D01*
X68545236Y-122746239D01*
X68541490Y-122735947D01*
X68449414Y-122538489D01*
X68443931Y-122528994D01*
X68407491Y-122476952D01*
X68397012Y-122468576D01*
X68383566Y-122475644D01*
X67682022Y-123177188D01*
X67674408Y-123191132D01*
X66944356Y-123191132D01*
X66945592Y-123188868D01*
X66945461Y-123187035D01*
X66941210Y-123180420D01*
X66235713Y-122474923D01*
X66223938Y-122468493D01*
X66211923Y-122477789D01*
X66176069Y-122528994D01*
X66170586Y-122538489D01*
X66078510Y-122735947D01*
X66074764Y-122746239D01*
X66018375Y-122956688D01*
X66016472Y-122967481D01*
X65997483Y-123184525D01*
X65997483Y-123195475D01*
X56388000Y-123195475D01*
X56388000Y-122102988D01*
X66588576Y-122102988D01*
X66595644Y-122116434D01*
X67297188Y-122817978D01*
X67311132Y-122825592D01*
X67312965Y-122825461D01*
X67319580Y-122821210D01*
X68025077Y-122115713D01*
X68031507Y-122103938D01*
X68030772Y-122102988D01*
X78018576Y-122102988D01*
X78025644Y-122116434D01*
X78727188Y-122817978D01*
X78741132Y-122825592D01*
X78742965Y-122825461D01*
X78749580Y-122821210D01*
X79455077Y-122115713D01*
X79461507Y-122103938D01*
X79460772Y-122102988D01*
X85638576Y-122102988D01*
X85645644Y-122116434D01*
X86347188Y-122817978D01*
X86361132Y-122825592D01*
X86362965Y-122825461D01*
X86369580Y-122821210D01*
X87075077Y-122115713D01*
X87081507Y-122103938D01*
X87072211Y-122091923D01*
X87021006Y-122056069D01*
X87011511Y-122050586D01*
X86814053Y-121958510D01*
X86803761Y-121954764D01*
X86593312Y-121898375D01*
X86582519Y-121896472D01*
X86365475Y-121877483D01*
X86354525Y-121877483D01*
X86137481Y-121896472D01*
X86126688Y-121898375D01*
X85916239Y-121954764D01*
X85905947Y-121958510D01*
X85708489Y-122050586D01*
X85698994Y-122056069D01*
X85646952Y-122092509D01*
X85638576Y-122102988D01*
X79460772Y-122102988D01*
X79452211Y-122091923D01*
X79401006Y-122056069D01*
X79391511Y-122050586D01*
X79194053Y-121958510D01*
X79183761Y-121954764D01*
X78973312Y-121898375D01*
X78962519Y-121896472D01*
X78745475Y-121877483D01*
X78734525Y-121877483D01*
X78517481Y-121896472D01*
X78506688Y-121898375D01*
X78296239Y-121954764D01*
X78285947Y-121958510D01*
X78088489Y-122050586D01*
X78078994Y-122056069D01*
X78026952Y-122092509D01*
X78018576Y-122102988D01*
X68030772Y-122102988D01*
X68022211Y-122091923D01*
X67971006Y-122056069D01*
X67961511Y-122050586D01*
X67764053Y-121958510D01*
X67753761Y-121954764D01*
X67543312Y-121898375D01*
X67532519Y-121896472D01*
X67315475Y-121877483D01*
X67304525Y-121877483D01*
X67087481Y-121896472D01*
X67076688Y-121898375D01*
X66866239Y-121954764D01*
X66855947Y-121958510D01*
X66658489Y-122050586D01*
X66648994Y-122056069D01*
X66596952Y-122092509D01*
X66588576Y-122102988D01*
X56388000Y-122102988D01*
X56388000Y-111855000D01*
X60954647Y-111855000D01*
X60974022Y-112076463D01*
X61031560Y-112291196D01*
X61033882Y-112296177D01*
X61033883Y-112296178D01*
X61123186Y-112487689D01*
X61123189Y-112487694D01*
X61125512Y-112492676D01*
X61128668Y-112497183D01*
X61128669Y-112497185D01*
X61246589Y-112665592D01*
X61253023Y-112674781D01*
X61410219Y-112831977D01*
X61414727Y-112835134D01*
X61414730Y-112835136D01*
X61490495Y-112888187D01*
X61592323Y-112959488D01*
X61597305Y-112961811D01*
X61597310Y-112961814D01*
X61764081Y-113039580D01*
X61793804Y-113053440D01*
X61799112Y-113054862D01*
X61799114Y-113054863D01*
X61864949Y-113072503D01*
X62008537Y-113110978D01*
X62230000Y-113130353D01*
X62451463Y-113110978D01*
X62595051Y-113072503D01*
X62660886Y-113054863D01*
X62660888Y-113054862D01*
X62666196Y-113053440D01*
X62695919Y-113039580D01*
X62862690Y-112961814D01*
X62862695Y-112961811D01*
X62867677Y-112959488D01*
X62969505Y-112888187D01*
X63045270Y-112835136D01*
X63045273Y-112835134D01*
X63049781Y-112831977D01*
X63206977Y-112674781D01*
X63213412Y-112665592D01*
X63331331Y-112497185D01*
X63331332Y-112497183D01*
X63334488Y-112492676D01*
X63336811Y-112487694D01*
X63336814Y-112487689D01*
X63426117Y-112296178D01*
X63426118Y-112296177D01*
X63428440Y-112291196D01*
X63485978Y-112076463D01*
X63505353Y-111855000D01*
X72384647Y-111855000D01*
X72404022Y-112076463D01*
X72461560Y-112291196D01*
X72463882Y-112296177D01*
X72463883Y-112296178D01*
X72553186Y-112487689D01*
X72553189Y-112487694D01*
X72555512Y-112492676D01*
X72558668Y-112497183D01*
X72558669Y-112497185D01*
X72676589Y-112665592D01*
X72683023Y-112674781D01*
X72840219Y-112831977D01*
X72844727Y-112835134D01*
X72844730Y-112835136D01*
X72920495Y-112888187D01*
X73022323Y-112959488D01*
X73027305Y-112961811D01*
X73027310Y-112961814D01*
X73194081Y-113039580D01*
X73223804Y-113053440D01*
X73229112Y-113054862D01*
X73229114Y-113054863D01*
X73294949Y-113072503D01*
X73438537Y-113110978D01*
X73660000Y-113130353D01*
X73881463Y-113110978D01*
X74025051Y-113072503D01*
X74090886Y-113054863D01*
X74090888Y-113054862D01*
X74096196Y-113053440D01*
X74125919Y-113039580D01*
X74292690Y-112961814D01*
X74292695Y-112961811D01*
X74297677Y-112959488D01*
X74399505Y-112888187D01*
X74475270Y-112835136D01*
X74475273Y-112835134D01*
X74479781Y-112831977D01*
X74636977Y-112674781D01*
X74643412Y-112665592D01*
X74761331Y-112497185D01*
X74761332Y-112497183D01*
X74764488Y-112492676D01*
X74766811Y-112487694D01*
X74766814Y-112487689D01*
X74856117Y-112296178D01*
X74856118Y-112296177D01*
X74858440Y-112291196D01*
X74915978Y-112076463D01*
X74935353Y-111855000D01*
X74915978Y-111633537D01*
X74858440Y-111418804D01*
X74856117Y-111413822D01*
X74766814Y-111222311D01*
X74766811Y-111222306D01*
X74764488Y-111217324D01*
X74761331Y-111212815D01*
X74640136Y-111039730D01*
X74640134Y-111039727D01*
X74636977Y-111035219D01*
X74479781Y-110878023D01*
X74475273Y-110874866D01*
X74475270Y-110874864D01*
X74399505Y-110821813D01*
X74297677Y-110750512D01*
X74292695Y-110748189D01*
X74292690Y-110748186D01*
X74187627Y-110699195D01*
X74134342Y-110652278D01*
X74114881Y-110584001D01*
X74135423Y-110516041D01*
X74187627Y-110470805D01*
X74292690Y-110421814D01*
X74292695Y-110421811D01*
X74297677Y-110419488D01*
X74399505Y-110348187D01*
X74475270Y-110295136D01*
X74475273Y-110295134D01*
X74479781Y-110291977D01*
X74636977Y-110134781D01*
X74764488Y-109952676D01*
X74766811Y-109947694D01*
X74766814Y-109947689D01*
X74856117Y-109756178D01*
X74856118Y-109756177D01*
X74858440Y-109751196D01*
X74915978Y-109536463D01*
X74935353Y-109315000D01*
X74915978Y-109093537D01*
X74858440Y-108878804D01*
X74856117Y-108873822D01*
X74766814Y-108682311D01*
X74766811Y-108682306D01*
X74764488Y-108677324D01*
X74761331Y-108672815D01*
X74640136Y-108499730D01*
X74640134Y-108499727D01*
X74636977Y-108495219D01*
X74479781Y-108338023D01*
X74475273Y-108334866D01*
X74475270Y-108334864D01*
X74399505Y-108281813D01*
X74297677Y-108210512D01*
X74292695Y-108208189D01*
X74292690Y-108208186D01*
X74187627Y-108159195D01*
X74134342Y-108112278D01*
X74114881Y-108044001D01*
X74135423Y-107976041D01*
X74187627Y-107930805D01*
X74292690Y-107881814D01*
X74292695Y-107881811D01*
X74297677Y-107879488D01*
X74410852Y-107800242D01*
X74475270Y-107755136D01*
X74475273Y-107755134D01*
X74479781Y-107751977D01*
X74636977Y-107594781D01*
X74701564Y-107502542D01*
X74761331Y-107417185D01*
X74761332Y-107417183D01*
X74764488Y-107412676D01*
X74766811Y-107407694D01*
X74766814Y-107407689D01*
X74856117Y-107216178D01*
X74856118Y-107216177D01*
X74858440Y-107211196D01*
X74915978Y-106996463D01*
X74935353Y-106775000D01*
X74915978Y-106553537D01*
X74858440Y-106338804D01*
X74856117Y-106333822D01*
X74766814Y-106142311D01*
X74766811Y-106142306D01*
X74764488Y-106137324D01*
X74636977Y-105955219D01*
X74479781Y-105798023D01*
X74475273Y-105794866D01*
X74475270Y-105794864D01*
X74399505Y-105741813D01*
X74297677Y-105670512D01*
X74292695Y-105668189D01*
X74292690Y-105668186D01*
X74101178Y-105578883D01*
X74101177Y-105578882D01*
X74096196Y-105576560D01*
X74090888Y-105575138D01*
X74090886Y-105575137D01*
X74025051Y-105557497D01*
X73881463Y-105519022D01*
X73660000Y-105499647D01*
X73438537Y-105519022D01*
X73294949Y-105557497D01*
X73229114Y-105575137D01*
X73229112Y-105575138D01*
X73223804Y-105576560D01*
X73218823Y-105578882D01*
X73218822Y-105578883D01*
X73027311Y-105668186D01*
X73027306Y-105668189D01*
X73022324Y-105670512D01*
X73017817Y-105673668D01*
X73017815Y-105673669D01*
X72844730Y-105794864D01*
X72844727Y-105794866D01*
X72840219Y-105798023D01*
X72683023Y-105955219D01*
X72555512Y-106137324D01*
X72553189Y-106142306D01*
X72553186Y-106142311D01*
X72463883Y-106333822D01*
X72461560Y-106338804D01*
X72404022Y-106553537D01*
X72384647Y-106775000D01*
X72404022Y-106996463D01*
X72461560Y-107211196D01*
X72463882Y-107216177D01*
X72463883Y-107216178D01*
X72553186Y-107407689D01*
X72553189Y-107407694D01*
X72555512Y-107412676D01*
X72558668Y-107417183D01*
X72558669Y-107417185D01*
X72618437Y-107502542D01*
X72683023Y-107594781D01*
X72840219Y-107751977D01*
X72844727Y-107755134D01*
X72844730Y-107755136D01*
X72909148Y-107800242D01*
X73022323Y-107879488D01*
X73027305Y-107881811D01*
X73027310Y-107881814D01*
X73132373Y-107930805D01*
X73185658Y-107977722D01*
X73205119Y-108045999D01*
X73184577Y-108113959D01*
X73132373Y-108159195D01*
X73027311Y-108208186D01*
X73027306Y-108208189D01*
X73022324Y-108210512D01*
X73017817Y-108213668D01*
X73017815Y-108213669D01*
X72844730Y-108334864D01*
X72844727Y-108334866D01*
X72840219Y-108338023D01*
X72683023Y-108495219D01*
X72679866Y-108499727D01*
X72679864Y-108499730D01*
X72558669Y-108672815D01*
X72555512Y-108677324D01*
X72553189Y-108682306D01*
X72553186Y-108682311D01*
X72463883Y-108873822D01*
X72461560Y-108878804D01*
X72404022Y-109093537D01*
X72384647Y-109315000D01*
X72404022Y-109536463D01*
X72461560Y-109751196D01*
X72463882Y-109756177D01*
X72463883Y-109756178D01*
X72553186Y-109947689D01*
X72553189Y-109947694D01*
X72555512Y-109952676D01*
X72683023Y-110134781D01*
X72840219Y-110291977D01*
X72844727Y-110295134D01*
X72844730Y-110295136D01*
X72920495Y-110348187D01*
X73022323Y-110419488D01*
X73027305Y-110421811D01*
X73027310Y-110421814D01*
X73132373Y-110470805D01*
X73185658Y-110517722D01*
X73205119Y-110585999D01*
X73184577Y-110653959D01*
X73132373Y-110699195D01*
X73027311Y-110748186D01*
X73027306Y-110748189D01*
X73022324Y-110750512D01*
X73017817Y-110753668D01*
X73017815Y-110753669D01*
X72844730Y-110874864D01*
X72844727Y-110874866D01*
X72840219Y-110878023D01*
X72683023Y-111035219D01*
X72679866Y-111039727D01*
X72679864Y-111039730D01*
X72558669Y-111212815D01*
X72555512Y-111217324D01*
X72553189Y-111222306D01*
X72553186Y-111222311D01*
X72463883Y-111413822D01*
X72461560Y-111418804D01*
X72404022Y-111633537D01*
X72384647Y-111855000D01*
X63505353Y-111855000D01*
X63485978Y-111633537D01*
X63428440Y-111418804D01*
X63426117Y-111413822D01*
X63336814Y-111222311D01*
X63336811Y-111222306D01*
X63334488Y-111217324D01*
X63331331Y-111212815D01*
X63210136Y-111039730D01*
X63210134Y-111039727D01*
X63206977Y-111035219D01*
X63049781Y-110878023D01*
X63045273Y-110874866D01*
X63045270Y-110874864D01*
X62969505Y-110821813D01*
X62867677Y-110750512D01*
X62862695Y-110748189D01*
X62862690Y-110748186D01*
X62757627Y-110699195D01*
X62704342Y-110652278D01*
X62684881Y-110584001D01*
X62705423Y-110516041D01*
X62757627Y-110470805D01*
X62862690Y-110421814D01*
X62862695Y-110421811D01*
X62867677Y-110419488D01*
X62969505Y-110348187D01*
X63045270Y-110295136D01*
X63045273Y-110295134D01*
X63049781Y-110291977D01*
X63206977Y-110134781D01*
X63334488Y-109952676D01*
X63336811Y-109947694D01*
X63336814Y-109947689D01*
X63426117Y-109756178D01*
X63426118Y-109756177D01*
X63428440Y-109751196D01*
X63485978Y-109536463D01*
X63505353Y-109315000D01*
X63485978Y-109093537D01*
X63428440Y-108878804D01*
X63426117Y-108873822D01*
X63336814Y-108682311D01*
X63336811Y-108682306D01*
X63334488Y-108677324D01*
X63331331Y-108672815D01*
X63210136Y-108499730D01*
X63210134Y-108499727D01*
X63206977Y-108495219D01*
X63049781Y-108338023D01*
X63045273Y-108334866D01*
X63045270Y-108334864D01*
X62969505Y-108281813D01*
X62867677Y-108210512D01*
X62862695Y-108208189D01*
X62862690Y-108208186D01*
X62757627Y-108159195D01*
X62704342Y-108112278D01*
X62684881Y-108044001D01*
X62705423Y-107976041D01*
X62757627Y-107930805D01*
X62862690Y-107881814D01*
X62862695Y-107881811D01*
X62867677Y-107879488D01*
X62980852Y-107800242D01*
X63045270Y-107755136D01*
X63045273Y-107755134D01*
X63049781Y-107751977D01*
X63206977Y-107594781D01*
X63271564Y-107502542D01*
X63331331Y-107417185D01*
X63331332Y-107417183D01*
X63334488Y-107412676D01*
X63336811Y-107407694D01*
X63336814Y-107407689D01*
X63426117Y-107216178D01*
X63426118Y-107216177D01*
X63428440Y-107211196D01*
X63485978Y-106996463D01*
X63505353Y-106775000D01*
X63485978Y-106553537D01*
X63428440Y-106338804D01*
X63426117Y-106333822D01*
X63336814Y-106142311D01*
X63336811Y-106142306D01*
X63334488Y-106137324D01*
X63206977Y-105955219D01*
X63049781Y-105798023D01*
X63045273Y-105794866D01*
X63045270Y-105794864D01*
X62969505Y-105741813D01*
X62867677Y-105670512D01*
X62862695Y-105668189D01*
X62862690Y-105668186D01*
X62671178Y-105578883D01*
X62671177Y-105578882D01*
X62666196Y-105576560D01*
X62660888Y-105575138D01*
X62660886Y-105575137D01*
X62595051Y-105557497D01*
X62451463Y-105519022D01*
X62230000Y-105499647D01*
X62008537Y-105519022D01*
X61864949Y-105557497D01*
X61799114Y-105575137D01*
X61799112Y-105575138D01*
X61793804Y-105576560D01*
X61788823Y-105578882D01*
X61788822Y-105578883D01*
X61597311Y-105668186D01*
X61597306Y-105668189D01*
X61592324Y-105670512D01*
X61587817Y-105673668D01*
X61587815Y-105673669D01*
X61414730Y-105794864D01*
X61414727Y-105794866D01*
X61410219Y-105798023D01*
X61253023Y-105955219D01*
X61125512Y-106137324D01*
X61123189Y-106142306D01*
X61123186Y-106142311D01*
X61033883Y-106333822D01*
X61031560Y-106338804D01*
X60974022Y-106553537D01*
X60954647Y-106775000D01*
X60974022Y-106996463D01*
X61031560Y-107211196D01*
X61033882Y-107216177D01*
X61033883Y-107216178D01*
X61123186Y-107407689D01*
X61123189Y-107407694D01*
X61125512Y-107412676D01*
X61128668Y-107417183D01*
X61128669Y-107417185D01*
X61188437Y-107502542D01*
X61253023Y-107594781D01*
X61410219Y-107751977D01*
X61414727Y-107755134D01*
X61414730Y-107755136D01*
X61479148Y-107800242D01*
X61592323Y-107879488D01*
X61597305Y-107881811D01*
X61597310Y-107881814D01*
X61702373Y-107930805D01*
X61755658Y-107977722D01*
X61775119Y-108045999D01*
X61754577Y-108113959D01*
X61702373Y-108159195D01*
X61597311Y-108208186D01*
X61597306Y-108208189D01*
X61592324Y-108210512D01*
X61587817Y-108213668D01*
X61587815Y-108213669D01*
X61414730Y-108334864D01*
X61414727Y-108334866D01*
X61410219Y-108338023D01*
X61253023Y-108495219D01*
X61249866Y-108499727D01*
X61249864Y-108499730D01*
X61128669Y-108672815D01*
X61125512Y-108677324D01*
X61123189Y-108682306D01*
X61123186Y-108682311D01*
X61033883Y-108873822D01*
X61031560Y-108878804D01*
X60974022Y-109093537D01*
X60954647Y-109315000D01*
X60974022Y-109536463D01*
X61031560Y-109751196D01*
X61033882Y-109756177D01*
X61033883Y-109756178D01*
X61123186Y-109947689D01*
X61123189Y-109947694D01*
X61125512Y-109952676D01*
X61253023Y-110134781D01*
X61410219Y-110291977D01*
X61414727Y-110295134D01*
X61414730Y-110295136D01*
X61490495Y-110348187D01*
X61592323Y-110419488D01*
X61597305Y-110421811D01*
X61597310Y-110421814D01*
X61702373Y-110470805D01*
X61755658Y-110517722D01*
X61775119Y-110585999D01*
X61754577Y-110653959D01*
X61702373Y-110699195D01*
X61597311Y-110748186D01*
X61597306Y-110748189D01*
X61592324Y-110750512D01*
X61587817Y-110753668D01*
X61587815Y-110753669D01*
X61414730Y-110874864D01*
X61414727Y-110874866D01*
X61410219Y-110878023D01*
X61253023Y-111035219D01*
X61249866Y-111039727D01*
X61249864Y-111039730D01*
X61128669Y-111212815D01*
X61125512Y-111217324D01*
X61123189Y-111222306D01*
X61123186Y-111222311D01*
X61033883Y-111413822D01*
X61031560Y-111418804D01*
X60974022Y-111633537D01*
X60954647Y-111855000D01*
X56388000Y-111855000D01*
X56388000Y-96520000D01*
X63494647Y-96520000D01*
X63514022Y-96741463D01*
X63571560Y-96956196D01*
X63573882Y-96961177D01*
X63573883Y-96961178D01*
X63663186Y-97152689D01*
X63663189Y-97152694D01*
X63665512Y-97157676D01*
X63668668Y-97162183D01*
X63668669Y-97162185D01*
X63768318Y-97304498D01*
X63793023Y-97339781D01*
X63950219Y-97496977D01*
X63954727Y-97500134D01*
X63954730Y-97500136D01*
X64030495Y-97553187D01*
X64132323Y-97624488D01*
X64137305Y-97626811D01*
X64137310Y-97626814D01*
X64328822Y-97716117D01*
X64333804Y-97718440D01*
X64339112Y-97719862D01*
X64339114Y-97719863D01*
X64404949Y-97737503D01*
X64548537Y-97775978D01*
X64770000Y-97795353D01*
X64991463Y-97775978D01*
X65135051Y-97737503D01*
X65200886Y-97719863D01*
X65200888Y-97719862D01*
X65206196Y-97718440D01*
X65211178Y-97716117D01*
X65402690Y-97626814D01*
X65402695Y-97626811D01*
X65407677Y-97624488D01*
X65509505Y-97553187D01*
X65585270Y-97500136D01*
X65585273Y-97500134D01*
X65589781Y-97496977D01*
X65746977Y-97339781D01*
X65771683Y-97304498D01*
X65871331Y-97162185D01*
X65871332Y-97162183D01*
X65874488Y-97157676D01*
X65876811Y-97152694D01*
X65876814Y-97152689D01*
X65925805Y-97047627D01*
X65972723Y-96994342D01*
X66041000Y-96974881D01*
X66108960Y-96995423D01*
X66154195Y-97047627D01*
X66203186Y-97152689D01*
X66203189Y-97152694D01*
X66205512Y-97157676D01*
X66208668Y-97162183D01*
X66208669Y-97162185D01*
X66308318Y-97304498D01*
X66333023Y-97339781D01*
X66490219Y-97496977D01*
X66494727Y-97500134D01*
X66494730Y-97500136D01*
X66570495Y-97553187D01*
X66672323Y-97624488D01*
X66677305Y-97626811D01*
X66677310Y-97626814D01*
X66868822Y-97716117D01*
X66873804Y-97718440D01*
X66879112Y-97719862D01*
X66879114Y-97719863D01*
X66944949Y-97737503D01*
X67088537Y-97775978D01*
X67310000Y-97795353D01*
X67531463Y-97775978D01*
X67675051Y-97737503D01*
X67740886Y-97719863D01*
X67740888Y-97719862D01*
X67746196Y-97718440D01*
X67751178Y-97716117D01*
X67942690Y-97626814D01*
X67942695Y-97626811D01*
X67947677Y-97624488D01*
X68049505Y-97553187D01*
X68125270Y-97500136D01*
X68125273Y-97500134D01*
X68129781Y-97496977D01*
X68286977Y-97339781D01*
X68311683Y-97304498D01*
X68411331Y-97162185D01*
X68411332Y-97162183D01*
X68414488Y-97157676D01*
X68416811Y-97152694D01*
X68416814Y-97152689D01*
X68465805Y-97047627D01*
X68512723Y-96994342D01*
X68581000Y-96974881D01*
X68648960Y-96995423D01*
X68694195Y-97047627D01*
X68743186Y-97152689D01*
X68743189Y-97152694D01*
X68745512Y-97157676D01*
X68748668Y-97162183D01*
X68748669Y-97162185D01*
X68848318Y-97304498D01*
X68873023Y-97339781D01*
X69030219Y-97496977D01*
X69034727Y-97500134D01*
X69034730Y-97500136D01*
X69110495Y-97553187D01*
X69212323Y-97624488D01*
X69217305Y-97626811D01*
X69217310Y-97626814D01*
X69336201Y-97682253D01*
X69389486Y-97729170D01*
X69408947Y-97797447D01*
X69388405Y-97865407D01*
X69337192Y-97910175D01*
X69334330Y-97911540D01*
X69329524Y-97913710D01*
X69258051Y-97944196D01*
X69252891Y-97946397D01*
X69237890Y-97956251D01*
X69222975Y-97964654D01*
X69206782Y-97972378D01*
X69202234Y-97975646D01*
X69202229Y-97975649D01*
X69139114Y-98021002D01*
X69134777Y-98023982D01*
X69065125Y-98069735D01*
X69044344Y-98088251D01*
X69034048Y-98096500D01*
X69024346Y-98103471D01*
X69020441Y-98107501D01*
X68949968Y-98180223D01*
X68948579Y-98181633D01*
X66484737Y-100645475D01*
X66472347Y-100656342D01*
X66454708Y-100669877D01*
X66400188Y-100729794D01*
X66399842Y-100730174D01*
X66395743Y-100734469D01*
X66379802Y-100750410D01*
X66378007Y-100752557D01*
X66378005Y-100752559D01*
X66363068Y-100770423D01*
X66359600Y-100774398D01*
X66307288Y-100831888D01*
X66307281Y-100831897D01*
X66303515Y-100836036D01*
X66300538Y-100840782D01*
X66300537Y-100840783D01*
X66293987Y-100851225D01*
X66283911Y-100865093D01*
X66276004Y-100874549D01*
X66275997Y-100874559D01*
X66272406Y-100878854D01*
X66231118Y-100951240D01*
X66228413Y-100955759D01*
X66184136Y-101026344D01*
X66182043Y-101031549D01*
X66182042Y-101031552D01*
X66177448Y-101042979D01*
X66169988Y-101058411D01*
X66163880Y-101069119D01*
X66163876Y-101069128D01*
X66161101Y-101073993D01*
X66159232Y-101079270D01*
X66159230Y-101079275D01*
X66133285Y-101152542D01*
X66131420Y-101157478D01*
X66100344Y-101234783D01*
X66099208Y-101240270D01*
X66099207Y-101240272D01*
X66096706Y-101252349D01*
X66092101Y-101268844D01*
X66086111Y-101285759D01*
X66085204Y-101291298D01*
X66072643Y-101368001D01*
X66071683Y-101373180D01*
X66054787Y-101454767D01*
X66054521Y-101459379D01*
X66054521Y-101459380D01*
X66053185Y-101482548D01*
X66051738Y-101495653D01*
X66050714Y-101501910D01*
X66049806Y-101507457D01*
X66049894Y-101513070D01*
X66049894Y-101513072D01*
X66051484Y-101614264D01*
X66051500Y-101616243D01*
X66051500Y-110114543D01*
X66047207Y-110147152D01*
X66016457Y-110261913D01*
X65996502Y-110490000D01*
X66016457Y-110718087D01*
X66017881Y-110723400D01*
X66017881Y-110723402D01*
X66058466Y-110874864D01*
X66075716Y-110939243D01*
X66078039Y-110944224D01*
X66078039Y-110944225D01*
X66170151Y-111141762D01*
X66170154Y-111141767D01*
X66172477Y-111146749D01*
X66303802Y-111334300D01*
X66465700Y-111496198D01*
X66470208Y-111499355D01*
X66470211Y-111499357D01*
X66548389Y-111554098D01*
X66653251Y-111627523D01*
X66658233Y-111629846D01*
X66658238Y-111629849D01*
X66855578Y-111721869D01*
X66860757Y-111724284D01*
X66866065Y-111725706D01*
X66866067Y-111725707D01*
X67076598Y-111782119D01*
X67076600Y-111782119D01*
X67081913Y-111783543D01*
X67310000Y-111803498D01*
X67538087Y-111783543D01*
X67543400Y-111782119D01*
X67543402Y-111782119D01*
X67753933Y-111725707D01*
X67753935Y-111725706D01*
X67759243Y-111724284D01*
X67764422Y-111721869D01*
X67961762Y-111629849D01*
X67961767Y-111629846D01*
X67966749Y-111627523D01*
X68071611Y-111554098D01*
X68149789Y-111499357D01*
X68149792Y-111499355D01*
X68154300Y-111496198D01*
X68316198Y-111334300D01*
X68447523Y-111146749D01*
X68449846Y-111141767D01*
X68449849Y-111141762D01*
X68541961Y-110944225D01*
X68541961Y-110944224D01*
X68544284Y-110939243D01*
X68561535Y-110874864D01*
X68602119Y-110723402D01*
X68602119Y-110723400D01*
X68603543Y-110718087D01*
X68623498Y-110490000D01*
X68603543Y-110261913D01*
X68572793Y-110147152D01*
X68568500Y-110114543D01*
X68568500Y-102173477D01*
X68588502Y-102105356D01*
X68605405Y-102084382D01*
X70334383Y-100355405D01*
X70396695Y-100321379D01*
X70423478Y-100318500D01*
X83728604Y-100318500D01*
X83745051Y-100319578D01*
X83761516Y-100321746D01*
X83761520Y-100321746D01*
X83767086Y-100322479D01*
X83848489Y-100318640D01*
X83854424Y-100318500D01*
X83876999Y-100318500D01*
X83902989Y-100316181D01*
X83908248Y-100315822D01*
X83991488Y-100311896D01*
X83996947Y-100310646D01*
X83996952Y-100310645D01*
X84008970Y-100307892D01*
X84025899Y-100305211D01*
X84043762Y-100303617D01*
X84049178Y-100302135D01*
X84049180Y-100302135D01*
X84124133Y-100281630D01*
X84129251Y-100280344D01*
X84205000Y-100262995D01*
X84205002Y-100262994D01*
X84210470Y-100261742D01*
X84220970Y-100257263D01*
X84226967Y-100254706D01*
X84243142Y-100249073D01*
X84255039Y-100245818D01*
X84255043Y-100245817D01*
X84260451Y-100244337D01*
X84293192Y-100228720D01*
X84335667Y-100208461D01*
X84340466Y-100206294D01*
X84375221Y-100191470D01*
X84445726Y-100183141D01*
X84509542Y-100214253D01*
X84546408Y-100274928D01*
X84544618Y-100345902D01*
X84513750Y-100396462D01*
X77914737Y-106995475D01*
X77902347Y-107006342D01*
X77884708Y-107019877D01*
X77830188Y-107079794D01*
X77829842Y-107080174D01*
X77825743Y-107084469D01*
X77809802Y-107100410D01*
X77808007Y-107102557D01*
X77808005Y-107102559D01*
X77793068Y-107120423D01*
X77789600Y-107124398D01*
X77737288Y-107181888D01*
X77737281Y-107181897D01*
X77733515Y-107186036D01*
X77730538Y-107190782D01*
X77730537Y-107190783D01*
X77723987Y-107201225D01*
X77713911Y-107215093D01*
X77706004Y-107224549D01*
X77705997Y-107224559D01*
X77702406Y-107228854D01*
X77661118Y-107301240D01*
X77658413Y-107305759D01*
X77614136Y-107376344D01*
X77612043Y-107381549D01*
X77612042Y-107381552D01*
X77607448Y-107392979D01*
X77599988Y-107408411D01*
X77593880Y-107419119D01*
X77593876Y-107419128D01*
X77591101Y-107423993D01*
X77589232Y-107429270D01*
X77589230Y-107429275D01*
X77563285Y-107502542D01*
X77561420Y-107507478D01*
X77530344Y-107584783D01*
X77529208Y-107590270D01*
X77529207Y-107590272D01*
X77526706Y-107602349D01*
X77522101Y-107618844D01*
X77516111Y-107635759D01*
X77515204Y-107641298D01*
X77502643Y-107718001D01*
X77501683Y-107723180D01*
X77484787Y-107804767D01*
X77484521Y-107809379D01*
X77484521Y-107809380D01*
X77483185Y-107832548D01*
X77481738Y-107845653D01*
X77480714Y-107851910D01*
X77479806Y-107857457D01*
X77479894Y-107863070D01*
X77479894Y-107863072D01*
X77481484Y-107964264D01*
X77481500Y-107966243D01*
X77481500Y-110114543D01*
X77477207Y-110147152D01*
X77446457Y-110261913D01*
X77426502Y-110490000D01*
X77446457Y-110718087D01*
X77447881Y-110723400D01*
X77447881Y-110723402D01*
X77488466Y-110874864D01*
X77505716Y-110939243D01*
X77508039Y-110944224D01*
X77508039Y-110944225D01*
X77600151Y-111141762D01*
X77600154Y-111141767D01*
X77602477Y-111146749D01*
X77733802Y-111334300D01*
X77895700Y-111496198D01*
X77900208Y-111499355D01*
X77900211Y-111499357D01*
X77978389Y-111554098D01*
X78083251Y-111627523D01*
X78088233Y-111629846D01*
X78088238Y-111629849D01*
X78285578Y-111721869D01*
X78290757Y-111724284D01*
X78296065Y-111725706D01*
X78296067Y-111725707D01*
X78506598Y-111782119D01*
X78506600Y-111782119D01*
X78511913Y-111783543D01*
X78740000Y-111803498D01*
X78968087Y-111783543D01*
X78973400Y-111782119D01*
X78973402Y-111782119D01*
X79183933Y-111725707D01*
X79183935Y-111725706D01*
X79189243Y-111724284D01*
X79194422Y-111721869D01*
X79391762Y-111629849D01*
X79391767Y-111629846D01*
X79396749Y-111627523D01*
X79501611Y-111554098D01*
X79579789Y-111499357D01*
X79579792Y-111499355D01*
X79584300Y-111496198D01*
X79746198Y-111334300D01*
X79877523Y-111146749D01*
X79879846Y-111141767D01*
X79879849Y-111141762D01*
X79971961Y-110944225D01*
X79971961Y-110944224D01*
X79974284Y-110939243D01*
X79991535Y-110874864D01*
X80032119Y-110723402D01*
X80032119Y-110723400D01*
X80033543Y-110718087D01*
X80053498Y-110490000D01*
X85046502Y-110490000D01*
X85066457Y-110718087D01*
X85067881Y-110723400D01*
X85067881Y-110723402D01*
X85108466Y-110874864D01*
X85125716Y-110939243D01*
X85128039Y-110944224D01*
X85128039Y-110944225D01*
X85220151Y-111141762D01*
X85220154Y-111141767D01*
X85222477Y-111146749D01*
X85353802Y-111334300D01*
X85515700Y-111496198D01*
X85520208Y-111499355D01*
X85520211Y-111499357D01*
X85598389Y-111554098D01*
X85703251Y-111627523D01*
X85708233Y-111629846D01*
X85708238Y-111629849D01*
X85905578Y-111721869D01*
X85910757Y-111724284D01*
X85916065Y-111725706D01*
X85916067Y-111725707D01*
X86126598Y-111782119D01*
X86126600Y-111782119D01*
X86131913Y-111783543D01*
X86360000Y-111803498D01*
X86588087Y-111783543D01*
X86593400Y-111782119D01*
X86593402Y-111782119D01*
X86803933Y-111725707D01*
X86803935Y-111725706D01*
X86809243Y-111724284D01*
X86814422Y-111721869D01*
X87011762Y-111629849D01*
X87011767Y-111629846D01*
X87016749Y-111627523D01*
X87121611Y-111554098D01*
X87199789Y-111499357D01*
X87199792Y-111499355D01*
X87204300Y-111496198D01*
X87366198Y-111334300D01*
X87497523Y-111146749D01*
X87499846Y-111141767D01*
X87499849Y-111141762D01*
X87591961Y-110944225D01*
X87591961Y-110944224D01*
X87594284Y-110939243D01*
X87611535Y-110874864D01*
X87652119Y-110723402D01*
X87652119Y-110723400D01*
X87653543Y-110718087D01*
X87673498Y-110490000D01*
X92666502Y-110490000D01*
X92686457Y-110718087D01*
X92687881Y-110723400D01*
X92687881Y-110723402D01*
X92728466Y-110874864D01*
X92745716Y-110939243D01*
X92748039Y-110944224D01*
X92748039Y-110944225D01*
X92840151Y-111141762D01*
X92840154Y-111141767D01*
X92842477Y-111146749D01*
X92973802Y-111334300D01*
X93135700Y-111496198D01*
X93140208Y-111499355D01*
X93140211Y-111499357D01*
X93218389Y-111554098D01*
X93323251Y-111627523D01*
X93328233Y-111629846D01*
X93328238Y-111629849D01*
X93525578Y-111721869D01*
X93530757Y-111724284D01*
X93536065Y-111725706D01*
X93536067Y-111725707D01*
X93746598Y-111782119D01*
X93746600Y-111782119D01*
X93751913Y-111783543D01*
X93980000Y-111803498D01*
X94208087Y-111783543D01*
X94213400Y-111782119D01*
X94213402Y-111782119D01*
X94423933Y-111725707D01*
X94423935Y-111725706D01*
X94429243Y-111724284D01*
X94434422Y-111721869D01*
X94631762Y-111629849D01*
X94631767Y-111629846D01*
X94636749Y-111627523D01*
X94741611Y-111554098D01*
X94819789Y-111499357D01*
X94819792Y-111499355D01*
X94824300Y-111496198D01*
X94986198Y-111334300D01*
X95117523Y-111146749D01*
X95119846Y-111141767D01*
X95119849Y-111141762D01*
X95211961Y-110944225D01*
X95211961Y-110944224D01*
X95214284Y-110939243D01*
X95231535Y-110874864D01*
X95272119Y-110723402D01*
X95272119Y-110723400D01*
X95273543Y-110718087D01*
X95293498Y-110490000D01*
X95273543Y-110261913D01*
X95272119Y-110256598D01*
X95215707Y-110046067D01*
X95215706Y-110046065D01*
X95214284Y-110040757D01*
X95175314Y-109957185D01*
X95119849Y-109838238D01*
X95119846Y-109838233D01*
X95117523Y-109833251D01*
X94986198Y-109645700D01*
X94824300Y-109483802D01*
X94819792Y-109480645D01*
X94819789Y-109480643D01*
X94741611Y-109425902D01*
X94636749Y-109352477D01*
X94631767Y-109350154D01*
X94631762Y-109350151D01*
X94434225Y-109258039D01*
X94434224Y-109258039D01*
X94429243Y-109255716D01*
X94423935Y-109254294D01*
X94423933Y-109254293D01*
X94213402Y-109197881D01*
X94213400Y-109197881D01*
X94208087Y-109196457D01*
X93980000Y-109176502D01*
X93751913Y-109196457D01*
X93746600Y-109197881D01*
X93746598Y-109197881D01*
X93536067Y-109254293D01*
X93536065Y-109254294D01*
X93530757Y-109255716D01*
X93525776Y-109258039D01*
X93525775Y-109258039D01*
X93328238Y-109350151D01*
X93328233Y-109350154D01*
X93323251Y-109352477D01*
X93218389Y-109425902D01*
X93140211Y-109480643D01*
X93140208Y-109480645D01*
X93135700Y-109483802D01*
X92973802Y-109645700D01*
X92842477Y-109833251D01*
X92840154Y-109838233D01*
X92840151Y-109838238D01*
X92784686Y-109957185D01*
X92745716Y-110040757D01*
X92744294Y-110046065D01*
X92744293Y-110046067D01*
X92687881Y-110256598D01*
X92686457Y-110261913D01*
X92666502Y-110490000D01*
X87673498Y-110490000D01*
X87653543Y-110261913D01*
X87652119Y-110256598D01*
X87595707Y-110046067D01*
X87595706Y-110046065D01*
X87594284Y-110040757D01*
X87555314Y-109957185D01*
X87499849Y-109838238D01*
X87499846Y-109838233D01*
X87497523Y-109833251D01*
X87366198Y-109645700D01*
X87204300Y-109483802D01*
X87199792Y-109480645D01*
X87199789Y-109480643D01*
X87121611Y-109425902D01*
X87016749Y-109352477D01*
X87011767Y-109350154D01*
X87011762Y-109350151D01*
X86814225Y-109258039D01*
X86814224Y-109258039D01*
X86809243Y-109255716D01*
X86803935Y-109254294D01*
X86803933Y-109254293D01*
X86593402Y-109197881D01*
X86593400Y-109197881D01*
X86588087Y-109196457D01*
X86360000Y-109176502D01*
X86131913Y-109196457D01*
X86126600Y-109197881D01*
X86126598Y-109197881D01*
X85916067Y-109254293D01*
X85916065Y-109254294D01*
X85910757Y-109255716D01*
X85905776Y-109258039D01*
X85905775Y-109258039D01*
X85708238Y-109350151D01*
X85708233Y-109350154D01*
X85703251Y-109352477D01*
X85598389Y-109425902D01*
X85520211Y-109480643D01*
X85520208Y-109480645D01*
X85515700Y-109483802D01*
X85353802Y-109645700D01*
X85222477Y-109833251D01*
X85220154Y-109838233D01*
X85220151Y-109838238D01*
X85164686Y-109957185D01*
X85125716Y-110040757D01*
X85124294Y-110046065D01*
X85124293Y-110046067D01*
X85067881Y-110256598D01*
X85066457Y-110261913D01*
X85046502Y-110490000D01*
X80053498Y-110490000D01*
X80033543Y-110261913D01*
X80002793Y-110147152D01*
X79998500Y-110114543D01*
X79998500Y-108523477D01*
X80018502Y-108455356D01*
X80035405Y-108434382D01*
X83243726Y-105226062D01*
X86908493Y-105226062D01*
X86917789Y-105238077D01*
X86968994Y-105273931D01*
X86978489Y-105279414D01*
X87175947Y-105371490D01*
X87186239Y-105375236D01*
X87396688Y-105431625D01*
X87407481Y-105433528D01*
X87624525Y-105452517D01*
X87635475Y-105452517D01*
X87852519Y-105433528D01*
X87863312Y-105431625D01*
X88073761Y-105375236D01*
X88084053Y-105371490D01*
X88281511Y-105279414D01*
X88291006Y-105273931D01*
X88343048Y-105237491D01*
X88351424Y-105227012D01*
X88344356Y-105213566D01*
X87642812Y-104512022D01*
X87628868Y-104504408D01*
X87627035Y-104504539D01*
X87620420Y-104508790D01*
X86914923Y-105214287D01*
X86908493Y-105226062D01*
X83243726Y-105226062D01*
X84324313Y-104145475D01*
X86317483Y-104145475D01*
X86336472Y-104362519D01*
X86338375Y-104373312D01*
X86394764Y-104583761D01*
X86398510Y-104594053D01*
X86490586Y-104791511D01*
X86496069Y-104801006D01*
X86532509Y-104853048D01*
X86542988Y-104861424D01*
X86556434Y-104854356D01*
X87257978Y-104152812D01*
X87264356Y-104141132D01*
X87994408Y-104141132D01*
X87994539Y-104142965D01*
X87998790Y-104149580D01*
X88704287Y-104855077D01*
X88716062Y-104861507D01*
X88728077Y-104852211D01*
X88763931Y-104801006D01*
X88769414Y-104791511D01*
X88861490Y-104594053D01*
X88865236Y-104583761D01*
X88921625Y-104373312D01*
X88923528Y-104362519D01*
X88942517Y-104145475D01*
X88942517Y-104134525D01*
X88923528Y-103917481D01*
X88921625Y-103906688D01*
X88865236Y-103696239D01*
X88861490Y-103685947D01*
X88769414Y-103488489D01*
X88763931Y-103478994D01*
X88727491Y-103426952D01*
X88717012Y-103418576D01*
X88703566Y-103425644D01*
X88002022Y-104127188D01*
X87994408Y-104141132D01*
X87264356Y-104141132D01*
X87265592Y-104138868D01*
X87265461Y-104137035D01*
X87261210Y-104130420D01*
X86555713Y-103424923D01*
X86543938Y-103418493D01*
X86531923Y-103427789D01*
X86496069Y-103478994D01*
X86490586Y-103488489D01*
X86398510Y-103685947D01*
X86394764Y-103696239D01*
X86338375Y-103906688D01*
X86336472Y-103917481D01*
X86317483Y-104134525D01*
X86317483Y-104145475D01*
X84324313Y-104145475D01*
X85416800Y-103052988D01*
X86908576Y-103052988D01*
X86915644Y-103066434D01*
X87617188Y-103767978D01*
X87631132Y-103775592D01*
X87632965Y-103775461D01*
X87639580Y-103771210D01*
X88345077Y-103065713D01*
X88351507Y-103053938D01*
X88342211Y-103041923D01*
X88291006Y-103006069D01*
X88281511Y-103000586D01*
X88084053Y-102908510D01*
X88073761Y-102904764D01*
X87863312Y-102848375D01*
X87852519Y-102846472D01*
X87635475Y-102827483D01*
X87624525Y-102827483D01*
X87407481Y-102846472D01*
X87396688Y-102848375D01*
X87186239Y-102904764D01*
X87175947Y-102908510D01*
X86978489Y-103000586D01*
X86968994Y-103006069D01*
X86916952Y-103042509D01*
X86908576Y-103052988D01*
X85416800Y-103052988D01*
X88455263Y-100014525D01*
X88467654Y-100003657D01*
X88480848Y-99993533D01*
X88485292Y-99990123D01*
X88540158Y-99929826D01*
X88544257Y-99925531D01*
X88560199Y-99909589D01*
X88561996Y-99907440D01*
X88576933Y-99889576D01*
X88580401Y-99885601D01*
X88632712Y-99828112D01*
X88632719Y-99828103D01*
X88636485Y-99823964D01*
X88646014Y-99808773D01*
X88656089Y-99794907D01*
X88663996Y-99785451D01*
X88664003Y-99785441D01*
X88667594Y-99781146D01*
X88708887Y-99708752D01*
X88711592Y-99704232D01*
X88752886Y-99638404D01*
X88752888Y-99638401D01*
X88755864Y-99633656D01*
X88762552Y-99617021D01*
X88770012Y-99601589D01*
X88776120Y-99590881D01*
X88776124Y-99590872D01*
X88778899Y-99586007D01*
X88780768Y-99580730D01*
X88780770Y-99580725D01*
X88806715Y-99507458D01*
X88808580Y-99502522D01*
X88837566Y-99430416D01*
X88839656Y-99425217D01*
X88843294Y-99407650D01*
X88847899Y-99391156D01*
X88853889Y-99374241D01*
X88867355Y-99292009D01*
X88868317Y-99286819D01*
X88884277Y-99209754D01*
X88884278Y-99209750D01*
X88885213Y-99205233D01*
X88886815Y-99177452D01*
X88888262Y-99164347D01*
X88889286Y-99158090D01*
X88889286Y-99158083D01*
X88890194Y-99152542D01*
X88888516Y-99045705D01*
X88888500Y-99043727D01*
X88888500Y-97304498D01*
X88908502Y-97236377D01*
X88962158Y-97189884D01*
X89032432Y-97179780D01*
X89097012Y-97209274D01*
X89117713Y-97232227D01*
X89168318Y-97304498D01*
X89193023Y-97339781D01*
X89350219Y-97496977D01*
X89354727Y-97500134D01*
X89354730Y-97500136D01*
X89430495Y-97553187D01*
X89532323Y-97624488D01*
X89537305Y-97626811D01*
X89537310Y-97626814D01*
X89728822Y-97716117D01*
X89733804Y-97718440D01*
X89739112Y-97719862D01*
X89739114Y-97719863D01*
X89804949Y-97737503D01*
X89948537Y-97775978D01*
X90170000Y-97795353D01*
X90391463Y-97775978D01*
X90535051Y-97737503D01*
X90600886Y-97719863D01*
X90600888Y-97719862D01*
X90606196Y-97718440D01*
X90611178Y-97716117D01*
X90802690Y-97626814D01*
X90802695Y-97626811D01*
X90807677Y-97624488D01*
X90909505Y-97553187D01*
X90985270Y-97500136D01*
X90985273Y-97500134D01*
X90989781Y-97496977D01*
X91146977Y-97339781D01*
X91171683Y-97304498D01*
X91271331Y-97162185D01*
X91271332Y-97162183D01*
X91274488Y-97157676D01*
X91276811Y-97152694D01*
X91276814Y-97152689D01*
X91325805Y-97047627D01*
X91372723Y-96994342D01*
X91441000Y-96974881D01*
X91508960Y-96995423D01*
X91554195Y-97047627D01*
X91603186Y-97152689D01*
X91603189Y-97152694D01*
X91605512Y-97157676D01*
X91608668Y-97162183D01*
X91608669Y-97162185D01*
X91708318Y-97304498D01*
X91733023Y-97339781D01*
X91890219Y-97496977D01*
X91894727Y-97500134D01*
X91894730Y-97500136D01*
X91970495Y-97553187D01*
X92072323Y-97624488D01*
X92077305Y-97626811D01*
X92077310Y-97626814D01*
X92268822Y-97716117D01*
X92273804Y-97718440D01*
X92279112Y-97719862D01*
X92279114Y-97719863D01*
X92344949Y-97737503D01*
X92488537Y-97775978D01*
X92710000Y-97795353D01*
X92931463Y-97775978D01*
X93075051Y-97737503D01*
X93140886Y-97719863D01*
X93140888Y-97719862D01*
X93146196Y-97718440D01*
X93151178Y-97716117D01*
X93342690Y-97626814D01*
X93342695Y-97626811D01*
X93347677Y-97624488D01*
X93449505Y-97553187D01*
X93525270Y-97500136D01*
X93525273Y-97500134D01*
X93529781Y-97496977D01*
X93686977Y-97339781D01*
X93711683Y-97304498D01*
X93811331Y-97162185D01*
X93811332Y-97162183D01*
X93814488Y-97157676D01*
X93816811Y-97152694D01*
X93816814Y-97152689D01*
X93865805Y-97047627D01*
X93912723Y-96994342D01*
X93981000Y-96974881D01*
X94048960Y-96995423D01*
X94094195Y-97047627D01*
X94143186Y-97152689D01*
X94143189Y-97152694D01*
X94145512Y-97157676D01*
X94148668Y-97162183D01*
X94148669Y-97162185D01*
X94248318Y-97304498D01*
X94273023Y-97339781D01*
X94430219Y-97496977D01*
X94434727Y-97500134D01*
X94434730Y-97500136D01*
X94510495Y-97553187D01*
X94612323Y-97624488D01*
X94617305Y-97626811D01*
X94617310Y-97626814D01*
X94808822Y-97716117D01*
X94813804Y-97718440D01*
X94819112Y-97719862D01*
X94819114Y-97719863D01*
X94884949Y-97737503D01*
X95028537Y-97775978D01*
X95250000Y-97795353D01*
X95471463Y-97775978D01*
X95615051Y-97737503D01*
X95680886Y-97719863D01*
X95680888Y-97719862D01*
X95686196Y-97718440D01*
X95691178Y-97716117D01*
X95882690Y-97626814D01*
X95882695Y-97626811D01*
X95887677Y-97624488D01*
X95989505Y-97553187D01*
X96065270Y-97500136D01*
X96065273Y-97500134D01*
X96069781Y-97496977D01*
X96226977Y-97339781D01*
X96251683Y-97304498D01*
X96351331Y-97162185D01*
X96351332Y-97162183D01*
X96354488Y-97157676D01*
X96356811Y-97152694D01*
X96356814Y-97152689D01*
X96446117Y-96961178D01*
X96446118Y-96961177D01*
X96448440Y-96956196D01*
X96505978Y-96741463D01*
X96525353Y-96520000D01*
X96505978Y-96298537D01*
X96448440Y-96083804D01*
X96405805Y-95992373D01*
X96356814Y-95887311D01*
X96356811Y-95887306D01*
X96354488Y-95882324D01*
X96226977Y-95700219D01*
X96069781Y-95543023D01*
X96065273Y-95539866D01*
X96065270Y-95539864D01*
X95989505Y-95486813D01*
X95887677Y-95415512D01*
X95882695Y-95413189D01*
X95882690Y-95413186D01*
X95691178Y-95323883D01*
X95691177Y-95323882D01*
X95686196Y-95321560D01*
X95680888Y-95320138D01*
X95680886Y-95320137D01*
X95615051Y-95302497D01*
X95471463Y-95264022D01*
X95250000Y-95244647D01*
X95028537Y-95264022D01*
X94884949Y-95302497D01*
X94819114Y-95320137D01*
X94819112Y-95320138D01*
X94813804Y-95321560D01*
X94808823Y-95323882D01*
X94808822Y-95323883D01*
X94617311Y-95413186D01*
X94617306Y-95413189D01*
X94612324Y-95415512D01*
X94607817Y-95418668D01*
X94607815Y-95418669D01*
X94434730Y-95539864D01*
X94434727Y-95539866D01*
X94430219Y-95543023D01*
X94273023Y-95700219D01*
X94145512Y-95882324D01*
X94143189Y-95887306D01*
X94143186Y-95887311D01*
X94094195Y-95992373D01*
X94047277Y-96045658D01*
X93979000Y-96065119D01*
X93911040Y-96044577D01*
X93865805Y-95992373D01*
X93816814Y-95887311D01*
X93816811Y-95887306D01*
X93814488Y-95882324D01*
X93686977Y-95700219D01*
X93529781Y-95543023D01*
X93525273Y-95539866D01*
X93525270Y-95539864D01*
X93449505Y-95486813D01*
X93347677Y-95415512D01*
X93342695Y-95413189D01*
X93342690Y-95413186D01*
X93151178Y-95323883D01*
X93151177Y-95323882D01*
X93146196Y-95321560D01*
X93140888Y-95320138D01*
X93140886Y-95320137D01*
X93075051Y-95302497D01*
X92931463Y-95264022D01*
X92710000Y-95244647D01*
X92488537Y-95264022D01*
X92344949Y-95302497D01*
X92279114Y-95320137D01*
X92279112Y-95320138D01*
X92273804Y-95321560D01*
X92268823Y-95323882D01*
X92268822Y-95323883D01*
X92077311Y-95413186D01*
X92077306Y-95413189D01*
X92072324Y-95415512D01*
X92067817Y-95418668D01*
X92067815Y-95418669D01*
X91894730Y-95539864D01*
X91894727Y-95539866D01*
X91890219Y-95543023D01*
X91733023Y-95700219D01*
X91605512Y-95882324D01*
X91603189Y-95887306D01*
X91603186Y-95887311D01*
X91554195Y-95992373D01*
X91507277Y-96045658D01*
X91439000Y-96065119D01*
X91371040Y-96044577D01*
X91325805Y-95992373D01*
X91276814Y-95887311D01*
X91276811Y-95887306D01*
X91274488Y-95882324D01*
X91146977Y-95700219D01*
X90989781Y-95543023D01*
X90985273Y-95539866D01*
X90985270Y-95539864D01*
X90909505Y-95486813D01*
X90807677Y-95415512D01*
X90802695Y-95413189D01*
X90802690Y-95413186D01*
X90611178Y-95323883D01*
X90611177Y-95323882D01*
X90606196Y-95321560D01*
X90600888Y-95320138D01*
X90600886Y-95320137D01*
X90535051Y-95302497D01*
X90391463Y-95264022D01*
X90170000Y-95244647D01*
X89948537Y-95264022D01*
X89804949Y-95302497D01*
X89739114Y-95320137D01*
X89739112Y-95320138D01*
X89733804Y-95321560D01*
X89728823Y-95323882D01*
X89728822Y-95323883D01*
X89537311Y-95413186D01*
X89537306Y-95413189D01*
X89532324Y-95415512D01*
X89527817Y-95418668D01*
X89527815Y-95418669D01*
X89354730Y-95539864D01*
X89354727Y-95539866D01*
X89350219Y-95543023D01*
X89193023Y-95700219D01*
X89065512Y-95882324D01*
X89063189Y-95887306D01*
X89063186Y-95887311D01*
X89014195Y-95992373D01*
X88967277Y-96045658D01*
X88899000Y-96065119D01*
X88831040Y-96044577D01*
X88785805Y-95992373D01*
X88736814Y-95887311D01*
X88736811Y-95887306D01*
X88734488Y-95882324D01*
X88606977Y-95700219D01*
X88449781Y-95543023D01*
X88445273Y-95539866D01*
X88445270Y-95539864D01*
X88369505Y-95486813D01*
X88267677Y-95415512D01*
X88262695Y-95413189D01*
X88262690Y-95413186D01*
X88071178Y-95323883D01*
X88071177Y-95323882D01*
X88066196Y-95321560D01*
X88060888Y-95320138D01*
X88060886Y-95320137D01*
X87995051Y-95302497D01*
X87851463Y-95264022D01*
X87630000Y-95244647D01*
X87408537Y-95264022D01*
X87264949Y-95302497D01*
X87199114Y-95320137D01*
X87199112Y-95320138D01*
X87193804Y-95321560D01*
X87188823Y-95323882D01*
X87188822Y-95323883D01*
X86997311Y-95413186D01*
X86997306Y-95413189D01*
X86992324Y-95415512D01*
X86987817Y-95418668D01*
X86987815Y-95418669D01*
X86814730Y-95539864D01*
X86814727Y-95539866D01*
X86810219Y-95543023D01*
X86653023Y-95700219D01*
X86525512Y-95882324D01*
X86523189Y-95887306D01*
X86523186Y-95887311D01*
X86474195Y-95992373D01*
X86427277Y-96045658D01*
X86359000Y-96065119D01*
X86291040Y-96044577D01*
X86245805Y-95992373D01*
X86196814Y-95887311D01*
X86196811Y-95887306D01*
X86194488Y-95882324D01*
X86066977Y-95700219D01*
X85909781Y-95543023D01*
X85905273Y-95539866D01*
X85905270Y-95539864D01*
X85829505Y-95486813D01*
X85727677Y-95415512D01*
X85722695Y-95413189D01*
X85722690Y-95413186D01*
X85531178Y-95323883D01*
X85531177Y-95323882D01*
X85526196Y-95321560D01*
X85520888Y-95320138D01*
X85520886Y-95320137D01*
X85455051Y-95302497D01*
X85311463Y-95264022D01*
X85090000Y-95244647D01*
X84868537Y-95264022D01*
X84724949Y-95302497D01*
X84659114Y-95320137D01*
X84659112Y-95320138D01*
X84653804Y-95321560D01*
X84648823Y-95323882D01*
X84648822Y-95323883D01*
X84457311Y-95413186D01*
X84457306Y-95413189D01*
X84452324Y-95415512D01*
X84447817Y-95418668D01*
X84447815Y-95418669D01*
X84274730Y-95539864D01*
X84274727Y-95539866D01*
X84270219Y-95543023D01*
X84113023Y-95700219D01*
X83985512Y-95882324D01*
X83983189Y-95887306D01*
X83983186Y-95887311D01*
X83934195Y-95992373D01*
X83887277Y-96045658D01*
X83819000Y-96065119D01*
X83751040Y-96044577D01*
X83705805Y-95992373D01*
X83656814Y-95887311D01*
X83656811Y-95887306D01*
X83654488Y-95882324D01*
X83526977Y-95700219D01*
X83369781Y-95543023D01*
X83365273Y-95539866D01*
X83365270Y-95539864D01*
X83289505Y-95486813D01*
X83187677Y-95415512D01*
X83182695Y-95413189D01*
X83182690Y-95413186D01*
X82991178Y-95323883D01*
X82991177Y-95323882D01*
X82986196Y-95321560D01*
X82980888Y-95320138D01*
X82980886Y-95320137D01*
X82915051Y-95302497D01*
X82771463Y-95264022D01*
X82550000Y-95244647D01*
X82328537Y-95264022D01*
X82184949Y-95302497D01*
X82119114Y-95320137D01*
X82119112Y-95320138D01*
X82113804Y-95321560D01*
X82108823Y-95323882D01*
X82108822Y-95323883D01*
X81917311Y-95413186D01*
X81917306Y-95413189D01*
X81912324Y-95415512D01*
X81907817Y-95418668D01*
X81907815Y-95418669D01*
X81734730Y-95539864D01*
X81734727Y-95539866D01*
X81730219Y-95543023D01*
X81573023Y-95700219D01*
X81445512Y-95882324D01*
X81443189Y-95887306D01*
X81443186Y-95887311D01*
X81394195Y-95992373D01*
X81347277Y-96045658D01*
X81279000Y-96065119D01*
X81211040Y-96044577D01*
X81165805Y-95992373D01*
X81116814Y-95887311D01*
X81116811Y-95887306D01*
X81114488Y-95882324D01*
X80986977Y-95700219D01*
X80829781Y-95543023D01*
X80825273Y-95539866D01*
X80825270Y-95539864D01*
X80749505Y-95486813D01*
X80647677Y-95415512D01*
X80642695Y-95413189D01*
X80642690Y-95413186D01*
X80451178Y-95323883D01*
X80451177Y-95323882D01*
X80446196Y-95321560D01*
X80440888Y-95320138D01*
X80440886Y-95320137D01*
X80375051Y-95302497D01*
X80231463Y-95264022D01*
X80010000Y-95244647D01*
X79788537Y-95264022D01*
X79644949Y-95302497D01*
X79579114Y-95320137D01*
X79579112Y-95320138D01*
X79573804Y-95321560D01*
X79568823Y-95323882D01*
X79568822Y-95323883D01*
X79377311Y-95413186D01*
X79377306Y-95413189D01*
X79372324Y-95415512D01*
X79367817Y-95418668D01*
X79367815Y-95418669D01*
X79194730Y-95539864D01*
X79194727Y-95539866D01*
X79190219Y-95543023D01*
X79033023Y-95700219D01*
X78905512Y-95882324D01*
X78903189Y-95887306D01*
X78903186Y-95887311D01*
X78854195Y-95992373D01*
X78807277Y-96045658D01*
X78739000Y-96065119D01*
X78671040Y-96044577D01*
X78625805Y-95992373D01*
X78576814Y-95887311D01*
X78576811Y-95887306D01*
X78574488Y-95882324D01*
X78446977Y-95700219D01*
X78289781Y-95543023D01*
X78285273Y-95539866D01*
X78285270Y-95539864D01*
X78209505Y-95486813D01*
X78107677Y-95415512D01*
X78102695Y-95413189D01*
X78102690Y-95413186D01*
X77911178Y-95323883D01*
X77911177Y-95323882D01*
X77906196Y-95321560D01*
X77900888Y-95320138D01*
X77900886Y-95320137D01*
X77835051Y-95302497D01*
X77691463Y-95264022D01*
X77470000Y-95244647D01*
X77248537Y-95264022D01*
X77104949Y-95302497D01*
X77039114Y-95320137D01*
X77039112Y-95320138D01*
X77033804Y-95321560D01*
X77028823Y-95323882D01*
X77028822Y-95323883D01*
X76837311Y-95413186D01*
X76837306Y-95413189D01*
X76832324Y-95415512D01*
X76827817Y-95418668D01*
X76827815Y-95418669D01*
X76654730Y-95539864D01*
X76654727Y-95539866D01*
X76650219Y-95543023D01*
X76493023Y-95700219D01*
X76365512Y-95882324D01*
X76363189Y-95887306D01*
X76363186Y-95887311D01*
X76314195Y-95992373D01*
X76267277Y-96045658D01*
X76199000Y-96065119D01*
X76131040Y-96044577D01*
X76085805Y-95992373D01*
X76036814Y-95887311D01*
X76036811Y-95887306D01*
X76034488Y-95882324D01*
X75906977Y-95700219D01*
X75749781Y-95543023D01*
X75745273Y-95539866D01*
X75745270Y-95539864D01*
X75669505Y-95486813D01*
X75567677Y-95415512D01*
X75562695Y-95413189D01*
X75562690Y-95413186D01*
X75371178Y-95323883D01*
X75371177Y-95323882D01*
X75366196Y-95321560D01*
X75360888Y-95320138D01*
X75360886Y-95320137D01*
X75295051Y-95302497D01*
X75151463Y-95264022D01*
X74930000Y-95244647D01*
X74708537Y-95264022D01*
X74564949Y-95302497D01*
X74499114Y-95320137D01*
X74499112Y-95320138D01*
X74493804Y-95321560D01*
X74488823Y-95323882D01*
X74488822Y-95323883D01*
X74297311Y-95413186D01*
X74297306Y-95413189D01*
X74292324Y-95415512D01*
X74287817Y-95418668D01*
X74287815Y-95418669D01*
X74114730Y-95539864D01*
X74114727Y-95539866D01*
X74110219Y-95543023D01*
X73953023Y-95700219D01*
X73825512Y-95882324D01*
X73823189Y-95887306D01*
X73823186Y-95887311D01*
X73774195Y-95992373D01*
X73727277Y-96045658D01*
X73659000Y-96065119D01*
X73591040Y-96044577D01*
X73545805Y-95992373D01*
X73496814Y-95887311D01*
X73496811Y-95887306D01*
X73494488Y-95882324D01*
X73366977Y-95700219D01*
X73209781Y-95543023D01*
X73205273Y-95539866D01*
X73205270Y-95539864D01*
X73129505Y-95486813D01*
X73027677Y-95415512D01*
X73022695Y-95413189D01*
X73022690Y-95413186D01*
X72831178Y-95323883D01*
X72831177Y-95323882D01*
X72826196Y-95321560D01*
X72820888Y-95320138D01*
X72820886Y-95320137D01*
X72755051Y-95302497D01*
X72611463Y-95264022D01*
X72390000Y-95244647D01*
X72168537Y-95264022D01*
X72024949Y-95302497D01*
X71959114Y-95320137D01*
X71959112Y-95320138D01*
X71953804Y-95321560D01*
X71948823Y-95323882D01*
X71948822Y-95323883D01*
X71757311Y-95413186D01*
X71757306Y-95413189D01*
X71752324Y-95415512D01*
X71747817Y-95418668D01*
X71747815Y-95418669D01*
X71574730Y-95539864D01*
X71574727Y-95539866D01*
X71570219Y-95543023D01*
X71413023Y-95700219D01*
X71285512Y-95882324D01*
X71283189Y-95887306D01*
X71283186Y-95887311D01*
X71234195Y-95992373D01*
X71187277Y-96045658D01*
X71119000Y-96065119D01*
X71051040Y-96044577D01*
X71005805Y-95992373D01*
X70956814Y-95887311D01*
X70956811Y-95887306D01*
X70954488Y-95882324D01*
X70826977Y-95700219D01*
X70669781Y-95543023D01*
X70665273Y-95539866D01*
X70665270Y-95539864D01*
X70589505Y-95486813D01*
X70487677Y-95415512D01*
X70482695Y-95413189D01*
X70482690Y-95413186D01*
X70291178Y-95323883D01*
X70291177Y-95323882D01*
X70286196Y-95321560D01*
X70280888Y-95320138D01*
X70280886Y-95320137D01*
X70215051Y-95302497D01*
X70071463Y-95264022D01*
X69850000Y-95244647D01*
X69628537Y-95264022D01*
X69484949Y-95302497D01*
X69419114Y-95320137D01*
X69419112Y-95320138D01*
X69413804Y-95321560D01*
X69408823Y-95323882D01*
X69408822Y-95323883D01*
X69217311Y-95413186D01*
X69217306Y-95413189D01*
X69212324Y-95415512D01*
X69207817Y-95418668D01*
X69207815Y-95418669D01*
X69034730Y-95539864D01*
X69034727Y-95539866D01*
X69030219Y-95543023D01*
X68873023Y-95700219D01*
X68745512Y-95882324D01*
X68743189Y-95887306D01*
X68743186Y-95887311D01*
X68694195Y-95992373D01*
X68647277Y-96045658D01*
X68579000Y-96065119D01*
X68511040Y-96044577D01*
X68465805Y-95992373D01*
X68416814Y-95887311D01*
X68416811Y-95887306D01*
X68414488Y-95882324D01*
X68286977Y-95700219D01*
X68129781Y-95543023D01*
X68125273Y-95539866D01*
X68125270Y-95539864D01*
X68049505Y-95486813D01*
X67947677Y-95415512D01*
X67942695Y-95413189D01*
X67942690Y-95413186D01*
X67751178Y-95323883D01*
X67751177Y-95323882D01*
X67746196Y-95321560D01*
X67740888Y-95320138D01*
X67740886Y-95320137D01*
X67675051Y-95302497D01*
X67531463Y-95264022D01*
X67310000Y-95244647D01*
X67088537Y-95264022D01*
X66944949Y-95302497D01*
X66879114Y-95320137D01*
X66879112Y-95320138D01*
X66873804Y-95321560D01*
X66868823Y-95323882D01*
X66868822Y-95323883D01*
X66677311Y-95413186D01*
X66677306Y-95413189D01*
X66672324Y-95415512D01*
X66667817Y-95418668D01*
X66667815Y-95418669D01*
X66494730Y-95539864D01*
X66494727Y-95539866D01*
X66490219Y-95543023D01*
X66333023Y-95700219D01*
X66205512Y-95882324D01*
X66203189Y-95887306D01*
X66203186Y-95887311D01*
X66154195Y-95992373D01*
X66107277Y-96045658D01*
X66039000Y-96065119D01*
X65971040Y-96044577D01*
X65925805Y-95992373D01*
X65876814Y-95887311D01*
X65876811Y-95887306D01*
X65874488Y-95882324D01*
X65746977Y-95700219D01*
X65589781Y-95543023D01*
X65585273Y-95539866D01*
X65585270Y-95539864D01*
X65509505Y-95486813D01*
X65407677Y-95415512D01*
X65402695Y-95413189D01*
X65402690Y-95413186D01*
X65211178Y-95323883D01*
X65211177Y-95323882D01*
X65206196Y-95321560D01*
X65200888Y-95320138D01*
X65200886Y-95320137D01*
X65135051Y-95302497D01*
X64991463Y-95264022D01*
X64770000Y-95244647D01*
X64548537Y-95264022D01*
X64404949Y-95302497D01*
X64339114Y-95320137D01*
X64339112Y-95320138D01*
X64333804Y-95321560D01*
X64328823Y-95323882D01*
X64328822Y-95323883D01*
X64137311Y-95413186D01*
X64137306Y-95413189D01*
X64132324Y-95415512D01*
X64127817Y-95418668D01*
X64127815Y-95418669D01*
X63954730Y-95539864D01*
X63954727Y-95539866D01*
X63950219Y-95543023D01*
X63793023Y-95700219D01*
X63665512Y-95882324D01*
X63663189Y-95887306D01*
X63663186Y-95887311D01*
X63614195Y-95992373D01*
X63571560Y-96083804D01*
X63514022Y-96298537D01*
X63494647Y-96520000D01*
X56388000Y-96520000D01*
X56388000Y-74718777D01*
X64075777Y-74718777D01*
X64085074Y-74730793D01*
X64128069Y-74760898D01*
X64137555Y-74766376D01*
X64328993Y-74855645D01*
X64339285Y-74859391D01*
X64543309Y-74914059D01*
X64554104Y-74915962D01*
X64764525Y-74934372D01*
X64775475Y-74934372D01*
X64985896Y-74915962D01*
X64996691Y-74914059D01*
X65200715Y-74859391D01*
X65211007Y-74855645D01*
X65402445Y-74766376D01*
X65411931Y-74760898D01*
X65455764Y-74730207D01*
X65464139Y-74719729D01*
X65457071Y-74706281D01*
X64782812Y-74032022D01*
X64768868Y-74024408D01*
X64767035Y-74024539D01*
X64760420Y-74028790D01*
X64082207Y-74707003D01*
X64075777Y-74718777D01*
X56388000Y-74718777D01*
X56388000Y-73665475D01*
X63495628Y-73665475D01*
X63514038Y-73875896D01*
X63515941Y-73886691D01*
X63570609Y-74090715D01*
X63574355Y-74101007D01*
X63663623Y-74292441D01*
X63669103Y-74301932D01*
X63699794Y-74345765D01*
X63710271Y-74354140D01*
X63723718Y-74347072D01*
X64397978Y-73672812D01*
X64404356Y-73661132D01*
X65134408Y-73661132D01*
X65134539Y-73662965D01*
X65138790Y-73669580D01*
X65817003Y-74347793D01*
X65828777Y-74354223D01*
X65840793Y-74344926D01*
X65870897Y-74301932D01*
X65876377Y-74292441D01*
X65925529Y-74187035D01*
X65972447Y-74133750D01*
X66040724Y-74114289D01*
X66108684Y-74134831D01*
X66153919Y-74187035D01*
X66203186Y-74292689D01*
X66203189Y-74292694D01*
X66205512Y-74297676D01*
X66208668Y-74302183D01*
X66208669Y-74302185D01*
X66308318Y-74444498D01*
X66333023Y-74479781D01*
X66490219Y-74636977D01*
X66494727Y-74640134D01*
X66494730Y-74640136D01*
X66570495Y-74693187D01*
X66672323Y-74764488D01*
X66677305Y-74766811D01*
X66677310Y-74766814D01*
X66848977Y-74846863D01*
X66873804Y-74858440D01*
X66879112Y-74859862D01*
X66879114Y-74859863D01*
X66908892Y-74867842D01*
X67088537Y-74915978D01*
X67310000Y-74935353D01*
X67531463Y-74915978D01*
X67711108Y-74867842D01*
X67740886Y-74859863D01*
X67740888Y-74859862D01*
X67746196Y-74858440D01*
X67771023Y-74846863D01*
X67942690Y-74766814D01*
X67942695Y-74766811D01*
X67947677Y-74764488D01*
X68049505Y-74693187D01*
X68125270Y-74640136D01*
X68125273Y-74640134D01*
X68129781Y-74636977D01*
X68286977Y-74479781D01*
X68311683Y-74444498D01*
X68411331Y-74302185D01*
X68411332Y-74302183D01*
X68414488Y-74297676D01*
X68416811Y-74292694D01*
X68416814Y-74292689D01*
X68465805Y-74187627D01*
X68512723Y-74134342D01*
X68581000Y-74114881D01*
X68648960Y-74135423D01*
X68694195Y-74187627D01*
X68743186Y-74292689D01*
X68743189Y-74292694D01*
X68745512Y-74297676D01*
X68748668Y-74302183D01*
X68748669Y-74302185D01*
X68848318Y-74444498D01*
X68873023Y-74479781D01*
X69030219Y-74636977D01*
X69034727Y-74640134D01*
X69034730Y-74640136D01*
X69110495Y-74693187D01*
X69212323Y-74764488D01*
X69217305Y-74766811D01*
X69217310Y-74766814D01*
X69388977Y-74846863D01*
X69413804Y-74858440D01*
X69419112Y-74859862D01*
X69419114Y-74859863D01*
X69448892Y-74867842D01*
X69628537Y-74915978D01*
X69850000Y-74935353D01*
X70071463Y-74915978D01*
X70251108Y-74867842D01*
X70280886Y-74859863D01*
X70280888Y-74859862D01*
X70286196Y-74858440D01*
X70311023Y-74846863D01*
X70482690Y-74766814D01*
X70482695Y-74766811D01*
X70487677Y-74764488D01*
X70589505Y-74693187D01*
X70665270Y-74640136D01*
X70665273Y-74640134D01*
X70669781Y-74636977D01*
X70826977Y-74479781D01*
X70851683Y-74444498D01*
X70951331Y-74302185D01*
X70951332Y-74302183D01*
X70954488Y-74297676D01*
X70956811Y-74292694D01*
X70956814Y-74292689D01*
X71005805Y-74187627D01*
X71052723Y-74134342D01*
X71121000Y-74114881D01*
X71188960Y-74135423D01*
X71234195Y-74187627D01*
X71283186Y-74292689D01*
X71283189Y-74292694D01*
X71285512Y-74297676D01*
X71288668Y-74302183D01*
X71288669Y-74302185D01*
X71388318Y-74444498D01*
X71413023Y-74479781D01*
X71570219Y-74636977D01*
X71574727Y-74640134D01*
X71574730Y-74640136D01*
X71650495Y-74693187D01*
X71752323Y-74764488D01*
X71757305Y-74766811D01*
X71757310Y-74766814D01*
X71928977Y-74846863D01*
X71953804Y-74858440D01*
X71959112Y-74859862D01*
X71959114Y-74859863D01*
X71988892Y-74867842D01*
X72168537Y-74915978D01*
X72390000Y-74935353D01*
X72611463Y-74915978D01*
X72791108Y-74867842D01*
X72820886Y-74859863D01*
X72820888Y-74859862D01*
X72826196Y-74858440D01*
X72851023Y-74846863D01*
X73022690Y-74766814D01*
X73022695Y-74766811D01*
X73027677Y-74764488D01*
X73129505Y-74693187D01*
X73205270Y-74640136D01*
X73205273Y-74640134D01*
X73209781Y-74636977D01*
X73366977Y-74479781D01*
X73391683Y-74444498D01*
X73442287Y-74372227D01*
X73497744Y-74327899D01*
X73568363Y-74320590D01*
X73631724Y-74352621D01*
X73667709Y-74413822D01*
X73671500Y-74444498D01*
X73671500Y-74838604D01*
X73670422Y-74855051D01*
X73667521Y-74877086D01*
X73669355Y-74915978D01*
X73671360Y-74958488D01*
X73671500Y-74964424D01*
X73671500Y-74986999D01*
X73671985Y-74992434D01*
X73673819Y-75012988D01*
X73674178Y-75018248D01*
X73678104Y-75101488D01*
X73679354Y-75106947D01*
X73679355Y-75106952D01*
X73682108Y-75118970D01*
X73684789Y-75135899D01*
X73686383Y-75153762D01*
X73687865Y-75159178D01*
X73687865Y-75159180D01*
X73708370Y-75234133D01*
X73709656Y-75239251D01*
X73728258Y-75320470D01*
X73730460Y-75325632D01*
X73735294Y-75336967D01*
X73740927Y-75353142D01*
X73744182Y-75365039D01*
X73745663Y-75370451D01*
X73748079Y-75375516D01*
X73781539Y-75445667D01*
X73783710Y-75450476D01*
X73816397Y-75527109D01*
X73826251Y-75542110D01*
X73834654Y-75557025D01*
X73842378Y-75573218D01*
X73845648Y-75577769D01*
X73845650Y-75577772D01*
X73890999Y-75640881D01*
X73893989Y-75645232D01*
X73937196Y-75711010D01*
X73937202Y-75711018D01*
X73939735Y-75714874D01*
X73958257Y-75735662D01*
X73966490Y-75745939D01*
X73973471Y-75755654D01*
X73977498Y-75759556D01*
X74050254Y-75830062D01*
X74051664Y-75831451D01*
X75245475Y-77025263D01*
X75256342Y-77037653D01*
X75269877Y-77055292D01*
X75274023Y-77059065D01*
X75274028Y-77059070D01*
X75330164Y-77110149D01*
X75334459Y-77114247D01*
X75350410Y-77130198D01*
X75370436Y-77146942D01*
X75374391Y-77150392D01*
X75436036Y-77206485D01*
X75440790Y-77209467D01*
X75451230Y-77216016D01*
X75465090Y-77226085D01*
X75478853Y-77237593D01*
X75483734Y-77240377D01*
X75551218Y-77278869D01*
X75555748Y-77281579D01*
X75626344Y-77325864D01*
X75631548Y-77327956D01*
X75642983Y-77332553D01*
X75658413Y-77340012D01*
X75669119Y-77346119D01*
X75669128Y-77346123D01*
X75673993Y-77348898D01*
X75752546Y-77376715D01*
X75757458Y-77378571D01*
X75834783Y-77409656D01*
X75840273Y-77410793D01*
X75852349Y-77413294D01*
X75868844Y-77417899D01*
X75885759Y-77423889D01*
X75968010Y-77437359D01*
X75973180Y-77438317D01*
X76054767Y-77455213D01*
X76059379Y-77455479D01*
X76059380Y-77455479D01*
X76082548Y-77456815D01*
X76095653Y-77458262D01*
X76101910Y-77459286D01*
X76101914Y-77459286D01*
X76107457Y-77460194D01*
X76113070Y-77460106D01*
X76113072Y-77460106D01*
X76214264Y-77458516D01*
X76216243Y-77458500D01*
X99756523Y-77458500D01*
X99824644Y-77478502D01*
X99845618Y-77495405D01*
X101382595Y-79032383D01*
X101416621Y-79094695D01*
X101419500Y-79121478D01*
X101419500Y-103074812D01*
X101399498Y-103142933D01*
X101345842Y-103189426D01*
X101275568Y-103199530D01*
X101210988Y-103170036D01*
X101204405Y-103163907D01*
X101174300Y-103133802D01*
X101169792Y-103130645D01*
X101169789Y-103130643D01*
X101043920Y-103042509D01*
X100986749Y-103002477D01*
X100981767Y-103000154D01*
X100981762Y-103000151D01*
X100784225Y-102908039D01*
X100784224Y-102908039D01*
X100779243Y-102905716D01*
X100773935Y-102904294D01*
X100773933Y-102904293D01*
X100563402Y-102847881D01*
X100563400Y-102847881D01*
X100558087Y-102846457D01*
X100330000Y-102826502D01*
X100101913Y-102846457D01*
X100096600Y-102847881D01*
X100096598Y-102847881D01*
X99886067Y-102904293D01*
X99886065Y-102904294D01*
X99880757Y-102905716D01*
X99875776Y-102908039D01*
X99875775Y-102908039D01*
X99678238Y-103000151D01*
X99678233Y-103000154D01*
X99673251Y-103002477D01*
X99616080Y-103042509D01*
X99490211Y-103130643D01*
X99490208Y-103130645D01*
X99485700Y-103133802D01*
X99323802Y-103295700D01*
X99192477Y-103483251D01*
X99190154Y-103488233D01*
X99190151Y-103488238D01*
X99104273Y-103672406D01*
X99095716Y-103690757D01*
X99094294Y-103696065D01*
X99094293Y-103696067D01*
X99073019Y-103775461D01*
X99036457Y-103911913D01*
X99016502Y-104140000D01*
X99036457Y-104368087D01*
X99067207Y-104482845D01*
X99071500Y-104515457D01*
X99071500Y-111495500D01*
X99051498Y-111563621D01*
X98997842Y-111610114D01*
X98945500Y-111621500D01*
X97411866Y-111621500D01*
X97349684Y-111628255D01*
X97213295Y-111679385D01*
X97096739Y-111766739D01*
X97009385Y-111883295D01*
X96958255Y-112019684D01*
X96951500Y-112081866D01*
X96951500Y-113978134D01*
X96958255Y-114040316D01*
X97009385Y-114176705D01*
X97096739Y-114293261D01*
X97213295Y-114380615D01*
X97349684Y-114431745D01*
X97411866Y-114438500D01*
X99308134Y-114438500D01*
X99370316Y-114431745D01*
X99506705Y-114380615D01*
X99623261Y-114293261D01*
X99636794Y-114275204D01*
X99693653Y-114232689D01*
X99764472Y-114227663D01*
X99801185Y-114241979D01*
X99908322Y-114304584D01*
X100124694Y-114387209D01*
X100129760Y-114388240D01*
X100129761Y-114388240D01*
X100182846Y-114399040D01*
X100351656Y-114433385D01*
X100481089Y-114438131D01*
X100577949Y-114441683D01*
X100577953Y-114441683D01*
X100583113Y-114441872D01*
X100588233Y-114441216D01*
X100588235Y-114441216D01*
X100662166Y-114431745D01*
X100812847Y-114412442D01*
X100817795Y-114410957D01*
X100817802Y-114410956D01*
X101029747Y-114347369D01*
X101034690Y-114345886D01*
X101050520Y-114338131D01*
X101238049Y-114246262D01*
X101238052Y-114246260D01*
X101242684Y-114243991D01*
X101431243Y-114109494D01*
X101500663Y-114040316D01*
X101506485Y-114034514D01*
X101568857Y-114000598D01*
X101639663Y-114005786D01*
X101683584Y-114033743D01*
X101685760Y-114035873D01*
X101689147Y-114039784D01*
X101867349Y-114187730D01*
X102067322Y-114304584D01*
X102283694Y-114387209D01*
X102288760Y-114388240D01*
X102288761Y-114388240D01*
X102341846Y-114399040D01*
X102510656Y-114433385D01*
X102640089Y-114438131D01*
X102736949Y-114441683D01*
X102736953Y-114441683D01*
X102742113Y-114441872D01*
X102747233Y-114441216D01*
X102747235Y-114441216D01*
X102821166Y-114431745D01*
X102971847Y-114412442D01*
X102976795Y-114410957D01*
X102976802Y-114410956D01*
X103188747Y-114347369D01*
X103193690Y-114345886D01*
X103209520Y-114338131D01*
X103397049Y-114246262D01*
X103397052Y-114246260D01*
X103401684Y-114243991D01*
X103590243Y-114109494D01*
X103659663Y-114040316D01*
X103665485Y-114034514D01*
X103727857Y-114000598D01*
X103798663Y-114005786D01*
X103842584Y-114033743D01*
X103844760Y-114035873D01*
X103848147Y-114039784D01*
X104026349Y-114187730D01*
X104226322Y-114304584D01*
X104442694Y-114387209D01*
X104447760Y-114388240D01*
X104447761Y-114388240D01*
X104500846Y-114399040D01*
X104669656Y-114433385D01*
X104799089Y-114438131D01*
X104895949Y-114441683D01*
X104895953Y-114441683D01*
X104901113Y-114441872D01*
X104906233Y-114441216D01*
X104906235Y-114441216D01*
X104980166Y-114431745D01*
X105130847Y-114412442D01*
X105135795Y-114410957D01*
X105135802Y-114410956D01*
X105347747Y-114347369D01*
X105352690Y-114345886D01*
X105368520Y-114338131D01*
X105556049Y-114246262D01*
X105556052Y-114246260D01*
X105560684Y-114243991D01*
X105749243Y-114109494D01*
X105913303Y-113946005D01*
X105962073Y-113878134D01*
X108471500Y-113878134D01*
X108478255Y-113940316D01*
X108529385Y-114076705D01*
X108616739Y-114193261D01*
X108733295Y-114280615D01*
X108869684Y-114331745D01*
X108931866Y-114338500D01*
X110628134Y-114338500D01*
X110690316Y-114331745D01*
X110826705Y-114280615D01*
X110943261Y-114193261D01*
X111001119Y-114116062D01*
X115558493Y-114116062D01*
X115567789Y-114128077D01*
X115618994Y-114163931D01*
X115628489Y-114169414D01*
X115825947Y-114261490D01*
X115836239Y-114265236D01*
X116046688Y-114321625D01*
X116057481Y-114323528D01*
X116274525Y-114342517D01*
X116285475Y-114342517D01*
X116502519Y-114323528D01*
X116513312Y-114321625D01*
X116723761Y-114265236D01*
X116734053Y-114261490D01*
X116931511Y-114169414D01*
X116941006Y-114163931D01*
X116993048Y-114127491D01*
X117001424Y-114117012D01*
X116994356Y-114103566D01*
X116292812Y-113402022D01*
X116278868Y-113394408D01*
X116277035Y-113394539D01*
X116270420Y-113398790D01*
X115564923Y-114104287D01*
X115558493Y-114116062D01*
X111001119Y-114116062D01*
X111030615Y-114076705D01*
X111081745Y-113940316D01*
X111088500Y-113878134D01*
X111088500Y-113035475D01*
X114967483Y-113035475D01*
X114986472Y-113252519D01*
X114988375Y-113263312D01*
X115044764Y-113473761D01*
X115048510Y-113484053D01*
X115140586Y-113681511D01*
X115146069Y-113691006D01*
X115182509Y-113743048D01*
X115192988Y-113751424D01*
X115206434Y-113744356D01*
X115907978Y-113042812D01*
X115914356Y-113031132D01*
X116644408Y-113031132D01*
X116644539Y-113032965D01*
X116648790Y-113039580D01*
X117354287Y-113745077D01*
X117366062Y-113751507D01*
X117378077Y-113742211D01*
X117413931Y-113691006D01*
X117419414Y-113681511D01*
X117511490Y-113484053D01*
X117515236Y-113473761D01*
X117571625Y-113263312D01*
X117573528Y-113252519D01*
X117592517Y-113035475D01*
X117592517Y-113024525D01*
X117573528Y-112807481D01*
X117571625Y-112796688D01*
X117515236Y-112586239D01*
X117511490Y-112575947D01*
X117419414Y-112378489D01*
X117413931Y-112368994D01*
X117377491Y-112316952D01*
X117367012Y-112308576D01*
X117353566Y-112315644D01*
X116652022Y-113017188D01*
X116644408Y-113031132D01*
X115914356Y-113031132D01*
X115915592Y-113028868D01*
X115915461Y-113027035D01*
X115911210Y-113020420D01*
X115205713Y-112314923D01*
X115193938Y-112308493D01*
X115181923Y-112317789D01*
X115146069Y-112368994D01*
X115140586Y-112378489D01*
X115048510Y-112575947D01*
X115044764Y-112586239D01*
X114988375Y-112796688D01*
X114986472Y-112807481D01*
X114967483Y-113024525D01*
X114967483Y-113035475D01*
X111088500Y-113035475D01*
X111088500Y-112181866D01*
X111081745Y-112119684D01*
X111030615Y-111983295D01*
X111000407Y-111942988D01*
X115558576Y-111942988D01*
X115565644Y-111956434D01*
X116267188Y-112657978D01*
X116281132Y-112665592D01*
X116282965Y-112665461D01*
X116289580Y-112661210D01*
X116995077Y-111955713D01*
X117001507Y-111943938D01*
X116992211Y-111931923D01*
X116941006Y-111896069D01*
X116931511Y-111890586D01*
X116734053Y-111798510D01*
X116723761Y-111794764D01*
X116513312Y-111738375D01*
X116502519Y-111736472D01*
X116285475Y-111717483D01*
X116274525Y-111717483D01*
X116057481Y-111736472D01*
X116046688Y-111738375D01*
X115836239Y-111794764D01*
X115825947Y-111798510D01*
X115628489Y-111890586D01*
X115618994Y-111896069D01*
X115566952Y-111932509D01*
X115558576Y-111942988D01*
X111000407Y-111942988D01*
X110943261Y-111866739D01*
X110826705Y-111779385D01*
X110690316Y-111728255D01*
X110628134Y-111721500D01*
X108931866Y-111721500D01*
X108869684Y-111728255D01*
X108733295Y-111779385D01*
X108616739Y-111866739D01*
X108529385Y-111983295D01*
X108478255Y-112119684D01*
X108471500Y-112181866D01*
X108471500Y-113878134D01*
X105962073Y-113878134D01*
X106048458Y-113757917D01*
X106056221Y-113742211D01*
X106148784Y-113554922D01*
X106148785Y-113554920D01*
X106151078Y-113550280D01*
X106218408Y-113328671D01*
X106248640Y-113099041D01*
X106248722Y-113095691D01*
X106250245Y-113033365D01*
X106250245Y-113033361D01*
X106250327Y-113030000D01*
X106244032Y-112953434D01*
X106231773Y-112804318D01*
X106231772Y-112804312D01*
X106231349Y-112799167D01*
X106201084Y-112678678D01*
X106176184Y-112579544D01*
X106176183Y-112579540D01*
X106174925Y-112574533D01*
X106105950Y-112415901D01*
X106095500Y-112365659D01*
X106095500Y-104140000D01*
X108946835Y-104140000D01*
X108965465Y-104376711D01*
X109020895Y-104607594D01*
X109111760Y-104826963D01*
X109114346Y-104831183D01*
X109233241Y-105025202D01*
X109233245Y-105025208D01*
X109235824Y-105029416D01*
X109390031Y-105209969D01*
X109393787Y-105213177D01*
X109395087Y-105214287D01*
X109570584Y-105364176D01*
X109574792Y-105366755D01*
X109574798Y-105366759D01*
X109768817Y-105485654D01*
X109773037Y-105488240D01*
X109777607Y-105490133D01*
X109777611Y-105490135D01*
X109987833Y-105577211D01*
X109992406Y-105579105D01*
X110072609Y-105598360D01*
X110218476Y-105633380D01*
X110218482Y-105633381D01*
X110223289Y-105634535D01*
X110460000Y-105653165D01*
X110696711Y-105634535D01*
X110701518Y-105633381D01*
X110701524Y-105633380D01*
X110847391Y-105598360D01*
X110927594Y-105579105D01*
X110932167Y-105577211D01*
X111142389Y-105490135D01*
X111142393Y-105490133D01*
X111146963Y-105488240D01*
X111151183Y-105485654D01*
X111345202Y-105366759D01*
X111345208Y-105366755D01*
X111349416Y-105364176D01*
X111524913Y-105214287D01*
X111526213Y-105213177D01*
X111529969Y-105209969D01*
X111684176Y-105029416D01*
X111686755Y-105025208D01*
X111686759Y-105025202D01*
X111805654Y-104831183D01*
X111808240Y-104826963D01*
X111899105Y-104607594D01*
X111954535Y-104376711D01*
X111973165Y-104140000D01*
X114026835Y-104140000D01*
X114045465Y-104376711D01*
X114100895Y-104607594D01*
X114191760Y-104826963D01*
X114194346Y-104831183D01*
X114313241Y-105025202D01*
X114313245Y-105025208D01*
X114315824Y-105029416D01*
X114470031Y-105209969D01*
X114473787Y-105213177D01*
X114475087Y-105214287D01*
X114650584Y-105364176D01*
X114654792Y-105366755D01*
X114654798Y-105366759D01*
X114848817Y-105485654D01*
X114853037Y-105488240D01*
X114857607Y-105490133D01*
X114857611Y-105490135D01*
X115067833Y-105577211D01*
X115072406Y-105579105D01*
X115152609Y-105598360D01*
X115298476Y-105633380D01*
X115298482Y-105633381D01*
X115303289Y-105634535D01*
X115540000Y-105653165D01*
X115776711Y-105634535D01*
X115781518Y-105633381D01*
X115781524Y-105633380D01*
X115927391Y-105598360D01*
X116007594Y-105579105D01*
X116012167Y-105577211D01*
X116222389Y-105490135D01*
X116222393Y-105490133D01*
X116226963Y-105488240D01*
X116231183Y-105485654D01*
X116425202Y-105366759D01*
X116425208Y-105366755D01*
X116429416Y-105364176D01*
X116604913Y-105214287D01*
X116606213Y-105213177D01*
X116609969Y-105209969D01*
X116764176Y-105029416D01*
X116766755Y-105025208D01*
X116766759Y-105025202D01*
X116885654Y-104831183D01*
X116888240Y-104826963D01*
X116979105Y-104607594D01*
X117034535Y-104376711D01*
X117053165Y-104140000D01*
X117034535Y-103903289D01*
X116979105Y-103672406D01*
X116888240Y-103453037D01*
X116872255Y-103426952D01*
X116766759Y-103254798D01*
X116766755Y-103254792D01*
X116764176Y-103250584D01*
X116609969Y-103070031D01*
X116605758Y-103066434D01*
X116534570Y-103005634D01*
X116429416Y-102915824D01*
X116425208Y-102913245D01*
X116425202Y-102913241D01*
X116231183Y-102794346D01*
X116226963Y-102791760D01*
X116222393Y-102789867D01*
X116222389Y-102789865D01*
X116012167Y-102702789D01*
X116012165Y-102702788D01*
X116007594Y-102700895D01*
X115927391Y-102681640D01*
X115781524Y-102646620D01*
X115781518Y-102646619D01*
X115776711Y-102645465D01*
X115540000Y-102626835D01*
X115303289Y-102645465D01*
X115298482Y-102646619D01*
X115298476Y-102646620D01*
X115152609Y-102681640D01*
X115072406Y-102700895D01*
X115067835Y-102702788D01*
X115067833Y-102702789D01*
X114857611Y-102789865D01*
X114857607Y-102789867D01*
X114853037Y-102791760D01*
X114848817Y-102794346D01*
X114654798Y-102913241D01*
X114654792Y-102913245D01*
X114650584Y-102915824D01*
X114545430Y-103005634D01*
X114474243Y-103066434D01*
X114470031Y-103070031D01*
X114315824Y-103250584D01*
X114313245Y-103254792D01*
X114313241Y-103254798D01*
X114207745Y-103426952D01*
X114191760Y-103453037D01*
X114100895Y-103672406D01*
X114045465Y-103903289D01*
X114026835Y-104140000D01*
X111973165Y-104140000D01*
X111954535Y-103903289D01*
X111899105Y-103672406D01*
X111808240Y-103453037D01*
X111792255Y-103426952D01*
X111686759Y-103254798D01*
X111686755Y-103254792D01*
X111684176Y-103250584D01*
X111529969Y-103070031D01*
X111525758Y-103066434D01*
X111454570Y-103005634D01*
X111349416Y-102915824D01*
X111345208Y-102913245D01*
X111345202Y-102913241D01*
X111151183Y-102794346D01*
X111146963Y-102791760D01*
X111142393Y-102789867D01*
X111142389Y-102789865D01*
X110932167Y-102702789D01*
X110932165Y-102702788D01*
X110927594Y-102700895D01*
X110847391Y-102681640D01*
X110701524Y-102646620D01*
X110701518Y-102646619D01*
X110696711Y-102645465D01*
X110460000Y-102626835D01*
X110223289Y-102645465D01*
X110218482Y-102646619D01*
X110218476Y-102646620D01*
X110072609Y-102681640D01*
X109992406Y-102700895D01*
X109987835Y-102702788D01*
X109987833Y-102702789D01*
X109777611Y-102789865D01*
X109777607Y-102789867D01*
X109773037Y-102791760D01*
X109768817Y-102794346D01*
X109574798Y-102913241D01*
X109574792Y-102913245D01*
X109570584Y-102915824D01*
X109465430Y-103005634D01*
X109394243Y-103066434D01*
X109390031Y-103070031D01*
X109235824Y-103250584D01*
X109233245Y-103254792D01*
X109233241Y-103254798D01*
X109127745Y-103426952D01*
X109111760Y-103453037D01*
X109020895Y-103672406D01*
X108965465Y-103903289D01*
X108946835Y-104140000D01*
X106095500Y-104140000D01*
X106095500Y-73178395D01*
X106096578Y-73161948D01*
X106098746Y-73145483D01*
X106098746Y-73145479D01*
X106099479Y-73139913D01*
X106095640Y-73058511D01*
X106095500Y-73052576D01*
X106095500Y-73030001D01*
X106093181Y-73004011D01*
X106092822Y-72998749D01*
X106089160Y-72921113D01*
X106088896Y-72915512D01*
X106084892Y-72898030D01*
X106082211Y-72881100D01*
X106081116Y-72868832D01*
X106080617Y-72863238D01*
X106058630Y-72782867D01*
X106057344Y-72777749D01*
X106039995Y-72702000D01*
X106039994Y-72701998D01*
X106038742Y-72696530D01*
X106031706Y-72680033D01*
X106026073Y-72663858D01*
X106022818Y-72651961D01*
X106022817Y-72651957D01*
X106021337Y-72646549D01*
X105985461Y-72571333D01*
X105983290Y-72566524D01*
X105952804Y-72495051D01*
X105952804Y-72495050D01*
X105950603Y-72489891D01*
X105940749Y-72474890D01*
X105932343Y-72459970D01*
X105927035Y-72448841D01*
X105924622Y-72443782D01*
X105875994Y-72376108D01*
X105873011Y-72371768D01*
X105829804Y-72305990D01*
X105829798Y-72305982D01*
X105827265Y-72302126D01*
X105808743Y-72281338D01*
X105800506Y-72271056D01*
X105796799Y-72265897D01*
X105793529Y-72261346D01*
X105716746Y-72186938D01*
X105715336Y-72185549D01*
X103824525Y-70294737D01*
X103813657Y-70282346D01*
X103803533Y-70269152D01*
X103800123Y-70264708D01*
X103739826Y-70209842D01*
X103735531Y-70205743D01*
X103719590Y-70189802D01*
X103717440Y-70188004D01*
X103699577Y-70173068D01*
X103695602Y-70169600D01*
X103638112Y-70117288D01*
X103638103Y-70117281D01*
X103633964Y-70113515D01*
X103618773Y-70103986D01*
X103604907Y-70093911D01*
X103595451Y-70086004D01*
X103595441Y-70085997D01*
X103591146Y-70082406D01*
X103518752Y-70041113D01*
X103514232Y-70038408D01*
X103504620Y-70032378D01*
X103463202Y-70006397D01*
X103448404Y-69997114D01*
X103448401Y-69997112D01*
X103443656Y-69994136D01*
X103438451Y-69992043D01*
X103438448Y-69992042D01*
X103427021Y-69987448D01*
X103411589Y-69979988D01*
X103400881Y-69973880D01*
X103400872Y-69973876D01*
X103396007Y-69971101D01*
X103390730Y-69969232D01*
X103390725Y-69969230D01*
X103317458Y-69943285D01*
X103312522Y-69941420D01*
X103240416Y-69912434D01*
X103235217Y-69910344D01*
X103229730Y-69909208D01*
X103229728Y-69909207D01*
X103217651Y-69906706D01*
X103201156Y-69902101D01*
X103184241Y-69896111D01*
X103101990Y-69882641D01*
X103096820Y-69881683D01*
X103037291Y-69869355D01*
X103019758Y-69865724D01*
X103019757Y-69865724D01*
X103015233Y-69864787D01*
X103010621Y-69864521D01*
X103010620Y-69864521D01*
X102987452Y-69863185D01*
X102974347Y-69861738D01*
X102968090Y-69860714D01*
X102968086Y-69860714D01*
X102962543Y-69859806D01*
X102956930Y-69859894D01*
X102956928Y-69859894D01*
X102855736Y-69861484D01*
X102853757Y-69861500D01*
X73751395Y-69861500D01*
X73734948Y-69860422D01*
X73718483Y-69858254D01*
X73718479Y-69858254D01*
X73712913Y-69857521D01*
X73631512Y-69861360D01*
X73625576Y-69861500D01*
X73603001Y-69861500D01*
X73584118Y-69863185D01*
X73577011Y-69863819D01*
X73571749Y-69864178D01*
X73558838Y-69864787D01*
X73488512Y-69868104D01*
X73483053Y-69869354D01*
X73483048Y-69869355D01*
X73471030Y-69872108D01*
X73454101Y-69874789D01*
X73436238Y-69876383D01*
X73430822Y-69877865D01*
X73430820Y-69877865D01*
X73355867Y-69898370D01*
X73350749Y-69899656D01*
X73275000Y-69917005D01*
X73274998Y-69917006D01*
X73269530Y-69918258D01*
X73259030Y-69922737D01*
X73253033Y-69925294D01*
X73236858Y-69930927D01*
X73224961Y-69934182D01*
X73224957Y-69934183D01*
X73219549Y-69935663D01*
X73214483Y-69938079D01*
X73214484Y-69938079D01*
X73144333Y-69971539D01*
X73139524Y-69973710D01*
X73068051Y-70004196D01*
X73062891Y-70006397D01*
X73047890Y-70016251D01*
X73032975Y-70024654D01*
X73016782Y-70032378D01*
X73012234Y-70035646D01*
X73012229Y-70035649D01*
X72949114Y-70081002D01*
X72944777Y-70083982D01*
X72875125Y-70129735D01*
X72854344Y-70148251D01*
X72844048Y-70156500D01*
X72834346Y-70163471D01*
X72806904Y-70191789D01*
X72759968Y-70240223D01*
X72758579Y-70241633D01*
X71564737Y-71435475D01*
X71552347Y-71446342D01*
X71534708Y-71459877D01*
X71480188Y-71519794D01*
X71479842Y-71520174D01*
X71475743Y-71524469D01*
X71459802Y-71540410D01*
X71458007Y-71542557D01*
X71458005Y-71542559D01*
X71443068Y-71560423D01*
X71439600Y-71564398D01*
X71387288Y-71621888D01*
X71387281Y-71621897D01*
X71383515Y-71626036D01*
X71380538Y-71630782D01*
X71380537Y-71630783D01*
X71373987Y-71641225D01*
X71363911Y-71655093D01*
X71356004Y-71664549D01*
X71355997Y-71664559D01*
X71352406Y-71668854D01*
X71311118Y-71741240D01*
X71308413Y-71745759D01*
X71264136Y-71816344D01*
X71262043Y-71821549D01*
X71262042Y-71821552D01*
X71257448Y-71832979D01*
X71249988Y-71848411D01*
X71243880Y-71859119D01*
X71243876Y-71859128D01*
X71241101Y-71863993D01*
X71239232Y-71869270D01*
X71239230Y-71869275D01*
X71213285Y-71942542D01*
X71211420Y-71947478D01*
X71180344Y-72024783D01*
X71179208Y-72030270D01*
X71179207Y-72030272D01*
X71176706Y-72042349D01*
X71172101Y-72058844D01*
X71166111Y-72075759D01*
X71165204Y-72081298D01*
X71152643Y-72158001D01*
X71151683Y-72163180D01*
X71134787Y-72244767D01*
X71134521Y-72249379D01*
X71134521Y-72249380D01*
X71133185Y-72272548D01*
X71131738Y-72285653D01*
X71130714Y-72291910D01*
X71129806Y-72297457D01*
X71129894Y-72303070D01*
X71129894Y-72303072D01*
X71131484Y-72404264D01*
X71131500Y-72406243D01*
X71131500Y-72875502D01*
X71111498Y-72943623D01*
X71057842Y-72990116D01*
X70987568Y-73000220D01*
X70922988Y-72970726D01*
X70902287Y-72947773D01*
X70830136Y-72844730D01*
X70830134Y-72844727D01*
X70826977Y-72840219D01*
X70669781Y-72683023D01*
X70665273Y-72679866D01*
X70665270Y-72679864D01*
X70589505Y-72626813D01*
X70487677Y-72555512D01*
X70482695Y-72553189D01*
X70482690Y-72553186D01*
X70291178Y-72463883D01*
X70291177Y-72463882D01*
X70286196Y-72461560D01*
X70280888Y-72460138D01*
X70280886Y-72460137D01*
X70215051Y-72442497D01*
X70071463Y-72404022D01*
X69850000Y-72384647D01*
X69628537Y-72404022D01*
X69484949Y-72442497D01*
X69419114Y-72460137D01*
X69419112Y-72460138D01*
X69413804Y-72461560D01*
X69408823Y-72463882D01*
X69408822Y-72463883D01*
X69217311Y-72553186D01*
X69217306Y-72553189D01*
X69212324Y-72555512D01*
X69207817Y-72558668D01*
X69207815Y-72558669D01*
X69034730Y-72679864D01*
X69034727Y-72679866D01*
X69030219Y-72683023D01*
X68873023Y-72840219D01*
X68869866Y-72844727D01*
X68869864Y-72844730D01*
X68768064Y-72990116D01*
X68745512Y-73022324D01*
X68743189Y-73027306D01*
X68743186Y-73027311D01*
X68694195Y-73132373D01*
X68647277Y-73185658D01*
X68579000Y-73205119D01*
X68511040Y-73184577D01*
X68465805Y-73132373D01*
X68416814Y-73027311D01*
X68416811Y-73027306D01*
X68414488Y-73022324D01*
X68391936Y-72990116D01*
X68290136Y-72844730D01*
X68290134Y-72844727D01*
X68286977Y-72840219D01*
X68129781Y-72683023D01*
X68125273Y-72679866D01*
X68125270Y-72679864D01*
X68049505Y-72626813D01*
X67947677Y-72555512D01*
X67942695Y-72553189D01*
X67942690Y-72553186D01*
X67751178Y-72463883D01*
X67751177Y-72463882D01*
X67746196Y-72461560D01*
X67740888Y-72460138D01*
X67740886Y-72460137D01*
X67675051Y-72442497D01*
X67531463Y-72404022D01*
X67310000Y-72384647D01*
X67088537Y-72404022D01*
X66944949Y-72442497D01*
X66879114Y-72460137D01*
X66879112Y-72460138D01*
X66873804Y-72461560D01*
X66868823Y-72463882D01*
X66868822Y-72463883D01*
X66677311Y-72553186D01*
X66677306Y-72553189D01*
X66672324Y-72555512D01*
X66667817Y-72558668D01*
X66667815Y-72558669D01*
X66494730Y-72679864D01*
X66494727Y-72679866D01*
X66490219Y-72683023D01*
X66333023Y-72840219D01*
X66329866Y-72844727D01*
X66329864Y-72844730D01*
X66228064Y-72990116D01*
X66205512Y-73022324D01*
X66203189Y-73027306D01*
X66203186Y-73027311D01*
X66153919Y-73132965D01*
X66107001Y-73186250D01*
X66038724Y-73205711D01*
X65970764Y-73185169D01*
X65925529Y-73132965D01*
X65876377Y-73027559D01*
X65870897Y-73018068D01*
X65840206Y-72974235D01*
X65829729Y-72965860D01*
X65816282Y-72972928D01*
X65142022Y-73647188D01*
X65134408Y-73661132D01*
X64404356Y-73661132D01*
X64405592Y-73658868D01*
X64405461Y-73657035D01*
X64401210Y-73650420D01*
X63722997Y-72972207D01*
X63711223Y-72965777D01*
X63699207Y-72975074D01*
X63669103Y-73018068D01*
X63663623Y-73027559D01*
X63574355Y-73218993D01*
X63570609Y-73229285D01*
X63515941Y-73433309D01*
X63514038Y-73444104D01*
X63495628Y-73654525D01*
X63495628Y-73665475D01*
X56388000Y-73665475D01*
X56388000Y-72600271D01*
X64075860Y-72600271D01*
X64082928Y-72613718D01*
X64757188Y-73287978D01*
X64771132Y-73295592D01*
X64772965Y-73295461D01*
X64779580Y-73291210D01*
X65457793Y-72612997D01*
X65464223Y-72601223D01*
X65454926Y-72589207D01*
X65411931Y-72559102D01*
X65402445Y-72553624D01*
X65211007Y-72464355D01*
X65200715Y-72460609D01*
X64996691Y-72405941D01*
X64985896Y-72404038D01*
X64775475Y-72385628D01*
X64764525Y-72385628D01*
X64554104Y-72404038D01*
X64543309Y-72405941D01*
X64339285Y-72460609D01*
X64328993Y-72464355D01*
X64137559Y-72553623D01*
X64128068Y-72559103D01*
X64084235Y-72589794D01*
X64075860Y-72600271D01*
X56388000Y-72600271D01*
X56388000Y-69214000D01*
X56408002Y-69145879D01*
X56461658Y-69099386D01*
X56514000Y-69088000D01*
X120016000Y-69088000D01*
X120084121Y-69108002D01*
G37*
G04 #@! TD.AperFunction*
M02*
